<?xml version="1.0" encoding="utf-8"?>
<!-- Generator: Adobe Illustrator 22.0.1, SVG Export Plug-In . SVG Version: 6.00 Build 0)  -->
<svg version="1.1" id="Camada_1" xmlns="http://www.w3.org/2000/svg" xmlns:xlink="http://www.w3.org/1999/xlink" x="0px" y="0px"
	 viewBox="0 0 223.6 401.6" style="enable-background:new 0 0 223.6 401.6;" xml:space="preserve">
<style type="text/css">
	.st0{fill:#141734;}
	.st1{fill:none;stroke:#92092A;stroke-width:2;stroke-miterlimit:10;}
	.st2{fill:#707070;}
	.st3{fill:#C17B3D;}
	.st4{fill:#FFFFFF;}
</style>
<g>
	
		<image style="overflow:visible;opacity:0.5;" width="236" height="414" xlink:href="5BC60199.png"  transform="matrix(1 0 0 1 -4.25 -3)">
	</image>
	<g>
		<rect x="0.8" y="1" class="st0" width="221.7" height="400"/>
		<rect x="0.8" y="1" class="st1" width="221.7" height="400"/>
	</g>
</g>
<g>
	<path class="st2" d="M111,95c-0.4-0.2-0.9-0.5-1.4-0.8c-0.9-0.6-3,0.5-3,0.5l-4.9,3.6l-4.7,2.2c0,0-0.6-4.7-1.4-5.9
		c-0.8-1.2-3.5-0.8-3.6-2.6c-0.1-1.8-1.3-2.4-2.2-3.9c-0.9-1.5-1.1-10.5-1.1-10.5s-0.9,5.4-0.9,6.7c0,1.3,0,2.9,0,4.7
		c0,1.8,0.6,3.9,0.8,5.8c0.2,1.9-0.2,4.9,0.6,6.9c0.8,2-1.6,7.3-0.5,10.5c1.1,3.2,3.2,3.8,2.9,5.6c-0.3,1.9,0.1,6.7,1.8,8.3
		c1.7,1.6,3.4,2.9,5.8,3.3c2.5,0.4,3.1,0.9,5.4,1.7c2.4,0.8,3.9-0.8,5-0.5c0.4,0.1,0.8,0.2,1.3,0.3c0.5-0.1,0.9-0.2,1.3-0.3
		c1.1-0.3,2.7,1.3,5,0.5c2.4-0.8,3-1.3,5.4-1.7c2.5-0.4,4.1-1.7,5.8-3.3c1.7-1.6,2.1-6.4,1.8-8.3c-0.3-1.9,1.8-2.5,2.9-5.6
		s-1.3-8.5-0.5-10.5c0.8-2,0.4-5,0.6-6.9c0.2-1.9,0.8-3.9,0.8-5.8c0-1.8,0-3.4,0-4.7c0-1.3-0.9-6.7-0.9-6.7s-0.2,9-1.1,10.5
		c-0.9,1.5-2.1,2.1-2.2,3.9c-0.1,1.8-2.8,1.4-3.6,2.6c-0.8,1.2-1.4,5.9-1.4,5.9l-4.7-2.2l-4.9-3.6c0,0-2.1-1.1-3-0.5
		C111.9,94.6,111.4,94.8,111,95z M111,107.6c-1.3-0.1-3-0.9-3.8-0.9c-1.1,0-3,1.9-4.3,1.7c-1.4-0.2-1.6-3.9-1.6-3.9s5.3-2.7,6.8-2.4
		c0.9,0.2,2.1,0.1,2.9,0.1c0.7,0.1,1.9,0.1,2.9-0.1c1.5-0.3,6.8,2.4,6.8,2.4s-0.2,3.7-1.6,3.9c-1.4,0.2-3.3-1.7-4.3-1.7
		C114,106.7,112.3,107.5,111,107.6z"/>
	<path class="st3" d="M135.5,60.6c0,0,1.5-5.1,0.6-10.1c-1-5-8.8-11.9-8.8-11.9c-1.3-4.1-6.7-4.9-6.7-4.9l-4.6-3.5
		c-8.1-3.2-14.6,1.8-14.6,1.8c-1.1-0.7-4.2,0-4.2,0c-5.9,1.3-7.2,7.8-7,11.4c0.2,3.6,6.5,6.1,6.5,6.1c-3.2,0.5-6.3-2-6.3-2
		c-1.7,1.2-2.5,3.1-3.9,5.5c-0.6,1.1-0.7,6-0.7,7.7c0,1.7,0.5,3.9,0.8,6.6c0.3,2.7,0.7,1.9,0.7,1.9l3.4,9.3l-0.3-5.3
		c0,0,1.3-2.4,0.6-8.4c-0.7-5.9,2-11.1,3.3-13.1c1.4-2,7.3-1.4,7.3-1.4s12.6,1.1,14.6,0.2c2-0.8,8.3,0.2,9.9,1.3
		c1.7,1.1,3.2,10.4,3.9,14c0.7,3.6,1,13.2,1,13.2s-0.4-1.5,2-5.4c2.4-4,1.9-4.5,2-4.9C135.3,62.9,135.6,59.6,135.5,60.6z M98.8,47.8
		c0,0-0.9,0.8-3.5-5c-2.6-5.8,4.8-9.4,4.8-9.4C92.6,42.1,98.8,47.8,98.8,47.8z M101.4,42.8c0,0,0.9-7.2,7-9.9c6.1-2.7,9.8,1,9.8,1
		s-1.3-0.3-7,0.6C105.5,35.3,101.4,42.8,101.4,42.8z M110.1,40.7c0,0,0.4-3.5,4.2-4.5c3.8-1,8.3,1.2,8.3,1.2
		C115.8,34.8,110.1,40.7,110.1,40.7z M123.9,40.7c-5.8-2.4-10.3,3.5-10.3,3.5c3.6-5.8,6.2-5,11.9-4c5.8,1,8.3,7.4,8.3,7.4
		C131.4,43.6,129.7,43,123.9,40.7z"/>
	<path class="st2" d="M110.2,77.4c0,0,1.2-0.1,2.1,1.8c1.8,3.7,4,7.1,9.5,6.9c6.5-0.2,8.3-6.9,8.7-9.2c0.1-0.6,0.3-1.1,0.5-1.7
		c0.1-0.4,0.3-0.8,0.6-1.5v-2.9h-6.7c-6.1-0.1-10.7,2.5-11.8,3.2c-1.1,0.7-2.2,0.7-2.2,0.7h-1.3c0,0-1.2,0-2.2-0.7
		c-1.1-0.7-5.7-3.2-11.8-3.2l-6.7,0v2.9c0.3,0.7,0.4,1.2,0.6,1.5c0.2,0.5,0.4,1.1,0.5,1.7c0.4,2.3,2.2,8.9,8.7,9.2
		c5.5,0.2,7.8-3.2,9.5-6.9C108.9,77.2,110.1,77.4,110.2,77.4z M128.7,77.8c-0.6,4.1-3.2,7.3-7.7,7.4c-4.4,0.1-7.2-3.9-7.5-6.7
		c-0.3-2.9,2.5-4.5,2.5-4.5c2.2-1.3,5.3-1.4,8.1-1.3C127.1,72.7,129.3,73.7,128.7,77.8z M96.1,72.6c2.7-0.1,5.9,0,8.1,1.3
		c0,0,2.8,1.6,2.5,4.5c-0.3,2.8-3.1,6.8-7.5,6.7c-4.4-0.1-7.1-3.3-7.7-7.4C91,73.7,93.2,72.7,96.1,72.6z"/>
</g>
<g>
	<path class="st4" d="M34,172.8l1.5,0.8l-0.1,0.1c-0.9,1.8-2.7,2.9-4.6,2.9c-2.9,0-5.2-2.5-5.2-5.5c0-3,2.4-5.5,5.2-5.5
		c1.9,0,3.6,1.1,4.6,2.8l0.1,0.1l-1.5,0.8l-0.1-0.1c-0.6-1.2-1.8-1.9-3.1-1.9c-2,0-3.5,1.7-3.5,3.8c0,2.1,1.6,3.8,3.5,3.8
		c1.3,0,2.5-0.8,3.1-2L34,172.8z"/>
	<path class="st4" d="M46.6,171.1c0,3-2.3,5.5-5.2,5.5c-2.9,0-5.2-2.5-5.2-5.5c0-3,2.4-5.5,5.2-5.5C44.2,165.6,46.6,168,46.6,171.1z
		 M41.3,167.3c-2,0-3.5,1.7-3.5,3.8c0,2.1,1.6,3.8,3.5,3.8s3.5-1.7,3.5-3.8C44.9,169,43.3,167.3,41.3,167.3z"/>
	<path class="st4" d="M51.7,171.8l3.6,4.6h-2l-3.6-4.5h-0.5v4.5h-1.7v-10.6h3.5c0.9,0,1.7,0.4,2.3,1c0.5,0.6,0.9,1.4,0.9,2.1
		c0,0.8-0.3,1.5-0.8,2C53.2,171.2,52.6,171.7,51.7,171.8z M51.1,167.4h-1.8v2.7h1.8c1.4,0,1.5-1.1,1.5-1.3
		C52.6,168.2,52,167.4,51.1,167.4z"/>
	<path class="st4" d="M55.5,165.8h5v1.6h-1.6v9.1h-1.7v-9.1h-1.6V165.8z"/>
	<path class="st4" d="M61.2,165.8h5.6v1.5h-4v3h3.7v1.6h-3.7v3h4v1.6h-5.6V165.8z"/>
	<path class="st4" d="M80.3,172.8l1.5,0.8l-0.1,0.1c-0.9,1.8-2.7,2.9-4.6,2.9c-2.9,0-5.2-2.5-5.2-5.5c0-3,2.4-5.5,5.2-5.5
		c1.9,0,3.6,1.1,4.6,2.8l0.1,0.1l-1.5,0.8l-0.1-0.1c-0.6-1.2-1.8-1.9-3.1-1.9c-2,0-3.5,1.7-3.5,3.8c0,2.1,1.6,3.8,3.5,3.8
		c1.3,0,2.5-0.8,3.1-2L80.3,172.8z"/>
	<path class="st4" d="M93,171.1c0,3-2.3,5.5-5.2,5.5c-2.9,0-5.2-2.5-5.2-5.5c0-3,2.4-5.5,5.2-5.5C90.6,165.6,93,168,93,171.1z
		 M87.7,167.3c-2,0-3.5,1.7-3.5,3.8c0,2.1,1.6,3.8,3.5,3.8s3.5-1.7,3.5-3.8C91.3,169,89.7,167.3,87.7,167.3z"/>
	<path class="st4" d="M102.5,165.8v10.6h-1.7v-5.6l-1.9,5.6h-1.4l-1.9-5.6v5.6H94v-10.6h1.7l2.6,7.8l2.6-7.8H102.5z"/>
	<path class="st4" d="M110.2,165.8h1.7v5.8c0,1.5-0.4,2.7-1.1,3.6c-0.7,0.9-1.7,1.4-2.9,1.4c-1.2,0-2.2-0.4-2.9-1.3
		c-0.7-0.9-1.1-2.1-1.1-3.7v-5.8h1.7v5.8c0,1.1,0.3,2,0.7,2.6c0.4,0.4,0.9,0.7,1.6,0.7c0.6,0,1.2-0.3,1.6-0.7
		c0.5-0.6,0.7-1.5,0.7-2.5V165.8z"/>
	<path class="st4" d="M121.7,165.8v10.6H120v-5.6l-1.9,5.6h-1.4l-1.9-5.6v5.6h-1.7v-10.6h1.7l2.6,7.8l2.6-7.8H121.7z"/>
	<path class="st2" d="M124.8,175.7c0,0.5-0.4,0.9-0.8,0.9c-0.5,0-0.9-0.4-0.9-0.9c0-0.5,0.4-0.8,0.9-0.8
		C124.4,174.8,124.8,175.2,124.8,175.7z"/>
	<path class="st2" d="M127.8,175.7c0,0.5-0.4,0.9-0.8,0.9c-0.5,0-0.9-0.4-0.9-0.9c0-0.5,0.4-0.8,0.9-0.8
		C127.5,174.8,127.8,175.2,127.8,175.7z"/>
	<path class="st2" d="M130.9,175.7c0,0.5-0.4,0.9-0.8,0.9c-0.5,0-0.9-0.4-0.9-0.9c0-0.5,0.4-0.8,0.9-0.8
		C130.5,174.8,130.9,175.2,130.9,175.7z"/>
	<path class="st2" d="M134,175.7c0,0.5-0.4,0.9-0.8,0.9c-0.5,0-0.9-0.4-0.9-0.9c0-0.5,0.4-0.8,0.9-0.8
		C133.6,174.8,134,175.2,134,175.7z"/>
	<path class="st2" d="M137.1,175.7c0,0.5-0.4,0.9-0.8,0.9c-0.5,0-0.9-0.4-0.9-0.9c0-0.5,0.4-0.8,0.9-0.8
		C136.7,174.8,137.1,175.2,137.1,175.7z"/>
	<path class="st2" d="M140.2,175.7c0,0.5-0.4,0.9-0.8,0.9c-0.5,0-0.9-0.4-0.9-0.9c0-0.5,0.4-0.8,0.9-0.8
		C139.8,174.8,140.2,175.2,140.2,175.7z"/>
	<path class="st2" d="M143.3,175.7c0,0.5-0.4,0.9-0.8,0.9c-0.5,0-0.9-0.4-0.9-0.9c0-0.5,0.4-0.8,0.9-0.8
		C142.9,174.8,143.3,175.2,143.3,175.7z"/>
	<path class="st2" d="M146.4,175.7c0,0.5-0.4,0.9-0.8,0.9c-0.5,0-0.9-0.4-0.9-0.9c0-0.5,0.4-0.8,0.9-0.8
		C146,174.8,146.4,175.2,146.4,175.7z"/>
	<path class="st2" d="M149.5,175.7c0,0.5-0.4,0.9-0.8,0.9c-0.5,0-0.9-0.4-0.9-0.9c0-0.5,0.4-0.8,0.9-0.8
		C149.1,174.8,149.5,175.2,149.5,175.7z"/>
	<path class="st3" d="M155,171.8l3.6,4.6h-2l-3.6-4.5h-0.5v4.5h-1.7v-10.6h3.5c0.9,0,1.7,0.4,2.3,1c0.5,0.6,0.9,1.4,0.9,2.1
		c0,0.8-0.3,1.5-0.8,2C156.4,171.2,155.9,171.7,155,171.8z M154.4,167.4h-1.8v2.7h1.8c1.4,0,1.5-1.1,1.5-1.3
		C155.8,168.2,155.3,167.4,154.4,167.4z"/>
	<path class="st3" d="M162.1,177.8v-1.6c-0.9,0-1.9-0.3-2.4-0.7l0.4-1.1c0.6,0.4,1.4,0.7,2.3,0.7c1.1,0,1.9-0.7,1.9-1.6
		c0-0.9-0.6-1.4-1.8-1.9c-1.6-0.6-2.6-1.4-2.6-2.8c0-1.3,0.9-2.3,2.4-2.6v-1.6h1v1.6c1,0,1.6,0.3,2.1,0.6l-0.4,1.1
		c-0.3-0.2-1-0.5-2-0.5c-1.2,0-1.7,0.7-1.7,1.4c0,0.8,0.6,1.2,2,1.8c1.6,0.7,2.5,1.5,2.5,2.9c0,1.3-0.9,2.4-2.5,2.7v1.7H162.1z"/>
	<path class="st3" d="M173.2,168.7c0,0.9-0.4,1.7-1,2.3c0.6,0.6,1,1.4,1,2.3c0,1.7-1.4,3.2-3,3.2c-1.7,0-3-1.4-3-3.2v-0.2h1.7v0.2
		c0,0.8,0.6,1.5,1.4,1.5c0.8,0,1.4-0.7,1.4-1.5c0-0.8-0.6-1.5-1.4-1.5h-1.2v-1.7h1.2c0.8,0,1.4-0.7,1.4-1.5c0-0.8-0.6-1.5-1.4-1.5
		c-0.7,0-1.4,0.7-1.4,1.5v0.2h-1.7v-0.2c0-1.7,1.4-3.2,3-3.2C171.8,165.6,173.2,167,173.2,168.7z"/>
	<path class="st3" d="M183.7,171.1c0,3-2.2,5.5-4.9,5.5c-2.7,0-4.9-2.5-4.9-5.5c0-3,2.2-5.5,4.9-5.5
		C181.5,165.6,183.7,168,183.7,171.1z M178.8,167.3c-1.8,0-3.2,1.7-3.2,3.8c0,2.1,1.4,3.8,3.2,3.8c1.8,0,3.2-1.7,3.2-3.8
		C182,169,180.6,167.3,178.8,167.3z"/>
</g>
<g>
	<g>
		<path class="st2" d="M30.5,183.5l0.7,0.4l0,0.1c-0.5,0.9-1.3,1.4-2.3,1.4c-1.4,0-2.6-1.2-2.6-2.7c0-1.5,1.2-2.7,2.6-2.7
			c1,0,1.8,0.5,2.3,1.4l0,0.1l-0.8,0.4l0-0.1c-0.3-0.6-0.9-1-1.5-1c-1,0-1.8,0.9-1.8,1.9c0,1,0.8,1.9,1.8,1.9
			C29.6,184.6,30.1,184.2,30.5,183.5L30.5,183.5z"/>
		<path class="st2" d="M36.8,182.7c0,1.5-1.2,2.7-2.6,2.7c-1.4,0-2.6-1.2-2.6-2.7c0-1.5,1.2-2.7,2.6-2.7
			C35.6,179.9,36.8,181.1,36.8,182.7z M34.2,180.8c-1,0-1.8,0.9-1.8,1.9c0,1,0.8,1.9,1.8,1.9s1.8-0.9,1.8-1.9
			C36,181.6,35.2,180.8,34.2,180.8z"/>
		<path class="st2" d="M39.4,183l1.8,2.3h-1l-1.8-2.3h-0.2v2.3h-0.8V180h1.8c0.4,0,0.9,0.2,1.2,0.5c0.3,0.3,0.4,0.7,0.4,1.1
			c0,0.4-0.1,0.7-0.4,1C40.1,182.7,39.8,183,39.4,183z M39.1,180.8h-0.9v1.4h0.9c0.7,0,0.7-0.6,0.7-0.7
			C39.8,181.2,39.5,180.8,39.1,180.8z"/>
		<path class="st2" d="M41.3,180h2.5v0.8h-0.8v4.5h-0.8v-4.5h-0.8V180z"/>
		<path class="st2" d="M44.1,180h2.8v0.8h-2v1.5h1.8v0.8h-1.8v1.5h2v0.8h-2.8V180z"/>
		<path class="st2" d="M53.7,183.5l0.7,0.4l0,0.1c-0.5,0.9-1.3,1.4-2.3,1.4c-1.4,0-2.6-1.2-2.6-2.7c0-1.5,1.2-2.7,2.6-2.7
			c1,0,1.8,0.5,2.3,1.4l0,0.1l-0.8,0.4l0-0.1c-0.3-0.6-0.9-1-1.5-1c-1,0-1.8,0.9-1.8,1.9c0,1,0.8,1.9,1.8,1.9
			C52.7,184.6,53.3,184.2,53.7,183.5L53.7,183.5z"/>
		<path class="st2" d="M60,182.7c0,1.5-1.2,2.7-2.6,2.7c-1.4,0-2.6-1.2-2.6-2.7c0-1.5,1.2-2.7,2.6-2.7C58.8,179.9,60,181.1,60,182.7
			z M57.4,180.8c-1,0-1.8,0.9-1.8,1.9c0,1,0.8,1.9,1.8,1.9s1.8-0.9,1.8-1.9C59.2,181.6,58.4,180.8,57.4,180.8z"/>
		<path class="st2" d="M64.8,180v5.3h-0.8v-2.8l-0.9,2.8h-0.7l-0.9-2.8v2.8h-0.8V180h0.8l1.3,3.9L64,180H64.8z"/>
		<path class="st2" d="M68.6,180h0.8v2.9c0,0.7-0.2,1.4-0.6,1.8c-0.4,0.4-0.9,0.7-1.4,0.7c-0.6,0-1.1-0.2-1.4-0.6
			c-0.4-0.4-0.6-1.1-0.6-1.8V180h0.8v2.9c0,0.6,0.1,1,0.4,1.3c0.2,0.2,0.5,0.3,0.8,0.3c0.3,0,0.6-0.1,0.8-0.4
			c0.2-0.3,0.4-0.7,0.4-1.3V180z"/>
		<path class="st2" d="M74.3,180v5.3h-0.8v-2.8l-0.9,2.8h-0.7l-0.9-2.8v2.8h-0.8V180h0.8l1.3,3.9l1.3-3.9H74.3z"/>
		<path class="st2" d="M80,180h0.8v5.3H80l-1.9-3.6v3.6h-0.8V180h0.8l1.9,3.7V180z"/>
		<path class="st2" d="M83.8,180l1.8,5.3h-0.9l-0.4-1.2h-1.8l-0.4,1.2h-0.9l1.8-5.3H83.8z M83.5,181.5l-0.6,1.9h1.3L83.5,181.5z"/>
		<path class="st2" d="M88,180h2.5v0.8h-0.8v4.5h-0.8v-4.5H88V180z"/>
		<path class="st2" d="M90.9,180h2.8v0.8h-2v1.5h1.8v0.8h-1.8v1.5h2v0.8h-2.8V180z"/>
		<path class="st2" d="M97.3,181.6L97.3,181.6l-0.8,0.1v-0.1c0-0.5-0.3-0.8-0.8-0.8c-0.3,0-0.8,0.1-0.8,0.6c0,0.3,0.4,0.5,0.9,0.9
			c0.3,0.2,0.6,0.4,0.9,0.6c0.3,0.3,0.5,0.7,0.5,1.1c0,0.4-0.2,0.8-0.5,1.1c-0.3,0.3-0.7,0.4-1.1,0.4c-0.9,0-1.6-0.7-1.6-1.7v-0.1
			h0.8v0.1c0,0.5,0.3,0.8,0.8,0.8c0.7,0,0.8-0.6,0.8-0.7c0-0.4-0.4-0.6-1-1c-0.6-0.4-1.4-0.8-1.4-1.6c0-0.9,0.6-1.4,1.6-1.4
			C96.6,179.9,97.3,180.6,97.3,181.6z"/>
		<path class="st2" d="M102.9,182.7c0,1.5-1.2,2.7-2.6,2.7c-1.4,0-2.6-1.2-2.6-2.7c0-1.5,1.2-2.7,2.6-2.7
			C101.8,179.9,102.9,181.1,102.9,182.7z M100.3,180.8c-1,0-1.8,0.9-1.8,1.9c0,1,0.8,1.9,1.8,1.9s1.8-0.9,1.8-1.9
			C102.1,181.6,101.3,180.8,100.3,180.8z"/>
		<path class="st2" d="M106.6,180h0.8v2.9c0,0.7-0.2,1.4-0.6,1.8c-0.4,0.4-0.9,0.7-1.4,0.7c-0.6,0-1.1-0.2-1.4-0.6
			c-0.4-0.4-0.6-1.1-0.6-1.8V180h0.8v2.9c0,0.6,0.1,1,0.4,1.3c0.2,0.2,0.5,0.3,0.8,0.3c0.3,0,0.6-0.1,0.8-0.4
			c0.2-0.3,0.4-0.7,0.4-1.3V180z"/>
		<path class="st2" d="M110.1,183l1.8,2.3h-1l-1.8-2.3h-0.2v2.3h-0.8V180h1.8c0.4,0,0.9,0.2,1.2,0.5c0.3,0.3,0.4,0.7,0.4,1.1
			c0,0.4-0.1,0.7-0.4,1C110.9,182.7,110.6,183,110.1,183z M109.8,180.8h-0.9v1.4h0.9c0.7,0,0.7-0.6,0.7-0.7
			C110.6,181.2,110.3,180.8,109.8,180.8z"/>
		<path class="st2" d="M114.7,180l1.8,5.3h-0.9l-0.4-1.2h-1.8l-0.4,1.2h-0.9l1.8-5.3H114.7z M114.3,181.5l-0.6,1.9h1.3L114.3,181.5z
			"/>
	</g>
</g>
<g>
	<path class="st4" d="M34.3,223.7l1.5,0.8l-0.1,0.1c-0.9,1.8-2.7,2.9-4.6,2.9c-2.9,0-5.2-2.5-5.2-5.5c0-3,2.4-5.5,5.2-5.5
		c1.9,0,3.6,1.1,4.6,2.8l0.1,0.1l-1.5,0.8l-0.1-0.1c-0.6-1.2-1.8-1.9-3.1-1.9c-2,0-3.5,1.7-3.5,3.8c0,2.1,1.6,3.8,3.5,3.8
		c1.3,0,2.5-0.8,3.1-2L34.3,223.7z"/>
	<path class="st4" d="M47,222c0,3-2.3,5.5-5.2,5.5c-2.9,0-5.2-2.5-5.2-5.5c0-3,2.4-5.5,5.2-5.5C44.6,216.5,47,219,47,222z
		 M41.7,218.2c-2,0-3.5,1.7-3.5,3.8c0,2.1,1.6,3.8,3.5,3.8s3.5-1.7,3.5-3.8C45.3,219.9,43.7,218.2,41.7,218.2z"/>
	<path class="st4" d="M52.1,222.8l3.6,4.6h-2l-3.6-4.5h-0.5v4.5H48v-10.6h3.5c0.9,0,1.7,0.4,2.3,1c0.5,0.6,0.9,1.4,0.9,2.1
		c0,0.8-0.3,1.5-0.8,2C53.6,222.2,53,222.6,52.1,222.8z M51.5,218.4h-1.8v2.7h1.8c1.4,0,1.5-1.1,1.5-1.3
		C53,219.1,52.4,218.4,51.5,218.4z"/>
	<path class="st4" d="M55.8,216.7h5v1.6h-1.6v9.1h-1.7v-9.1h-1.6V216.7z"/>
	<path class="st4" d="M61.6,216.7h5.6v1.5h-4v3h3.7v1.6h-3.7v3h4v1.6h-5.6V216.7z"/>
	<path class="st4" d="M80.7,223.7l1.5,0.8l-0.1,0.1c-0.9,1.8-2.7,2.9-4.6,2.9c-2.9,0-5.2-2.5-5.2-5.5c0-3,2.4-5.5,5.2-5.5
		c1.9,0,3.6,1.1,4.6,2.8l0.1,0.1l-1.5,0.8l-0.1-0.1c-0.6-1.2-1.8-1.9-3.1-1.9c-2,0-3.5,1.7-3.5,3.8c0,2.1,1.6,3.8,3.5,3.8
		c1.3,0,2.5-0.8,3.1-2L80.7,223.7z"/>
	<path class="st4" d="M93.3,222c0,3-2.3,5.5-5.2,5.5c-2.9,0-5.2-2.5-5.2-5.5c0-3,2.4-5.5,5.2-5.5C91,216.5,93.3,219,93.3,222z
		 M88.1,218.2c-2,0-3.5,1.7-3.5,3.8c0,2.1,1.6,3.8,3.5,3.8s3.5-1.7,3.5-3.8C91.6,219.9,90.1,218.2,88.1,218.2z"/>
	<path class="st4" d="M102.9,216.7v10.6h-1.7v-5.6l-1.9,5.6H98l-1.9-5.6v5.6h-1.7v-10.6h1.7l2.6,7.8l2.6-7.8H102.9z"/>
	<path class="st4" d="M110.6,216.7h1.7v5.8c0,1.5-0.4,2.7-1.1,3.6c-0.7,0.9-1.7,1.4-2.9,1.4c-1.2,0-2.2-0.4-2.9-1.3
		c-0.7-0.9-1.1-2.1-1.1-3.7v-5.8h1.7v5.8c0,1.1,0.3,2,0.7,2.6c0.4,0.4,0.9,0.7,1.6,0.7c0.6,0,1.2-0.3,1.6-0.7
		c0.5-0.6,0.7-1.5,0.7-2.5V216.7z"/>
	<path class="st4" d="M122,216.7v10.6h-1.7v-5.6l-1.9,5.6h-1.4l-1.9-5.6v5.6h-1.7v-10.6h1.7l2.6,7.8l2.6-7.8H122z"/>
	<path class="st2" d="M125.1,226.7c0,0.5-0.4,0.9-0.8,0.9c-0.5,0-0.9-0.4-0.9-0.9c0-0.5,0.4-0.8,0.9-0.8
		C124.7,225.8,125.1,226.2,125.1,226.7z"/>
	<path class="st2" d="M128.2,226.7c0,0.5-0.4,0.9-0.8,0.9c-0.5,0-0.9-0.4-0.9-0.9c0-0.5,0.4-0.8,0.9-0.8
		C127.8,225.8,128.2,226.2,128.2,226.7z"/>
	<path class="st2" d="M131.3,226.7c0,0.5-0.4,0.9-0.8,0.9c-0.5,0-0.9-0.4-0.9-0.9c0-0.5,0.4-0.8,0.9-0.8
		C130.9,225.8,131.3,226.2,131.3,226.7z"/>
	<path class="st2" d="M134.4,226.7c0,0.5-0.4,0.9-0.8,0.9c-0.5,0-0.9-0.4-0.9-0.9c0-0.5,0.4-0.8,0.9-0.8
		C134,225.8,134.4,226.2,134.4,226.7z"/>
	<path class="st2" d="M137.5,226.7c0,0.5-0.4,0.9-0.8,0.9c-0.5,0-0.9-0.4-0.9-0.9c0-0.5,0.4-0.8,0.9-0.8
		C137.1,225.8,137.5,226.2,137.5,226.7z"/>
	<path class="st2" d="M140.6,226.7c0,0.5-0.4,0.9-0.8,0.9c-0.5,0-0.9-0.4-0.9-0.9c0-0.5,0.4-0.8,0.9-0.8
		C140.2,225.8,140.6,226.2,140.6,226.7z"/>
	<path class="st2" d="M143.7,226.7c0,0.5-0.4,0.9-0.8,0.9c-0.5,0-0.9-0.4-0.9-0.9c0-0.5,0.4-0.8,0.9-0.8
		C143.3,225.8,143.7,226.2,143.7,226.7z"/>
	<path class="st2" d="M146.7,226.7c0,0.5-0.4,0.9-0.8,0.9c-0.5,0-0.9-0.4-0.9-0.9c0-0.5,0.4-0.8,0.9-0.8
		C146.4,225.8,146.7,226.2,146.7,226.7z"/>
	<path class="st2" d="M149.8,226.7c0,0.5-0.4,0.9-0.8,0.9c-0.5,0-0.9-0.4-0.9-0.9c0-0.5,0.4-0.8,0.9-0.8
		C149.4,225.8,149.8,226.2,149.8,226.7z"/>
	<path class="st3" d="M155.3,222.8l3.6,4.6h-2l-3.6-4.5h-0.5v4.5h-1.7v-10.6h3.5c0.9,0,1.7,0.4,2.3,1c0.5,0.6,0.9,1.4,0.9,2.1
		c0,0.8-0.3,1.5-0.8,2C156.8,222.2,156.2,222.6,155.3,222.8z M154.7,218.4h-1.8v2.7h1.8c1.4,0,1.5-1.1,1.5-1.3
		C156.2,219.1,155.6,218.4,154.7,218.4z"/>
	<path class="st3" d="M162.4,228.7v-1.6c-0.9,0-1.9-0.3-2.4-0.7l0.4-1.1c0.6,0.4,1.4,0.7,2.3,0.7c1.1,0,1.9-0.7,1.9-1.6
		c0-0.9-0.6-1.4-1.8-1.9c-1.6-0.6-2.6-1.4-2.6-2.8c0-1.3,0.9-2.3,2.4-2.6v-1.6h1v1.6c1,0,1.6,0.3,2.1,0.6l-0.4,1.1
		c-0.3-0.2-1-0.5-2-0.5c-1.2,0-1.7,0.7-1.7,1.4c0,0.8,0.6,1.2,2,1.8c1.6,0.7,2.5,1.5,2.5,2.9c0,1.3-0.9,2.4-2.5,2.7v1.7H162.4z"/>
	<path class="st3" d="M173.6,219.7c0,0.9-0.4,1.7-1,2.3c0.6,0.6,1,1.4,1,2.3c0,1.7-1.4,3.2-3,3.2c-1.7,0-3-1.4-3-3.2v-0.2h1.7v0.2
		c0,0.8,0.6,1.5,1.4,1.5c0.8,0,1.4-0.7,1.4-1.5c0-0.8-0.6-1.5-1.4-1.5h-1.2v-1.7h1.2c0.8,0,1.4-0.7,1.4-1.5c0-0.8-0.6-1.5-1.4-1.5
		c-0.7,0-1.4,0.7-1.4,1.5v0.2h-1.7v-0.2c0-1.7,1.4-3.2,3-3.2C172.2,216.5,173.6,218,173.6,219.7z"/>
	<path class="st3" d="M184.1,222c0,3-2.2,5.5-4.9,5.5c-2.7,0-4.9-2.5-4.9-5.5c0-3,2.2-5.5,4.9-5.5C181.9,216.5,184.1,219,184.1,222z
		 M179.2,218.2c-1.8,0-3.2,1.7-3.2,3.8c0,2.1,1.4,3.8,3.2,3.8c1.8,0,3.2-1.7,3.2-3.8C182.4,219.9,181,218.2,179.2,218.2z"/>
</g>
<g>
	<g>
		<path class="st2" d="M29.8,234.5l0.7,0.4l0,0.1c-0.5,0.9-1.3,1.4-2.3,1.4c-1.4,0-2.6-1.2-2.6-2.7c0-1.5,1.2-2.7,2.6-2.7
			c1,0,1.8,0.5,2.3,1.4l0,0.1l-0.8,0.4l0-0.1c-0.3-0.6-0.9-1-1.5-1c-1,0-1.8,0.9-1.8,1.9c0,1,0.8,1.9,1.8,1.9
			C28.8,235.5,29.4,235.1,29.8,234.5L29.8,234.5z"/>
		<path class="st2" d="M36.1,233.6c0,1.5-1.2,2.7-2.6,2.7c-1.4,0-2.6-1.2-2.6-2.7c0-1.5,1.2-2.7,2.6-2.7
			C34.9,230.9,36.1,232.1,36.1,233.6z M33.5,231.7c-1,0-1.8,0.9-1.8,1.9c0,1,0.8,1.9,1.8,1.9s1.8-0.9,1.8-1.9
			C35.2,232.6,34.4,231.7,33.5,231.7z"/>
		<path class="st2" d="M38.7,234l1.8,2.3h-1l-1.8-2.3h-0.2v2.3h-0.8V231h1.8c0.4,0,0.9,0.2,1.2,0.5c0.3,0.3,0.4,0.7,0.4,1.1
			c0,0.4-0.1,0.7-0.4,1C39.4,233.7,39.1,233.9,38.7,234z M38.3,231.8h-0.9v1.4h0.9c0.7,0,0.7-0.6,0.7-0.7
			C39.1,232.2,38.8,231.8,38.3,231.8z"/>
		<path class="st2" d="M40.5,231H43v0.8h-0.8v4.5h-0.8v-4.5h-0.8V231z"/>
		<path class="st2" d="M43.4,231h2.8v0.8h-2v1.5H46v0.8h-1.8v1.5h2v0.8h-2.8V231z"/>
		<path class="st2" d="M52.9,234.5l0.7,0.4l0,0.1c-0.5,0.9-1.3,1.4-2.3,1.4c-1.4,0-2.6-1.2-2.6-2.7c0-1.5,1.2-2.7,2.6-2.7
			c1,0,1.8,0.5,2.3,1.4l0,0.1l-0.8,0.4l0-0.1c-0.3-0.6-0.9-1-1.5-1c-1,0-1.8,0.9-1.8,1.9c0,1,0.8,1.9,1.8,1.9
			C52,235.5,52.6,235.1,52.9,234.5L52.9,234.5z"/>
		<path class="st2" d="M59.3,233.6c0,1.5-1.2,2.7-2.6,2.7c-1.4,0-2.6-1.2-2.6-2.7c0-1.5,1.2-2.7,2.6-2.7
			C58.1,230.9,59.3,232.1,59.3,233.6z M56.6,231.7c-1,0-1.8,0.9-1.8,1.9c0,1,0.8,1.9,1.8,1.9s1.8-0.9,1.8-1.9
			C58.4,232.6,57.6,231.7,56.6,231.7z"/>
		<path class="st2" d="M64,231v5.3h-0.8v-2.8l-0.9,2.8h-0.7l-0.9-2.8v2.8h-0.8V231h0.8l1.3,3.9l1.3-3.9H64z"/>
		<path class="st2" d="M67.9,231h0.8v2.9c0,0.7-0.2,1.4-0.6,1.8c-0.4,0.4-0.9,0.7-1.4,0.7c-0.6,0-1.1-0.2-1.4-0.6
			c-0.4-0.4-0.6-1.1-0.6-1.8V231h0.8v2.9c0,0.6,0.1,1,0.4,1.3c0.2,0.2,0.5,0.3,0.8,0.3c0.3,0,0.6-0.1,0.8-0.4
			c0.2-0.3,0.4-0.7,0.4-1.3V231z"/>
		<path class="st2" d="M73.6,231v5.3h-0.8v-2.8l-0.9,2.8h-0.7l-0.9-2.8v2.8h-0.8V231h0.8l1.3,3.9l1.3-3.9H73.6z"/>
		<path class="st2" d="M79.3,231h0.8v5.3h-0.9l-1.9-3.6v3.6h-0.8V231h0.8l1.9,3.7V231z"/>
		<path class="st2" d="M83.1,231l1.8,5.3H84l-0.4-1.2h-1.8l-0.4,1.2h-0.9l1.8-5.3H83.1z M82.7,232.5l-0.6,1.9h1.3L82.7,232.5z"/>
		<path class="st2" d="M87.2,231h2.5v0.8h-0.8v4.5H88v-4.5h-0.8V231z"/>
		<path class="st2" d="M90.1,231h2.8v0.8h-2v1.5h1.8v0.8h-1.8v1.5h2v0.8h-2.8V231z"/>
		<path class="st2" d="M96.5,232.5L96.5,232.5l-0.8,0.1v-0.1c0-0.5-0.3-0.8-0.8-0.8c-0.3,0-0.8,0.1-0.8,0.6c0,0.3,0.4,0.5,0.9,0.9
			c0.3,0.2,0.6,0.4,0.9,0.6c0.3,0.3,0.5,0.7,0.5,1.1c0,0.4-0.2,0.8-0.5,1.1c-0.3,0.3-0.7,0.4-1.1,0.4c-0.9,0-1.6-0.7-1.6-1.7v-0.1
			h0.8v0.1c0,0.5,0.3,0.8,0.8,0.8c0.7,0,0.8-0.6,0.8-0.7c0-0.4-0.4-0.6-1-1c-0.6-0.4-1.4-0.8-1.4-1.6c0-0.9,0.6-1.4,1.6-1.4
			C95.8,230.9,96.5,231.6,96.5,232.5z"/>
		<path class="st2" d="M102.2,233.6c0,1.5-1.2,2.7-2.6,2.7c-1.4,0-2.6-1.2-2.6-2.7c0-1.5,1.2-2.7,2.6-2.7
			C101,230.9,102.2,232.1,102.2,233.6z M99.6,231.7c-1,0-1.8,0.9-1.8,1.9c0,1,0.8,1.9,1.8,1.9s1.8-0.9,1.8-1.9
			C101.3,232.6,100.5,231.7,99.6,231.7z"/>
		<path class="st2" d="M105.8,231h0.8v2.9c0,0.7-0.2,1.4-0.6,1.8c-0.4,0.4-0.9,0.7-1.4,0.7c-0.6,0-1.1-0.2-1.4-0.6
			c-0.4-0.4-0.6-1.1-0.6-1.8V231h0.8v2.9c0,0.6,0.1,1,0.4,1.3c0.2,0.2,0.5,0.3,0.8,0.3c0.3,0,0.6-0.1,0.8-0.4
			c0.2-0.3,0.4-0.7,0.4-1.3V231z"/>
		<path class="st2" d="M109.4,234l1.8,2.3h-1l-1.8-2.3h-0.2v2.3h-0.8V231h1.8c0.4,0,0.9,0.2,1.2,0.5c0.3,0.3,0.4,0.7,0.4,1.1
			c0,0.4-0.1,0.7-0.4,1C110.1,233.7,109.8,233.9,109.4,234z M109.1,231.8h-0.9v1.4h0.9c0.7,0,0.7-0.6,0.7-0.7
			C109.8,232.2,109.5,231.8,109.1,231.8z"/>
		<path class="st2" d="M113.9,231l1.8,5.3h-0.9l-0.4-1.2h-1.8l-0.4,1.2h-0.9l1.8-5.3H113.9z M113.5,232.5l-0.6,1.9h1.3L113.5,232.5z
			"/>
	</g>
</g>
<g>
	<path class="st4" d="M34,275.9l1.5,0.8l-0.1,0.1c-0.9,1.8-2.7,2.9-4.6,2.9c-2.9,0-5.2-2.5-5.2-5.5c0-3,2.4-5.5,5.2-5.5
		c1.9,0,3.6,1.1,4.6,2.8l0.1,0.1l-1.5,0.8l-0.1-0.1c-0.6-1.2-1.8-1.9-3.1-1.9c-2,0-3.5,1.7-3.5,3.8c0,2.1,1.6,3.8,3.5,3.8
		c1.3,0,2.5-0.8,3.1-2L34,275.9z"/>
	<path class="st4" d="M46.6,274.2c0,3-2.3,5.5-5.2,5.5c-2.9,0-5.2-2.5-5.2-5.5c0-3,2.4-5.5,5.2-5.5
		C44.2,268.8,46.6,271.2,46.6,274.2z M41.3,270.4c-2,0-3.5,1.7-3.5,3.8c0,2.1,1.6,3.8,3.5,3.8s3.5-1.7,3.5-3.8
		C44.9,272.1,43.3,270.4,41.3,270.4z"/>
	<path class="st4" d="M51.7,275l3.6,4.6h-2l-3.6-4.5h-0.5v4.5h-1.7v-10.6h3.5c0.9,0,1.7,0.4,2.3,1c0.5,0.6,0.9,1.4,0.9,2.1
		c0,0.8-0.3,1.5-0.8,2C53.2,274.4,52.6,274.9,51.7,275z M51.1,270.6h-1.8v2.7h1.8c1.4,0,1.5-1.1,1.5-1.3
		C52.6,271.3,52,270.6,51.1,270.6z"/>
	<path class="st4" d="M55.5,268.9h5v1.6h-1.6v9.1h-1.7v-9.1h-1.6V268.9z"/>
	<path class="st4" d="M61.2,268.9h5.6v1.5h-4v3h3.7v1.6h-3.7v3h4v1.6h-5.6V268.9z"/>
	<path class="st4" d="M80.3,275.9l1.5,0.8l-0.1,0.1c-0.9,1.8-2.7,2.9-4.6,2.9c-2.9,0-5.2-2.5-5.2-5.5c0-3,2.4-5.5,5.2-5.5
		c1.9,0,3.6,1.1,4.6,2.8l0.1,0.1l-1.5,0.8l-0.1-0.1c-0.6-1.2-1.8-1.9-3.1-1.9c-2,0-3.5,1.7-3.5,3.8c0,2.1,1.6,3.8,3.5,3.8
		c1.3,0,2.5-0.8,3.1-2L80.3,275.9z"/>
	<path class="st4" d="M93,274.2c0,3-2.3,5.5-5.2,5.5c-2.9,0-5.2-2.5-5.2-5.5c0-3,2.4-5.5,5.2-5.5C90.6,268.8,93,271.2,93,274.2z
		 M87.7,270.4c-2,0-3.5,1.7-3.5,3.8c0,2.1,1.6,3.8,3.5,3.8s3.5-1.7,3.5-3.8C91.3,272.1,89.7,270.4,87.7,270.4z"/>
	<path class="st4" d="M102.5,268.9v10.6h-1.7V274l-1.9,5.6h-1.4l-1.9-5.6v5.6H94v-10.6h1.7l2.6,7.8l2.6-7.8H102.5z"/>
	<path class="st4" d="M110.2,268.9h1.7v5.8c0,1.5-0.4,2.7-1.1,3.6c-0.7,0.9-1.7,1.4-2.9,1.4c-1.2,0-2.2-0.4-2.9-1.3
		c-0.7-0.9-1.1-2.1-1.1-3.7v-5.8h1.7v5.8c0,1.1,0.3,2,0.7,2.6c0.4,0.4,0.9,0.7,1.6,0.7c0.6,0,1.2-0.3,1.6-0.7
		c0.5-0.6,0.7-1.5,0.7-2.5V268.9z"/>
	<path class="st4" d="M121.7,268.9v10.6H120V274l-1.9,5.6h-1.4l-1.9-5.6v5.6h-1.7v-10.6h1.7l2.6,7.8l2.6-7.8H121.7z"/>
	<path class="st2" d="M124.8,278.9c0,0.5-0.4,0.9-0.8,0.9c-0.5,0-0.9-0.4-0.9-0.9c0-0.5,0.4-0.8,0.9-0.8
		C124.4,278,124.8,278.4,124.8,278.9z"/>
	<path class="st2" d="M127.8,278.9c0,0.5-0.4,0.9-0.8,0.9c-0.5,0-0.9-0.4-0.9-0.9c0-0.5,0.4-0.8,0.9-0.8
		C127.5,278,127.8,278.4,127.8,278.9z"/>
	<path class="st2" d="M130.9,278.9c0,0.5-0.4,0.9-0.8,0.9c-0.5,0-0.9-0.4-0.9-0.9c0-0.5,0.4-0.8,0.9-0.8
		C130.5,278,130.9,278.4,130.9,278.9z"/>
	<path class="st2" d="M134,278.9c0,0.5-0.4,0.9-0.8,0.9c-0.5,0-0.9-0.4-0.9-0.9c0-0.5,0.4-0.8,0.9-0.8
		C133.6,278,134,278.4,134,278.9z"/>
	<path class="st2" d="M137.1,278.9c0,0.5-0.4,0.9-0.8,0.9c-0.5,0-0.9-0.4-0.9-0.9c0-0.5,0.4-0.8,0.9-0.8
		C136.7,278,137.1,278.4,137.1,278.9z"/>
	<path class="st2" d="M140.2,278.9c0,0.5-0.4,0.9-0.8,0.9c-0.5,0-0.9-0.4-0.9-0.9c0-0.5,0.4-0.8,0.9-0.8
		C139.8,278,140.2,278.4,140.2,278.9z"/>
	<path class="st2" d="M143.3,278.9c0,0.5-0.4,0.9-0.8,0.9c-0.5,0-0.9-0.4-0.9-0.9c0-0.5,0.4-0.8,0.9-0.8
		C142.9,278,143.3,278.4,143.3,278.9z"/>
	<path class="st2" d="M146.4,278.9c0,0.5-0.4,0.9-0.8,0.9c-0.5,0-0.9-0.4-0.9-0.9c0-0.5,0.4-0.8,0.9-0.8
		C146,278,146.4,278.4,146.4,278.9z"/>
	<path class="st2" d="M149.5,278.9c0,0.5-0.4,0.9-0.8,0.9c-0.5,0-0.9-0.4-0.9-0.9c0-0.5,0.4-0.8,0.9-0.8
		C149.1,278,149.5,278.4,149.5,278.9z"/>
	<path class="st3" d="M155,275l3.6,4.6h-2L153,275h-0.5v4.5h-1.7v-10.6h3.5c0.9,0,1.7,0.4,2.3,1c0.5,0.6,0.9,1.4,0.9,2.1
		c0,0.8-0.3,1.5-0.8,2C156.4,274.4,155.9,274.9,155,275z M154.4,270.6h-1.8v2.7h1.8c1.4,0,1.5-1.1,1.5-1.3
		C155.8,271.3,155.3,270.6,154.4,270.6z"/>
	<path class="st3" d="M162.1,280.9v-1.6c-0.9,0-1.9-0.3-2.4-0.7l0.4-1.1c0.6,0.4,1.4,0.7,2.3,0.7c1.1,0,1.9-0.7,1.9-1.6
		c0-0.9-0.6-1.4-1.8-1.9c-1.6-0.6-2.6-1.4-2.6-2.8c0-1.3,0.9-2.3,2.4-2.6v-1.6h1v1.6c1,0,1.6,0.3,2.1,0.6l-0.4,1.1
		c-0.3-0.2-1-0.5-2-0.5c-1.2,0-1.7,0.7-1.7,1.4c0,0.8,0.6,1.2,2,1.8c1.6,0.7,2.5,1.5,2.5,2.9c0,1.3-0.9,2.4-2.5,2.7v1.7H162.1z"/>
	<path class="st3" d="M173.2,271.9c0,0.9-0.4,1.7-1,2.3c0.6,0.6,1,1.4,1,2.3c0,1.7-1.4,3.2-3,3.2c-1.7,0-3-1.4-3-3.2v-0.2h1.7v0.2
		c0,0.8,0.6,1.5,1.4,1.5c0.8,0,1.4-0.7,1.4-1.5c0-0.8-0.6-1.5-1.4-1.5h-1.2v-1.7h1.2c0.8,0,1.4-0.7,1.4-1.5c0-0.8-0.6-1.5-1.4-1.5
		c-0.7,0-1.4,0.7-1.4,1.5v0.2h-1.7v-0.2c0-1.7,1.4-3.2,3-3.2C171.8,268.7,173.2,270.2,173.2,271.9z"/>
	<path class="st3" d="M183.7,274.2c0,3-2.2,5.5-4.9,5.5c-2.7,0-4.9-2.5-4.9-5.5c0-3,2.2-5.5,4.9-5.5
		C181.5,268.8,183.7,271.2,183.7,274.2z M178.8,270.4c-1.8,0-3.2,1.7-3.2,3.8c0,2.1,1.4,3.8,3.2,3.8c1.8,0,3.2-1.7,3.2-3.8
		C182,272.1,180.6,270.4,178.8,270.4z"/>
</g>
<g>
	<g>
		<path class="st2" d="M30.5,286.7l0.7,0.4l0,0.1c-0.5,0.9-1.3,1.4-2.3,1.4c-1.4,0-2.6-1.2-2.6-2.7c0-1.5,1.2-2.7,2.6-2.7
			c1,0,1.8,0.5,2.3,1.4l0,0.1l-0.8,0.4l0-0.1c-0.3-0.6-0.9-1-1.5-1c-1,0-1.8,0.9-1.8,1.9c0,1,0.8,1.9,1.8,1.9
			C29.6,287.7,30.1,287.4,30.5,286.7L30.5,286.7z"/>
		<path class="st2" d="M36.8,285.8c0,1.5-1.2,2.7-2.6,2.7c-1.4,0-2.6-1.2-2.6-2.7c0-1.5,1.2-2.7,2.6-2.7
			C35.6,283.1,36.8,284.3,36.8,285.8z M34.2,283.9c-1,0-1.8,0.9-1.8,1.9c0,1,0.8,1.9,1.8,1.9s1.8-0.9,1.8-1.9
			C36,284.8,35.2,283.9,34.2,283.9z"/>
		<path class="st2" d="M39.4,286.2l1.8,2.3h-1l-1.8-2.3h-0.2v2.3h-0.8v-5.3h1.8c0.4,0,0.9,0.2,1.2,0.5c0.3,0.3,0.4,0.7,0.4,1.1
			c0,0.4-0.1,0.7-0.4,1C40.1,285.9,39.8,286.1,39.4,286.2z M39.1,284h-0.9v1.4h0.9c0.7,0,0.7-0.6,0.7-0.7
			C39.8,284.4,39.5,284,39.1,284z"/>
		<path class="st2" d="M41.3,283.2h2.5v0.8h-0.8v4.5h-0.8V284h-0.8V283.2z"/>
		<path class="st2" d="M44.1,283.2h2.8v0.8h-2v1.5h1.8v0.8h-1.8v1.5h2v0.8h-2.8V283.2z"/>
		<path class="st2" d="M53.7,286.7l0.7,0.4l0,0.1c-0.5,0.9-1.3,1.4-2.3,1.4c-1.4,0-2.6-1.2-2.6-2.7c0-1.5,1.2-2.7,2.6-2.7
			c1,0,1.8,0.5,2.3,1.4l0,0.1l-0.8,0.4l0-0.1c-0.3-0.6-0.9-1-1.5-1c-1,0-1.8,0.9-1.8,1.9c0,1,0.8,1.9,1.8,1.9
			C52.7,287.7,53.3,287.4,53.7,286.7L53.7,286.7z"/>
		<path class="st2" d="M60,285.8c0,1.5-1.2,2.7-2.6,2.7c-1.4,0-2.6-1.2-2.6-2.7c0-1.5,1.2-2.7,2.6-2.7C58.8,283.1,60,284.3,60,285.8
			z M57.4,283.9c-1,0-1.8,0.9-1.8,1.9c0,1,0.8,1.9,1.8,1.9s1.8-0.9,1.8-1.9C59.2,284.8,58.4,283.9,57.4,283.9z"/>
		<path class="st2" d="M64.8,283.2v5.3h-0.8v-2.8l-0.9,2.8h-0.7l-0.9-2.8v2.8h-0.8v-5.3h0.8l1.3,3.9l1.3-3.9H64.8z"/>
		<path class="st2" d="M68.6,283.2h0.8v2.9c0,0.7-0.2,1.4-0.6,1.8c-0.4,0.4-0.9,0.7-1.4,0.7c-0.6,0-1.1-0.2-1.4-0.6
			c-0.4-0.4-0.6-1.1-0.6-1.8v-2.9h0.8v2.9c0,0.6,0.1,1,0.4,1.3c0.2,0.2,0.5,0.3,0.8,0.3c0.3,0,0.6-0.1,0.8-0.4
			c0.2-0.3,0.4-0.7,0.4-1.3V283.2z"/>
		<path class="st2" d="M74.3,283.2v5.3h-0.8v-2.8l-0.9,2.8h-0.7l-0.9-2.8v2.8h-0.8v-5.3h0.8l1.3,3.9l1.3-3.9H74.3z"/>
		<path class="st2" d="M80,283.2h0.8v5.3H80l-1.9-3.6v3.6h-0.8v-5.3h0.8l1.9,3.7V283.2z"/>
		<path class="st2" d="M83.8,283.2l1.8,5.3h-0.9l-0.4-1.2h-1.8l-0.4,1.2h-0.9l1.8-5.3H83.8z M83.5,284.7l-0.6,1.9h1.3L83.5,284.7z"
			/>
		<path class="st2" d="M88,283.2h2.5v0.8h-0.8v4.5h-0.8V284H88V283.2z"/>
		<path class="st2" d="M90.9,283.2h2.8v0.8h-2v1.5h1.8v0.8h-1.8v1.5h2v0.8h-2.8V283.2z"/>
		<path class="st2" d="M97.3,284.7L97.3,284.7l-0.8,0.1v-0.1c0-0.5-0.3-0.8-0.8-0.8c-0.3,0-0.8,0.1-0.8,0.6c0,0.3,0.4,0.5,0.9,0.9
			c0.3,0.2,0.6,0.4,0.9,0.6c0.3,0.3,0.5,0.7,0.5,1.1c0,0.4-0.2,0.8-0.5,1.1c-0.3,0.3-0.7,0.4-1.1,0.4c-0.9,0-1.6-0.7-1.6-1.7v-0.1
			h0.8v0.1c0,0.5,0.3,0.8,0.8,0.8c0.7,0,0.8-0.6,0.8-0.7c0-0.4-0.4-0.6-1-1c-0.6-0.4-1.4-0.8-1.4-1.6c0-0.9,0.6-1.4,1.6-1.4
			C96.6,283.1,97.3,283.8,97.3,284.7z"/>
		<path class="st2" d="M102.9,285.8c0,1.5-1.2,2.7-2.6,2.7c-1.4,0-2.6-1.2-2.6-2.7c0-1.5,1.2-2.7,2.6-2.7
			C101.8,283.1,102.9,284.3,102.9,285.8z M100.3,283.9c-1,0-1.8,0.9-1.8,1.9c0,1,0.8,1.9,1.8,1.9s1.8-0.9,1.8-1.9
			C102.1,284.8,101.3,283.9,100.3,283.9z"/>
		<path class="st2" d="M106.6,283.2h0.8v2.9c0,0.7-0.2,1.4-0.6,1.8c-0.4,0.4-0.9,0.7-1.4,0.7c-0.6,0-1.1-0.2-1.4-0.6
			c-0.4-0.4-0.6-1.1-0.6-1.8v-2.9h0.8v2.9c0,0.6,0.1,1,0.4,1.3c0.2,0.2,0.5,0.3,0.8,0.3c0.3,0,0.6-0.1,0.8-0.4
			c0.2-0.3,0.4-0.7,0.4-1.3V283.2z"/>
		<path class="st2" d="M110.1,286.2l1.8,2.3h-1l-1.8-2.3h-0.2v2.3h-0.8v-5.3h1.8c0.4,0,0.9,0.2,1.2,0.5c0.3,0.3,0.4,0.7,0.4,1.1
			c0,0.4-0.1,0.7-0.4,1C110.9,285.9,110.6,286.1,110.1,286.2z M109.8,284h-0.9v1.4h0.9c0.7,0,0.7-0.6,0.7-0.7
			C110.6,284.4,110.3,284,109.8,284z"/>
		<path class="st2" d="M114.7,283.2l1.8,5.3h-0.9l-0.4-1.2h-1.8l-0.4,1.2h-0.9l1.8-5.3H114.7z M114.3,284.7l-0.6,1.9h1.3
			L114.3,284.7z"/>
	</g>
</g>
<g>
	<path class="st4" d="M33.3,331.7l1.5,0.8l-0.1,0.1c-0.9,1.8-2.7,2.9-4.6,2.9c-2.9,0-5.2-2.5-5.2-5.5c0-3,2.4-5.5,5.2-5.5
		c1.9,0,3.6,1.1,4.6,2.8l0.1,0.1l-1.5,0.8l-0.1-0.1c-0.6-1.2-1.8-1.9-3.1-1.9c-2,0-3.5,1.7-3.5,3.8c0,2.1,1.6,3.8,3.5,3.8
		c1.3,0,2.5-0.8,3.1-2L33.3,331.7z"/>
	<path class="st4" d="M45.9,330c0,3-2.3,5.5-5.2,5.5c-2.9,0-5.2-2.5-5.2-5.5c0-3,2.4-5.5,5.2-5.5C43.5,324.5,45.9,327,45.9,330z
		 M40.6,326.2c-2,0-3.5,1.7-3.5,3.8c0,2.1,1.6,3.8,3.5,3.8s3.5-1.7,3.5-3.8C44.2,327.9,42.6,326.2,40.6,326.2z"/>
	<path class="st4" d="M51,330.7l3.6,4.6h-2l-3.6-4.5h-0.5v4.5h-1.7v-10.6h3.5c0.9,0,1.7,0.4,2.3,1c0.5,0.6,0.9,1.4,0.9,2.1
		c0,0.8-0.3,1.5-0.8,2C52.5,330.2,51.9,330.6,51,330.7z M50.4,326.3h-1.8v2.7h1.8c1.4,0,1.5-1.1,1.5-1.3
		C51.9,327.1,51.3,326.3,50.4,326.3z"/>
	<path class="st4" d="M54.8,324.7h5v1.6h-1.6v9.1h-1.7v-9.1h-1.6V324.7z"/>
	<path class="st4" d="M60.5,324.7h5.6v1.5h-4v3h3.7v1.6h-3.7v3h4v1.6h-5.6V324.7z"/>
	<path class="st4" d="M79.6,331.7l1.5,0.8l-0.1,0.1c-0.9,1.8-2.7,2.9-4.6,2.9c-2.9,0-5.2-2.5-5.2-5.5c0-3,2.4-5.5,5.2-5.5
		c1.9,0,3.6,1.1,4.6,2.8l0.1,0.1l-1.5,0.8l-0.1-0.1c-0.6-1.2-1.8-1.9-3.1-1.9c-2,0-3.5,1.7-3.5,3.8c0,2.1,1.6,3.8,3.5,3.8
		c1.3,0,2.5-0.8,3.1-2L79.6,331.7z"/>
	<path class="st4" d="M92.3,330c0,3-2.3,5.5-5.2,5.5c-2.9,0-5.2-2.5-5.2-5.5c0-3,2.4-5.5,5.2-5.5C89.9,324.5,92.3,327,92.3,330z
		 M87,326.2c-2,0-3.5,1.7-3.5,3.8c0,2.1,1.6,3.8,3.5,3.8s3.5-1.7,3.5-3.8C90.6,327.9,89,326.2,87,326.2z"/>
	<path class="st4" d="M101.8,324.7v10.6h-1.7v-5.6l-1.9,5.6h-1.4l-1.9-5.6v5.6h-1.7v-10.6H95l2.6,7.8l2.6-7.8H101.8z"/>
	<path class="st4" d="M109.5,324.7h1.7v5.8c0,1.5-0.4,2.7-1.1,3.6c-0.7,0.9-1.7,1.4-2.9,1.4c-1.2,0-2.2-0.4-2.9-1.3
		c-0.7-0.9-1.1-2.1-1.1-3.7v-5.8h1.7v5.8c0,1.1,0.3,2,0.7,2.6c0.4,0.4,0.9,0.7,1.6,0.7c0.6,0,1.2-0.3,1.6-0.7
		c0.5-0.6,0.7-1.5,0.7-2.5V324.7z"/>
	<path class="st4" d="M121,324.7v10.6h-1.7v-5.6l-1.9,5.6H116l-1.9-5.6v5.6h-1.7v-10.6h1.7l2.6,7.8l2.6-7.8H121z"/>
	<path class="st2" d="M124.1,334.6c0,0.5-0.4,0.9-0.8,0.9c-0.5,0-0.9-0.4-0.9-0.9c0-0.5,0.4-0.8,0.9-0.8
		C123.7,333.8,124.1,334.2,124.1,334.6z"/>
	<path class="st2" d="M127.1,334.6c0,0.5-0.4,0.9-0.8,0.9c-0.5,0-0.9-0.4-0.9-0.9c0-0.5,0.4-0.8,0.9-0.8
		C126.8,333.8,127.1,334.2,127.1,334.6z"/>
	<path class="st2" d="M130.2,334.6c0,0.5-0.4,0.9-0.8,0.9c-0.5,0-0.9-0.4-0.9-0.9c0-0.5,0.4-0.8,0.9-0.8
		C129.8,333.8,130.2,334.2,130.2,334.6z"/>
	<path class="st2" d="M133.3,334.6c0,0.5-0.4,0.9-0.8,0.9c-0.5,0-0.9-0.4-0.9-0.9c0-0.5,0.4-0.8,0.9-0.8
		C132.9,333.8,133.3,334.2,133.3,334.6z"/>
	<path class="st2" d="M136.4,334.6c0,0.5-0.4,0.9-0.8,0.9c-0.5,0-0.9-0.4-0.9-0.9c0-0.5,0.4-0.8,0.9-0.8
		C136,333.8,136.4,334.2,136.4,334.6z"/>
	<path class="st2" d="M139.5,334.6c0,0.5-0.4,0.9-0.8,0.9c-0.5,0-0.9-0.4-0.9-0.9c0-0.5,0.4-0.8,0.9-0.8
		C139.1,333.8,139.5,334.2,139.5,334.6z"/>
	<path class="st2" d="M142.6,334.6c0,0.5-0.4,0.9-0.8,0.9c-0.5,0-0.9-0.4-0.9-0.9c0-0.5,0.4-0.8,0.9-0.8
		C142.2,333.8,142.6,334.2,142.6,334.6z"/>
	<path class="st2" d="M145.7,334.6c0,0.5-0.4,0.9-0.8,0.9c-0.5,0-0.9-0.4-0.9-0.9c0-0.5,0.4-0.8,0.9-0.8
		C145.3,333.8,145.7,334.2,145.7,334.6z"/>
	<path class="st2" d="M148.8,334.6c0,0.5-0.4,0.9-0.8,0.9c-0.5,0-0.9-0.4-0.9-0.9c0-0.5,0.4-0.8,0.9-0.8
		C148.4,333.8,148.8,334.2,148.8,334.6z"/>
	<path class="st3" d="M154.3,330.7l3.6,4.6h-2l-3.6-4.5h-0.5v4.5h-1.7v-10.6h3.5c0.9,0,1.7,0.4,2.3,1c0.5,0.6,0.9,1.4,0.9,2.1
		c0,0.8-0.3,1.5-0.8,2C155.7,330.2,155.2,330.6,154.3,330.7z M153.7,326.3h-1.8v2.7h1.8c1.4,0,1.5-1.1,1.5-1.3
		C155.1,327.1,154.6,326.3,153.7,326.3z"/>
	<path class="st3" d="M161.4,336.7v-1.6c-0.9,0-1.9-0.3-2.4-0.7l0.4-1.1c0.6,0.4,1.4,0.7,2.3,0.7c1.1,0,1.9-0.7,1.9-1.6
		c0-0.9-0.6-1.4-1.8-1.9c-1.6-0.6-2.6-1.4-2.6-2.8c0-1.3,0.9-2.3,2.4-2.6v-1.6h1v1.6c1,0,1.6,0.3,2.1,0.6l-0.4,1.1
		c-0.3-0.2-1-0.5-2-0.5c-1.2,0-1.7,0.7-1.7,1.4c0,0.8,0.6,1.2,2,1.8c1.6,0.7,2.5,1.5,2.5,2.9c0,1.3-0.9,2.4-2.5,2.7v1.7H161.4z"/>
	<path class="st3" d="M172.5,327.7c0,0.9-0.4,1.7-1,2.3c0.6,0.6,1,1.4,1,2.3c0,1.7-1.4,3.2-3,3.2c-1.7,0-3-1.4-3-3.2v-0.2h1.7v0.2
		c0,0.8,0.6,1.5,1.4,1.5c0.8,0,1.4-0.7,1.4-1.5c0-0.8-0.6-1.5-1.4-1.5h-1.2v-1.7h1.2c0.8,0,1.4-0.7,1.4-1.5c0-0.8-0.6-1.5-1.4-1.5
		c-0.7,0-1.4,0.7-1.4,1.5v0.2h-1.7v-0.2c0-1.7,1.4-3.2,3-3.2C171.1,324.5,172.5,325.9,172.5,327.7z"/>
	<path class="st3" d="M183,330c0,3-2.2,5.5-4.9,5.5c-2.7,0-4.9-2.5-4.9-5.5c0-3,2.2-5.5,4.9-5.5C180.8,324.5,183,327,183,330z
		 M178.1,326.2c-1.8,0-3.2,1.7-3.2,3.8c0,2.1,1.4,3.8,3.2,3.8c1.8,0,3.2-1.7,3.2-3.8C181.4,327.9,179.9,326.2,178.1,326.2z"/>
</g>
<g>
	<g>
		<path class="st2" d="M28.7,342.4l0.7,0.4l0,0.1c-0.5,0.9-1.3,1.4-2.3,1.4c-1.4,0-2.6-1.2-2.6-2.7c0-1.5,1.2-2.7,2.6-2.7
			c1,0,1.8,0.5,2.3,1.4l0,0.1l-0.8,0.4l0-0.1c-0.3-0.6-0.9-1-1.5-1c-1,0-1.8,0.9-1.8,1.9c0,1,0.8,1.9,1.8,1.9
			C27.7,343.5,28.3,343.1,28.7,342.4L28.7,342.4z"/>
		<path class="st2" d="M35,341.6c0,1.5-1.2,2.7-2.6,2.7c-1.4,0-2.6-1.2-2.6-2.7c0-1.5,1.2-2.7,2.6-2.7C33.8,338.8,35,340.1,35,341.6
			z M32.4,339.7c-1,0-1.8,0.9-1.8,1.9c0,1,0.8,1.9,1.8,1.9s1.8-0.9,1.8-1.9C34.1,340.5,33.4,339.7,32.4,339.7z"/>
		<path class="st2" d="M37.6,341.9l1.8,2.3h-1l-1.8-2.3h-0.2v2.3h-0.8v-5.3h1.8c0.4,0,0.9,0.2,1.2,0.5c0.3,0.3,0.4,0.7,0.4,1.1
			c0,0.4-0.1,0.7-0.4,1C38.3,341.7,38,341.9,37.6,341.9z M37.3,339.8h-0.9v1.4h0.9c0.7,0,0.7-0.6,0.7-0.7
			C38,340.1,37.7,339.8,37.3,339.8z"/>
		<path class="st2" d="M39.4,338.9h2.5v0.8h-0.8v4.5h-0.8v-4.5h-0.8V338.9z"/>
		<path class="st2" d="M42.3,338.9h2.8v0.8h-2v1.5H45v0.8h-1.8v1.5h2v0.8h-2.8V338.9z"/>
		<path class="st2" d="M51.9,342.4l0.7,0.4l0,0.1c-0.5,0.9-1.3,1.4-2.3,1.4c-1.4,0-2.6-1.2-2.6-2.7c0-1.5,1.2-2.7,2.6-2.7
			c1,0,1.8,0.5,2.3,1.4l0,0.1l-0.8,0.4l0-0.1c-0.3-0.6-0.9-1-1.5-1c-1,0-1.8,0.9-1.8,1.9c0,1,0.8,1.9,1.8,1.9
			C50.9,343.5,51.5,343.1,51.9,342.4L51.9,342.4z"/>
		<path class="st2" d="M58.2,341.6c0,1.5-1.2,2.7-2.6,2.7c-1.4,0-2.6-1.2-2.6-2.7c0-1.5,1.2-2.7,2.6-2.7
			C57,338.8,58.2,340.1,58.2,341.6z M55.6,339.7c-1,0-1.8,0.9-1.8,1.9c0,1,0.8,1.9,1.8,1.9s1.8-0.9,1.8-1.9
			C57.3,340.5,56.5,339.7,55.6,339.7z"/>
		<path class="st2" d="M63,338.9v5.3h-0.8v-2.8l-0.9,2.8h-0.7l-0.9-2.8v2.8h-0.8v-5.3h0.8l1.3,3.9l1.3-3.9H63z"/>
		<path class="st2" d="M66.8,338.9h0.8v2.9c0,0.7-0.2,1.4-0.6,1.8c-0.4,0.4-0.9,0.7-1.4,0.7c-0.6,0-1.1-0.2-1.4-0.6
			c-0.4-0.4-0.6-1.1-0.6-1.8v-2.9h0.8v2.9c0,0.6,0.1,1,0.4,1.3c0.2,0.2,0.5,0.3,0.8,0.3c0.3,0,0.6-0.1,0.8-0.4
			c0.2-0.3,0.4-0.7,0.4-1.3V338.9z"/>
		<path class="st2" d="M72.5,338.9v5.3h-0.8v-2.8l-0.9,2.8h-0.7l-0.9-2.8v2.8h-0.8v-5.3h0.8l1.3,3.9l1.3-3.9H72.5z"/>
		<path class="st2" d="M78.2,338.9h0.8v5.3h-0.9l-1.9-3.6v3.6h-0.8v-5.3h0.8l1.9,3.7V338.9z"/>
		<path class="st2" d="M82,338.9l1.8,5.3h-0.9l-0.4-1.2h-1.8l-0.4,1.2h-0.9l1.8-5.3H82z M81.6,340.4l-0.6,1.9h1.3L81.6,340.4z"/>
		<path class="st2" d="M86.1,338.9h2.5v0.8h-0.8v4.5H87v-4.5h-0.8V338.9z"/>
		<path class="st2" d="M89,338.9h2.8v0.8h-2v1.5h1.8v0.8h-1.8v1.5h2v0.8H89V338.9z"/>
		<path class="st2" d="M95.5,340.5L95.5,340.5l-0.8,0.1v-0.1c0-0.5-0.3-0.8-0.8-0.8c-0.3,0-0.8,0.1-0.8,0.6c0,0.3,0.4,0.5,0.9,0.9
			c0.3,0.2,0.6,0.4,0.9,0.6c0.3,0.3,0.5,0.7,0.5,1.1c0,0.4-0.2,0.8-0.5,1.1c-0.3,0.3-0.7,0.4-1.1,0.4c-0.9,0-1.6-0.7-1.6-1.7v-0.1
			h0.8v0.1c0,0.5,0.3,0.8,0.8,0.8c0.7,0,0.8-0.6,0.8-0.7c0-0.4-0.4-0.6-1-1c-0.6-0.4-1.4-0.8-1.4-1.6c0-0.9,0.6-1.4,1.6-1.4
			C94.7,338.8,95.5,339.6,95.5,340.5z"/>
		<path class="st2" d="M101.1,341.6c0,1.5-1.2,2.7-2.6,2.7c-1.4,0-2.6-1.2-2.6-2.7c0-1.5,1.2-2.7,2.6-2.7
			C99.9,338.8,101.1,340.1,101.1,341.6z M98.5,339.7c-1,0-1.8,0.9-1.8,1.9c0,1,0.8,1.9,1.8,1.9s1.8-0.9,1.8-1.9
			C100.3,340.5,99.5,339.7,98.5,339.7z"/>
		<path class="st2" d="M104.8,338.9h0.8v2.9c0,0.7-0.2,1.4-0.6,1.8c-0.4,0.4-0.9,0.7-1.4,0.7c-0.6,0-1.1-0.2-1.4-0.6
			c-0.4-0.4-0.6-1.1-0.6-1.8v-2.9h0.8v2.9c0,0.6,0.1,1,0.4,1.3c0.2,0.2,0.5,0.3,0.8,0.3c0.3,0,0.6-0.1,0.8-0.4
			c0.2-0.3,0.4-0.7,0.4-1.3V338.9z"/>
		<path class="st2" d="M108.3,341.9l1.8,2.3h-1l-1.8-2.3h-0.2v2.3h-0.8v-5.3h1.8c0.4,0,0.9,0.2,1.2,0.5c0.3,0.3,0.4,0.7,0.4,1.1
			c0,0.4-0.1,0.7-0.4,1C109.1,341.7,108.8,341.9,108.3,341.9z M108,339.8h-0.9v1.4h0.9c0.7,0,0.7-0.6,0.7-0.7
			C108.8,340.1,108.5,339.8,108,339.8z"/>
		<path class="st2" d="M112.8,338.9l1.8,5.3h-0.9l-0.4-1.2h-1.8l-0.4,1.2h-0.9l1.8-5.3H112.8z M112.5,340.4l-0.6,1.9h1.3
			L112.5,340.4z"/>
	</g>
</g>
</svg>
