<?xml version="1.0" encoding="utf-8"?>
<!-- Generator: Adobe Illustrator 22.0.1, SVG Export Plug-In . SVG Version: 6.00 Build 0)  -->
<svg version="1.2" baseProfile="tiny" id="Camada_1"
	 xmlns="http://www.w3.org/2000/svg" xmlns:xlink="http://www.w3.org/1999/xlink" x="0px" y="0px" viewBox="0 0 270 170"
	 xml:space="preserve">
<g>
	<path fill="#C17B3D" d="M129.5,37.4c0.6,0,1.3,0.2,1.9,0.5c-1.2,0.7-1.8,1.7-1.9,3.1v23.2c0,1.5-0.3,2.8-0.9,4
		c-0.6,1.2-1.3,2.3-2.3,3.3c-0.9,0.9-2,1.7-3.3,2.2c-1.3,0.5-2.6,0.8-4.1,0.8c-1.7,0-3.1-0.2-4.1-0.7s-1.9-1.1-2.5-1.8
		c-0.6-0.7-0.9-1.5-1-2.3c-0.1-0.8,0-1.6,0.3-2.3c0.3-0.7,0.8-1.3,1.5-1.8c0.7-0.5,1.5-0.7,2.5-0.7c1,0,1.9,0.4,2.6,1.1
		c0.7,0.7,1.1,1.6,1.1,2.6c0,0.8-0.2,1.6-0.7,2.2c-0.5,0.7-1.1,1.1-1.9,1.3c0.6,0.2,1.2,0.3,1.7,0.2c0.6-0.1,1.1-0.2,1.6-0.5
		c0.5-0.3,0.9-0.6,1.3-1c0.4-0.4,0.7-0.8,0.9-1.2c0.5-0.9,0.8-1.8,0.8-2.9c0.1-1.1,0.1-2,0.1-2.8V40.9c0-0.6-0.2-1.2-0.6-1.8
		c-0.3-0.5-0.8-1-1.3-1.3c0.6-0.3,1.2-0.5,1.8-0.5v-2.3v-20c0-0.8-0.1-1.4-0.2-1.8c-0.2-0.4-0.3-0.7-0.5-0.9
		c-0.2-0.2-0.3-0.4-0.5-0.6c-0.2-0.2-0.2-0.5-0.2-0.9h3.5c0.3,0,0.6,0.1,0.8,0.3c0.2,0.2,0.3,0.5,0.3,0.8c0-0.3,0.1-0.6,0.3-0.8
		c0.2-0.2,0.5-0.3,0.8-0.3h3.6c0,0.4-0.1,0.7-0.2,0.9c-0.2,0.2-0.3,0.4-0.5,0.6c-0.2,0.2-0.4,0.5-0.5,0.9c-0.2,0.4-0.2,1-0.2,1.8v20
		V37.4z M126.8,39.8v-3.9v-2V32c0-1.2-0.1-2.4-0.1-3.5c0-1.1-0.1-2.2-0.1-3.3c0-0.5,0-1,0-1.4c0-0.5,0-0.9,0-1.3c0-0.4,0-0.7,0-1.1
		c0-0.4,0-0.7,0-1c0-0.3-0.1-0.6-0.1-0.8s0-0.4,0-0.6c0-0.1-0.1-0.2-0.1-0.3v-0.1l0.1,0.5c0,0.2,0,0.4,0,0.6c0,0.2,0,0.5,0,0.8
		c0,0.3-0.1,0.6-0.1,1c0,0.4,0,0.7-0.1,1.1c0,0.4,0,0.8,0,1.3c0,0.5,0,0.9,0,1.4c0,1-0.1,2.1-0.1,3.3c0,1.1,0,2.3,0,3.5
		c0,0.3,0,0.6,0,1c0,0.3,0,0.6,0,1v2v3.9v3.9v1v1c0,0.4,0,0.7,0,1c0,0.3,0,0.6,0,0.9c0,0.6,0,1.2,0,1.8c0,0.6,0,1.2,0.1,1.8
		c0,0.6,0,1.1,0,1.7c0,0.5,0,1,0,1.5c0,0.2,0,0.5,0,0.7c0,0.2,0,0.5,0.1,0.7V57c0,0.4,0.1,0.8,0.1,1.1s0,0.7,0.1,1
		c0,0.3,0,0.5,0,0.7c0,0.2,0,0.4,0,0.5l0.1,0.5v-0.1c0-0.1,0-0.2,0-0.3c0-0.1,0-0.3,0-0.5c0-0.2,0-0.5,0-0.7c0-0.3,0-0.6,0-1
		c0-0.3,0-0.7,0-1.1c0-0.2,0-0.4,0-0.6s0-0.4,0.1-0.6l0.1-1.4c0-0.5,0-1,0-1.5c0-0.5,0-1.1,0-1.7c0-0.6,0-1.2,0-1.8
		c0-0.6,0-1.2,0.1-1.8v-1.9v-1v-1V39.8z"/>
	<path fill="#C17B3D" d="M158.2,10.9c0,0.4-0.1,0.7-0.2,0.9c-0.2,0.2-0.3,0.4-0.5,0.6c-0.2,0.2-0.4,0.5-0.5,0.9
		c-0.2,0.4-0.2,1-0.2,1.8v9.1c-1.6,0-2.8-0.3-3.6-0.9c-0.8-0.6-1.5-1.3-1.9-2.1c-0.5-0.9-0.8-1.9-0.8-3.1V16c0-0.5-0.2-0.9-0.5-1.3
		c-0.4-0.4-0.8-0.5-1.3-0.5h-4.9c-0.5,0-0.9,0.2-1.3,0.5c-0.4,0.4-0.5,0.8-0.5,1.3v18.3c0,0.5,0.2,0.9,0.5,1.3
		c0.4,0.4,0.8,0.6,1.3,0.6h0.5c0.5,0,0.9-0.2,1.2-0.6c0.3-0.4,0.5-0.8,0.5-1.3v-0.1c0-0.7,0.2-1.3,0.5-1.8c0.3-0.5,0.7-0.9,1.2-1.2
		c0.5-0.4,1.3-0.5,2.4-0.5v5.5v0.7v1.7v0.7v5.4c-1,0-1.8-0.2-2.4-0.5c-0.5-0.3-0.9-0.7-1.2-1.2c-0.3-0.5-0.5-1.1-0.5-1.8v-0.1
		c0-0.5-0.2-0.9-0.5-1.3c-0.3-0.4-0.8-0.6-1.2-0.6h-0.5c-0.5,0-0.9,0.2-1.3,0.6c-0.4,0.4-0.5,0.8-0.5,1.3v18.5
		c0,0.8,0.1,1.4,0.2,1.8c0.2,0.4,0.3,0.7,0.5,0.9c0.2,0.2,0.4,0.4,0.5,0.6c0.2,0.2,0.2,0.5,0.2,0.9h-3.5c-0.7,0-1.1-0.4-1.1-1.1
		c0,0.3-0.1,0.6-0.3,0.8c-0.2,0.2-0.5,0.3-0.8,0.3H134c0-0.4,0.1-0.7,0.2-0.9c0.2-0.2,0.3-0.4,0.5-0.6c0.2-0.2,0.4-0.5,0.5-0.9
		c0.2-0.4,0.2-0.9,0.2-1.7V40.9c-0.1-1.4-0.8-2.4-1.9-3.1c0.6-0.3,1.3-0.5,1.9-0.5V15c0-0.8-0.1-1.3-0.2-1.7
		c-0.2-0.4-0.3-0.6-0.5-0.9c-0.2-0.2-0.4-0.4-0.5-0.6c-0.2-0.2-0.2-0.5-0.2-0.9h3.7c0.3,0,0.5,0.1,0.8,0.3c0.2,0.2,0.3,0.5,0.3,0.8
		c0-0.3,0.1-0.6,0.3-0.8c0.2-0.2,0.5-0.3,0.8-0.3h0.7h2.8h5.6h3.6h2.2h0.7H158.2z M139.3,37.4v-3.7c0-0.3,0-0.6,0-0.9
		c0-0.3,0-0.6,0-0.9v-1.8c0-1.1-0.1-2.2-0.1-3.3c0-1.1,0-2.1-0.1-3c0-0.5-0.1-0.9-0.1-1.3c0-0.4,0-0.8-0.1-1.2c0-0.4,0-0.7,0-1
		c0-0.3,0-0.6,0-0.9s0-0.5,0-0.7c0-0.2,0-0.4,0-0.5v-0.5c0,0-0.1,0.1-0.1,0.1v0.3c0,0.1,0,0.3,0,0.5s0,0.4,0,0.7s0,0.6,0,0.9
		c0,0.3,0,0.7,0,1c0,0.4-0.1,0.8-0.1,1.2c0,0.4,0,0.9-0.1,1.3c0,0.9-0.1,1.9-0.1,3c0,1.1,0,2.2-0.1,3.3V32c0,0.3,0,0.6,0,0.9
		s0,0.6-0.1,0.9v3.7v3.7c0,0.1,0,0.3,0,0.4c0,0.2,0,0.3,0,0.4v0.9v1.8c0,0.6,0,1.2,0,1.7s0,1.1,0,1.6c0,0.5,0,1.1,0,1.5
		c0,0.5,0,1,0,1.5c0,0.2,0.1,0.4,0.1,0.6s0,0.4,0,0.6c0,0.2,0,0.4,0,0.6c0,0.2,0,0.4,0,0.6c0,0.4,0,0.7,0,1c0,0.3,0,0.6,0,0.9
		s0,0.5,0,0.7c0,0.2,0,0.4,0,0.5v0.3c0,0,0,0.1,0.1,0.1v-0.5c0-0.1,0-0.3,0-0.5c0-0.2,0-0.4,0-0.7s0-0.6,0-0.9c0-0.3,0-0.7,0-1
		c0-0.2,0.1-0.4,0.1-0.6c0-0.2,0-0.4,0-0.6c0-0.2,0-0.4,0-0.6c0-0.2,0-0.4,0-0.6c0-0.5,0-1,0-1.5c0-0.5,0-1,0-1.5c0-0.5,0-1,0-1.6
		c0-0.5,0-1.1,0-1.7v-1.8c0-0.1,0-0.3,0-0.4c0-0.2,0-0.3,0.1-0.4v-0.9V37.4z"/>
	<path fill="#E9E8EA" d="M45.1,110.3c0,2-0.5,3.9-1.5,5.5c-1,1.6-2.3,2.9-4,3.8c0.8,0.6,1.6,1.4,2.2,2.2s1.3,1.8,1.7,2.8
		s0.9,2,1.1,3.1c0.3,1,0.4,2.1,0.4,3.1v4.4c0,1.5-0.3,2.8-0.9,4c-0.5,1.2-1.3,2.3-2.2,3.3c-0.9,0.9-2.1,1.7-3.3,2.2
		c-1.3,0.6-2.6,0.9-4.1,0.9h-6.3h-0.1c-0.3,0-0.6-0.1-0.8-0.3c-0.2-0.2-0.3-0.5-0.3-0.8c0,0.3-0.1,0.6-0.3,0.8
		c-0.2,0.2-0.5,0.3-0.8,0.3h-3.7c0-0.4,0.1-0.7,0.2-0.9c0.2-0.2,0.3-0.4,0.5-0.6c0.2-0.2,0.4-0.5,0.5-0.9c0.2-0.4,0.2-0.9,0.2-1.7
		v-19c-0.1-1.4-0.8-2.4-1.9-3c0.6-0.4,1.2-0.5,1.9-0.5V96.6c0-0.8-0.1-1.3-0.2-1.7c-0.2-0.4-0.3-0.6-0.5-0.9
		c-0.2-0.2-0.4-0.4-0.5-0.6c-0.2-0.2-0.2-0.5-0.2-0.9h3.7c0.3,0,0.5,0.1,0.8,0.3c0.2,0.2,0.3,0.5,0.3,0.8c0-0.7,0.4-1.1,1.1-1.1h0.1
		h6.3c1.4,0,2.8,0.3,4.1,0.8c1.3,0.5,2.4,1.3,3.3,2.2c0.9,0.9,1.7,2,2.2,3.3s0.8,2.6,0.9,4V110.3z M27.6,119v-3.7c0-0.3,0-0.6,0-0.9
		c0-0.3,0-0.6,0-0.9v-1.8c0-1.2-0.1-2.3-0.1-3.3c0-1,0-2-0.1-2.9c0-0.5-0.1-1-0.1-1.4s0-0.8-0.1-1.2c0-0.4,0-0.7,0-1.1
		c0-0.3,0-0.6,0-0.8c0-0.3,0-0.5,0-0.7c0-0.2,0-0.4,0-0.5v-0.4c0,0-0.1,0.1-0.1,0.1v0.3c0,0.1,0,0.3,0,0.5c0,0.2,0,0.5,0,0.7
		c0,0.2,0,0.5,0,0.8c0,0.3,0,0.7,0,1.1c0,0.4-0.1,0.7-0.1,1.2s0,0.9-0.1,1.4c0,0.9-0.1,1.9-0.1,2.9c0,1,0,2.2-0.1,3.3v1.8
		c0,0.3,0,0.6,0,0.9s0,0.6-0.1,0.9v3.7v3.6c0,0.2,0,0.3,0,0.5c0,0.1,0,0.3,0,0.5v0.9v1.7c0,0.6,0,1.2,0,1.7c0,0.6,0,1.1,0,1.6
		c0,0.5,0,1,0,1.5c0,0.5,0,1,0,1.5c0,0.2,0.1,0.4,0.1,0.6c0,0.2,0,0.4,0,0.6c0,0.2,0,0.4,0,0.6c0,0.2,0,0.4,0,0.5c0,0.4,0,0.7,0,1.1
		c0,0.3,0,0.6,0,0.9c0,0.3,0,0.5,0,0.7c0,0.2,0,0.4,0,0.5v0.3c0,0,0,0.1,0.1,0.1v-0.5c0-0.1,0-0.3,0-0.5c0-0.2,0-0.4,0-0.7
		c0-0.3,0-0.6,0-0.9c0-0.3,0-0.7,0-1.1c0-0.2,0.1-0.4,0.1-0.5c0-0.2,0-0.4,0-0.6c0-0.2,0-0.4,0-0.6c0-0.2,0-0.4,0-0.6
		c0-0.5,0-1,0-1.5c0-0.5,0-1,0-1.5c0-0.5,0-1,0-1.6c0-0.6,0-1.1,0-1.7v-1.7c0-0.4,0-0.7,0.1-0.9v-1V119z M38.8,103.1
		c0-0.6,0-1.3-0.1-2.1c0-0.8-0.2-1.6-0.5-2.4c-0.3-0.8-0.7-1.4-1.2-2c-0.6-0.6-1.4-0.9-2.5-0.9h-2.4c-0.5,0-0.9,0.2-1.3,0.5
		c-0.4,0.4-0.5,0.8-0.5,1.3v18.3c0,0.5,0.2,0.9,0.5,1.3c0.4,0.4,0.8,0.5,1.3,0.5h2.4c1.1,0,1.9-0.3,2.5-0.8s1-1.2,1.2-2
		c0.3-0.8,0.4-1.6,0.5-2.4c0-0.8,0.1-1.6,0.1-2.1V103.1z M38.8,130.7c0-0.6,0-1.4-0.1-2.5s-0.2-2.2-0.5-3.3s-0.7-2-1.2-2.8
		c-0.6-0.8-1.4-1.2-2.5-1.2h-2.4c-0.5,0-0.9,0.2-1.3,0.5c-0.4,0.4-0.5,0.8-0.5,1.3v17.7c0,0.5,0.2,0.9,0.5,1.3
		c0.4,0.3,0.8,0.5,1.3,0.6h2.4c1.1,0,1.9-0.3,2.5-0.8c0.6-0.6,1-1.2,1.2-2c0.3-0.8,0.4-1.6,0.5-2.4s0.1-1.6,0.1-2.2V130.7z
		 M41.9,112.1c0.1-0.3,0.1-0.5,0.1-0.5c0.1-0.2,0.1-0.4,0.1-0.5c0-0.1,0.1-0.2,0.1-0.3s0-0.2,0.1-0.3c0-0.1,0-0.2,0-0.3
		c0-0.1,0-0.2,0-0.4c0-0.1,0.1-0.4,0.1-0.7c0-0.2,0.1-0.5,0.1-0.7c0-0.2,0-0.5,0.1-0.7v-1.5c0-0.5,0-1,0-1.5s0-0.9-0.1-1.4
		c0-0.1-0.1-0.3-0.1-0.4c0-0.1,0-0.2-0.1-0.3c0-0.3,0-0.5-0.1-0.7c0-0.2-0.1-0.4-0.1-0.6c0-0.2-0.1-0.4-0.1-0.5
		c-0.1-0.3-0.1-0.5-0.1-0.5c-0.1-0.2-0.1-0.3-0.1-0.4c-0.1-0.2-0.1-0.3-0.2-0.4c0-0.1,0-0.2-0.1-0.3c0-0.1-0.1-0.3-0.2-0.5l-0.1-0.1
		v0.1c0,0,0,0.1,0,0.1c0,0,0,0,0,0.1c0,0,0.1,0.1,0.1,0.2s0,0.2,0.1,0.3v0.3c0,0.1,0.1,0.2,0.1,0.4c0,0.1,0,0.2,0,0.2
		c0,0.1,0,0.1,0,0.2v0.5c0,0.2,0.1,0.4,0.1,0.5c0,0.2,0,0.4,0,0.6v0.3v0.3c0,0.1,0,0.2,0,0.3c0,0.1,0,0.2,0,0.3v0.7v0.3v0.3v0.7v0.7
		v1.4v0.3v0.4c0,0.1-0.1,0.4-0.1,0.7v0.6v0.3v0.3c0,0.2,0,0.4,0,0.6c0,0.2,0,0.4,0,0.5c0,0.2,0,0.4,0,0.5c0,0.2,0,0.3,0,0.4
		c0,0.2,0,0.4-0.1,0.4v0.2v0.2c0,0-0.1,0-0.1,0.1v0.1c0,0,0,0.1,0,0.1c0,0,0,0.1,0,0.1c0,0,0,0.1-0.1,0.1l0.1-0.1c0,0,0-0.1,0-0.1
		c0,0,0-0.1,0-0.1c0,0,0.1,0,0.1-0.1c0,0,0.1,0,0.1-0.1c0,0,0.1,0,0.1-0.1c0,0,0.1-0.1,0.1-0.2c0.1-0.1,0.1-0.2,0.1-0.3
		C41.8,112.3,41.9,112.2,41.9,112.1z M41.6,131.6v1.4v0.3v0.3c0,0.1-0.1,0.4-0.1,0.7v0.6v0.6c0,0.2,0,0.4,0,0.6c0,0.2,0,0.4,0,0.5
		c0,0.2,0,0.3,0,0.5c0,0.1,0,0.3,0,0.4v0.2c0,0-0.1,0.1-0.1,0.2v0.2v0.1c0,0-0.1,0.1-0.1,0.1v0.1c0,0,0,0.1,0,0.1c0,0,0,0.1,0,0.1
		c0,0,0,0.1-0.1,0.1h0.1l0.1-0.1l0.1-0.1c0,0,0.1-0.1,0.1-0.1c0,0,0.1-0.1,0.1-0.1c0,0,0.1-0.1,0.1-0.1c0,0,0.1-0.1,0.1-0.2
		c0.1-0.1,0.1-0.2,0.1-0.3c0.1-0.2,0.2-0.5,0.3-1c0.1-0.3,0.1-0.5,0.1-0.5c0-0.1,0.1-0.2,0.1-0.3c0-0.1,0-0.2,0.1-0.3
		c0-0.1,0-0.2,0-0.3c0-0.1,0-0.2,0-0.3c0-0.1,0.1-0.3,0.1-0.6c0-0.2,0.1-0.5,0.1-0.7c0-0.2,0-0.5,0.1-0.7v-1.4v-1.4
		c0-0.2,0-0.5,0-0.7c0-0.2-0.1-0.5-0.1-0.7c0-0.3,0-0.5-0.1-0.6c0-0.1,0-0.2,0-0.3c0-0.1,0-0.2,0-0.3c0-0.1-0.1-0.2-0.1-0.3
		s0-0.2-0.1-0.3c0-0.1,0-0.2,0-0.3c0-0.1,0-0.2,0-0.3c-0.1-0.3-0.1-0.4-0.1-0.5c0-0.1-0.1-0.3-0.2-0.5c0-0.1,0-0.2-0.1-0.3
		c0-0.1,0-0.2-0.1-0.3c-0.1-0.2-0.2-0.3-0.2-0.4c0,0-0.1-0.1-0.1-0.1h-0.1l0.1,0.1c0,0,0,0.1,0,0.1c0,0,0,0.1,0,0.1
		c0,0.1,0,0.2,0.1,0.3v0.3c0,0.1,0.1,0.2,0.1,0.3c0,0.2,0,0.4,0.1,0.5v0.5c0,0.2,0.1,0.4,0.1,0.5c0,0.2,0,0.4,0,0.6v0.3v0.3
		c0,0.1,0,0.2,0,0.3c0,0.1,0,0.2,0,0.3v0.7v0.3v0.3V131.6z"/>
	<path fill="#E9E8EA" d="M73.2,142c0.1,0.6,0.3,1,0.5,1.3c0.2,0.3,0.4,0.5,0.6,0.7s0.4,0.4,0.5,0.6c0.2,0.2,0.3,0.5,0.4,0.8h-3.5
		c-0.3,0-0.6-0.2-0.9-0.4c-0.2-0.2-0.4-0.5-0.4-0.8c0.1,0.7-0.2,1.1-0.9,1.2h-3.6c0-0.3,0-0.5,0.1-0.8c0.1-0.3,0.2-0.6,0.3-0.9
		c0.1-0.3,0.2-0.7,0.3-1.1c0.1-0.4,0.1-0.9,0.1-1.4l-1.8-10.2c-0.1-0.5-0.4-0.8-0.8-1.2c-0.4-0.3-0.8-0.5-1.3-0.5h-5
		c-0.5,0-0.9,0.2-1.3,0.5c-0.4,0.3-0.7,0.7-0.9,1.2L54,141.3c-0.1,0.8-0.2,1.4-0.1,1.8c0.1,0.4,0.2,0.7,0.3,0.9
		c0.1,0.2,0.3,0.4,0.4,0.6c0.1,0.2,0.1,0.5,0.1,0.9h-3.6c-0.3,0-0.5-0.1-0.7-0.3c-0.2-0.2-0.3-0.5-0.2-0.8c0,0.3-0.2,0.6-0.4,0.8
		c-0.3,0.2-0.5,0.3-0.9,0.3h-3.5c0-0.4,0.2-0.6,0.3-0.8c0.2-0.2,0.4-0.4,0.6-0.5c0.2-0.2,0.4-0.4,0.6-0.7c0.2-0.3,0.4-0.8,0.6-1.4
		l3.6-20.5c-0.1-0.9-0.6-1.6-1.3-2c0.6-0.3,1.2-0.5,1.7-0.5l3.9-22.3c0.1-0.8,0.2-1.4,0.1-1.8c-0.1-0.4-0.2-0.7-0.3-0.9
		s-0.3-0.4-0.4-0.6c-0.1-0.2-0.2-0.5-0.1-0.9h4.7c0.6,0.1,1,0.5,1,1.1c0-0.3,0.1-0.5,0.3-0.7c0.2-0.2,0.4-0.3,0.7-0.3H66
		c0,0.3,0,0.5-0.1,0.8c-0.1,0.3-0.2,0.6-0.3,0.9c-0.1,0.3-0.2,0.7-0.3,1.1c-0.1,0.4-0.1,0.8,0,1.4l3.9,22.3c0.5,0,1.1,0.2,1.8,0.5
		c-0.7,0.4-1.2,1.1-1.3,2L73.2,142z M58,101.1c0-0.3,0.1-0.5,0.1-0.7c0-0.2,0-0.4,0-0.6c0-0.1,0-0.1,0-0.2c0,0,0-0.1,0-0.1v-0.1
		c0,0-0.1,0.1-0.1,0.1c0,0,0,0.1,0,0.1c0,0,0,0.1,0,0.2c0,0.1-0.1,0.3-0.1,0.5c0,0.2-0.1,0.4-0.2,0.7c-0.1,0.5-0.3,1.4-0.6,2.6
		c-0.3,1.2-0.5,2.6-0.8,4s-0.6,2.8-0.9,4.3c-0.3,1.4-0.5,2.5-0.7,3.3c-0.1,0.6-0.3,1.2-0.4,1.8c-0.1,0.6-0.2,1.2-0.3,1.8
		c0,0.3-0.2,1-0.4,2.1c-0.2,1.1-0.4,2.3-0.6,3.5c-0.2,1.2-0.4,2.3-0.5,3.4c-0.2,1-0.2,1.6-0.2,1.6c-0.1,0.8-0.2,1.5-0.3,2.2
		c-0.1,0.7-0.2,1.4-0.3,2.1c0,0.2,0,0.4,0,0.6c0,0.2-0.1,0.4-0.1,0.6c-0.1,0.4-0.1,0.7-0.2,1.1c0,0.3-0.1,0.6-0.1,0.9
		c0,0.3-0.1,0.5-0.1,0.7c0,0.2,0,0.4,0,0.5c0,0.1-0.1,0.2-0.1,0.3v0.1c0,0,0.1-0.1,0.1-0.1c0-0.1,0-0.2,0.1-0.3
		c0-0.1,0.1-0.3,0.1-0.5c0-0.2,0.1-0.4,0.2-0.7c0-0.1,0.1-0.6,0.3-1.3c0.1-0.7,0.3-1.5,0.5-2.3c0.2-0.8,0.4-1.6,0.5-2.4
		c0.2-0.7,0.3-1.2,0.4-1.4c0-0.2,0.2-0.9,0.4-2c0.2-1.1,0.4-2.2,0.6-3.5c0.2-1.2,0.4-2.3,0.6-3.4c0.2-1,0.3-1.6,0.3-1.7
		c0.1-0.6,0.2-1.2,0.3-1.8c0.1-0.6,0.2-1.2,0.3-1.8L58,101.1z M62.1,126.3c0.5,0,0.9-0.2,1.2-0.5c0.3-0.4,0.4-0.8,0.3-1.3l-0.3-1.4
		c0-0.1,0-0.2-0.1-0.3c-0.1-0.7-0.4-1.3-0.9-1.9c-0.5-0.6-1-1-1.7-1.4c0.6-0.4,1.2-0.5,1.8-0.5c0,0,0.1,0,0.1,0c0,0,0.1,0,0.1,0
		l-2.4-14l-2.4,14c0,0,0.1,0,0.1,0c0,0,0.1,0,0.1,0c0.7,0,1.3,0.2,1.8,0.5c-1.4,0.7-2.2,1.8-2.5,3.3c0,0.1,0,0.2-0.1,0.3l-0.3,1.4
		c-0.1,0.5,0,0.9,0.3,1.3c0.3,0.4,0.7,0.5,1.2,0.5H62.1z M69.3,138.1c0,0.1,0,0.2,0,0.2c0,0,0,0.1,0,0.1v0.1v-0.1c0,0,0-0.1,0-0.1
		C69.3,138.3,69.3,138.2,69.3,138.1c0-0.1,0-0.3,0-0.5c0-0.2-0.1-0.5-0.1-0.7c0-0.2-0.1-0.5-0.1-0.8c0-0.3-0.1-0.7-0.2-1.1
		c0-0.2,0-0.4,0-0.6c0-0.2-0.1-0.4-0.1-0.6c0-0.2-0.1-0.4-0.1-0.6c0-0.2-0.1-0.4-0.1-0.6c-0.1-0.5-0.2-1-0.2-1.5
		c0-0.5-0.1-1-0.2-1.5c-0.1-0.5-0.2-1.1-0.3-1.6c-0.1-0.5-0.2-1.1-0.3-1.7c0-0.2-0.1-0.6-0.2-1.4c-0.1-0.7-0.3-1.5-0.4-2.4
		c-0.1-0.8-0.3-1.6-0.4-2.3c-0.1-0.7-0.2-1.1-0.2-1.2c-0.1-0.6-0.2-1.2-0.3-1.8c-0.1-0.6-0.2-1.2-0.4-1.8c-0.1-0.6-0.2-1.2-0.3-1.8
		c-0.1-0.6-0.2-1.2-0.4-1.8c-0.2-1.2-0.4-2.3-0.6-3.3c-0.2-1-0.4-2-0.6-2.9c-0.2-0.8-0.4-1.5-0.5-2.2c-0.2-0.7-0.3-1.5-0.5-2.2
		c0-0.3-0.1-0.5-0.1-0.7c0-0.2-0.1-0.4-0.1-0.5c0-0.1-0.1-0.2-0.1-0.3c0,0,0-0.1-0.1-0.1v0.1c0,0,0,0.1,0,0.1c0,0,0,0.1,0,0.2
		c0,0.2,0.1,0.4,0.1,0.6c0,0.2,0,0.4,0.1,0.7c0.1,0.7,0.2,1.4,0.3,2.1c0.1,0.7,0.2,1.5,0.3,2.3c0.3,1.9,0.6,4,1,6.3
		c0.1,0.6,0.2,1.2,0.3,1.8c0.1,0.6,0.2,1.2,0.3,1.8c0.1,0.6,0.2,1.2,0.3,1.8c0.1,0.6,0.2,1.2,0.4,1.8c0,0.3,0.1,0.8,0.2,1.5
		c0.1,0.7,0.2,1.3,0.4,2.1c0.1,0.7,0.3,1.4,0.4,2.1c0.1,0.7,0.2,1.2,0.3,1.5c0.1,0.6,0.3,1.2,0.4,1.7c0.1,0.6,0.2,1.1,0.3,1.6
		c0.1,0.5,0.2,1,0.3,1.5c0.1,0.5,0.2,1,0.3,1.4c0,0.2,0.1,0.5,0.1,0.7c0,0.2,0.1,0.5,0.1,0.7c0,0.2,0.1,0.4,0.1,0.6
		c0,0.2,0.1,0.4,0.1,0.6c0.1,0.4,0.2,0.7,0.2,1c0.1,0.3,0.1,0.6,0.2,0.9c0.1,0.3,0.2,0.5,0.2,0.7C69.2,137.8,69.3,138,69.3,138.1z"
		/>
	<path fill="#E9E8EA" d="M103.1,148.3c0.5,0.1,0.9,0.2,1.1,0.5c0.2,0.2,0.4,0.5,0.4,0.7c0.1,0.3,0.1,0.6,0.1,0.9
		c-1.5,0-2.8-0.2-4.1-0.5c-1.3-0.4-2.4-1-3.3-1.8c-0.9-0.8-1.7-1.9-2.3-3.2c-0.6-1.3-0.9-2.9-0.9-4.8v-11.6c0-0.6,0-1.3-0.1-2.2
		c0-0.9-0.2-1.7-0.5-2.4c-0.3-0.8-0.7-1.4-1.2-2c-0.6-0.6-1.4-0.8-2.5-0.8h-2.8c-0.4,0.1-0.8,0.3-1,0.6c-0.3,0.3-0.4,0.7-0.4,1.2
		v18.6c0,0.8,0.1,1.4,0.2,1.8c0.2,0.4,0.3,0.7,0.5,0.9c0.2,0.2,0.4,0.4,0.5,0.6c0.2,0.2,0.2,0.5,0.2,0.9h-3.5
		c-0.7,0-1.1-0.4-1.1-1.1c0,0.3-0.1,0.6-0.3,0.8s-0.5,0.3-0.8,0.3h-3.7c0-0.4,0.1-0.7,0.2-0.9c0.2-0.2,0.3-0.4,0.5-0.6
		c0.2-0.2,0.4-0.5,0.5-0.9c0.2-0.4,0.2-0.9,0.2-1.7v-18.9c-0.1-1.4-0.8-2.4-1.9-3.1c0.6-0.3,1.3-0.5,1.9-0.5V96.5
		c0-0.8-0.1-1.3-0.2-1.7c-0.2-0.4-0.3-0.6-0.5-0.8c-0.2-0.2-0.4-0.4-0.5-0.6c-0.2-0.2-0.2-0.5-0.2-0.9h3.7c0.3,0,0.5,0.1,0.8,0.3
		c0.2,0.2,0.3,0.5,0.3,0.8c0-0.3,0.1-0.6,0.3-0.8c0.2-0.2,0.5-0.3,0.8-0.3h0.1H87h2.8c1.4,0,2.8,0.3,4,0.8c1.3,0.6,2.4,1.3,3.3,2.2
		c0.9,0.9,1.7,2,2.2,3.3c0.5,1.3,0.8,2.6,0.9,4v7.3c0,1.9-0.4,3.6-1.3,5.2c-0.9,1.6-2.1,2.9-3.6,3.8c1.5,0.9,2.7,2.2,3.6,3.8
		c0.9,1.6,1.3,3.4,1.3,5.3v11.4c0,1,0,2,0.1,2.9c0,1,0.1,1.8,0.3,2.6c0.2,0.8,0.4,1.5,0.8,2C101.9,147.8,102.4,148.2,103.1,148.3z
		 M82.9,119v-3.7c0-0.3,0-0.6,0-0.9c0-0.3,0-0.6,0-0.9v-1.8c0-1.1-0.1-2.2-0.1-3.3c0-1.1,0-2.1-0.1-3c0-0.5-0.1-0.9-0.1-1.3
		c0-0.4,0-0.8-0.1-1.2c0-0.4,0-0.7,0-1c0-0.3,0-0.6,0-0.9c0-0.3,0-0.5,0-0.7c0-0.2,0-0.4,0-0.5v-0.5c0,0-0.1,0.1-0.1,0.1v0.3
		c0,0.1,0,0.3,0,0.5c0,0.2,0,0.4,0,0.7c0,0.3,0,0.6,0,0.9c0,0.3,0,0.7,0,1c0,0.4-0.1,0.8-0.1,1.2c0,0.4,0,0.9-0.1,1.3
		c0,0.9-0.1,1.9-0.1,3c0,1.1,0,2.2-0.1,3.3v1.8c0,0.3,0,0.6,0,0.9c0,0.3,0,0.6-0.1,0.9v3.7v3.7c0,0.1,0,0.3,0,0.4c0,0.2,0,0.3,0,0.4
		v0.9v1.8c0,0.6,0,1.2,0,1.7c0,0.5,0,1.1,0,1.6c0,0.5,0,1.1,0,1.5c0,0.5,0,1,0,1.5c0,0.2,0.1,0.4,0.1,0.6c0,0.2,0,0.4,0,0.6
		c0,0.2,0,0.4,0,0.6c0,0.2,0,0.4,0,0.6c0,0.4,0,0.7,0,1c0,0.3,0,0.6,0,0.9c0,0.3,0,0.5,0,0.7c0,0.2,0,0.4,0,0.5v0.3
		c0,0,0,0.1,0.1,0.1v-0.5c0-0.1,0-0.3,0-0.5c0-0.2,0-0.4,0-0.7c0-0.3,0-0.6,0-0.9c0-0.3,0-0.7,0-1c0-0.2,0.1-0.4,0.1-0.6
		c0-0.2,0-0.4,0-0.6c0-0.2,0-0.4,0-0.6c0-0.2,0-0.4,0-0.6c0-0.5,0-1,0-1.5c0-0.5,0-1,0-1.5c0-0.5,0-1,0-1.6c0-0.5,0-1.1,0-1.7v-1.8
		c0-0.1,0-0.3,0-0.4c0-0.2,0-0.3,0.1-0.4v-0.9V119z M94.1,103.2c0-0.6,0-1.3-0.1-2.2c0-0.9-0.2-1.7-0.5-2.4c-0.3-0.8-0.7-1.4-1.2-2
		s-1.4-0.8-2.5-0.8h-2.4c-0.5,0-0.9,0.2-1.3,0.6c-0.4,0.3-0.5,0.8-0.5,1.3v18.2c0,0.5,0.2,0.9,0.5,1.3c0.4,0.4,0.8,0.6,1.3,0.6h2.4
		c1.1,0,1.9-0.3,2.5-0.8s1-1.2,1.2-2s0.4-1.6,0.5-2.4s0.1-1.6,0.1-2.2V103.2z M98.6,145.8L98.6,145.8l-0.1-0.2c0,0,0-0.1,0-0.1
		c0,0,0,0,0-0.1l-0.1-0.1c0,0,0-0.1,0-0.1c0,0,0-0.1,0-0.1c0,0-0.1-0.1-0.1-0.2c-0.1-0.2-0.2-0.6-0.3-1.1c0-0.2-0.1-0.5-0.1-0.7
		c0-0.2,0-0.5,0-0.7c0-0.3-0.1-0.5-0.1-0.8c0-0.3,0-0.6,0-0.9v-2v-2.1c0-0.4,0-0.7,0-1.1c0-0.3,0-0.7,0-1.1c0-0.4,0-0.7,0-1.1
		c0-0.4,0-0.7-0.1-1.1v-1.1c0-0.5,0-0.8-0.1-1c0-0.7-0.1-1.3-0.1-2c0-0.6-0.1-1.2-0.2-1.8c-0.1-0.3-0.2-0.5-0.2-0.8
		c0-0.2-0.1-0.5-0.2-0.7c-0.1-0.2-0.2-0.4-0.2-0.6c0-0.2-0.1-0.3-0.2-0.5c-0.1-0.1-0.2-0.2-0.2-0.3c0-0.1-0.1-0.2-0.1-0.3l-0.1-0.1
		v-0.1v0.1c0,0,0,0.1,0.1,0.1c0.1,0.3,0.2,0.5,0.3,0.7c0,0.2,0.1,0.4,0.1,0.5c0,0.2,0.1,0.4,0.1,0.6c0,0.2,0.1,0.5,0.1,0.7
		c0,0.2,0,0.5,0,0.7c0,0.5,0.1,1.1,0.1,1.7c0,0.6,0,1.3,0,1.9c0,0.5,0,0.8-0.1,1v1.1v2.1v2.2v0.5v0.5c0,0.2,0,0.4,0,0.5
		c0,0.2,0,0.3,0,0.5c0,0.4,0,0.7,0,1c0,0.3,0.1,0.6,0.1,1c0,0.3,0.1,0.6,0.1,0.9c0,0.3,0.1,0.6,0.1,0.9c0.1,0.3,0.1,0.5,0.2,0.8
		c0,0.2,0.1,0.5,0.2,0.7c0.1,0.2,0.2,0.4,0.2,0.6c0.1,0.2,0.1,0.3,0.2,0.5c0.1,0.1,0.2,0.2,0.2,0.3c0.1,0.1,0.1,0.2,0.2,0.3
		C98.5,145.7,98.5,145.7,98.6,145.8L98.6,145.8z M96.9,106.2v1.5v0.3v0.3c0,0.1-0.1,0.4-0.1,0.7v0.7v0.3v0.3c0,0.2,0,0.4,0,0.6
		c0,0.2,0,0.4,0,0.5c0,0.2,0,0.4,0,0.5c0,0.1,0,0.3,0,0.5c0,0.2,0,0.3-0.1,0.4v0.1v0.2c0,0-0.1,0.1-0.1,0.1v0.1c0,0,0,0.1,0,0.1
		c0,0,0,0.1,0,0.1c0,0,0,0.1-0.1,0.1h0.1l0.1-0.1l0.1-0.1c0,0,0.1-0.1,0.1-0.1c0,0,0.1-0.1,0.1-0.1c0,0,0.1-0.1,0.1-0.2
		c0,0,0.1,0,0.1-0.1c0.1-0.2,0.1-0.3,0.1-0.4c0.1-0.2,0.1-0.3,0.1-0.5c0.1-0.2,0.1-0.3,0.1-0.5c0.1-0.3,0.1-0.5,0.1-0.6
		c0-0.1,0.1-0.2,0.1-0.3s0-0.2,0.1-0.3c0-0.1,0-0.2,0-0.3c0-0.1,0-0.2,0-0.3c0-0.1,0.1-0.4,0.1-0.7c0-0.2,0.1-0.5,0.1-0.7
		c0-0.2,0-0.5,0.1-0.7v-1.5c0-0.5,0-1,0-1.4s0-0.9-0.1-1.4c0-0.1-0.1-0.2-0.1-0.3c0-0.1,0-0.3-0.1-0.3c0-0.3,0-0.5-0.1-0.6
		c0-0.2-0.1-0.4-0.1-0.6c0-0.2-0.1-0.4-0.1-0.6c-0.1-0.2-0.1-0.3-0.1-0.5c-0.1-0.3-0.1-0.4-0.1-0.5l-0.2-0.4c0,0,0-0.2-0.1-0.3
		c-0.1-0.2-0.2-0.3-0.2-0.4c0,0-0.1-0.1-0.1-0.1l-0.1-0.1v0.1c0,0,0,0.1,0,0.1c0,0,0,0,0,0.1c0,0.1,0.1,0.2,0.1,0.2s0,0.1,0.1,0.2
		v0.3c0,0.1,0.1,0.2,0.1,0.4c0,0.1,0,0.2,0,0.2c0,0.1,0,0.1,0,0.2v0.5c0,0.2,0.1,0.4,0.1,0.5s0,0.4,0,0.6v0.3v0.3c0,0.1,0,0.2,0,0.3
		c0,0.1,0,0.2,0,0.4v0.7v0.3v0.3v0.7V106.2z"/>
	<path fill="#E9E8EA" d="M126.9,110.3c0,2-0.5,3.9-1.5,5.5c-1,1.6-2.3,2.9-4,3.8c0.8,0.6,1.6,1.4,2.2,2.2s1.3,1.8,1.7,2.8
		s0.9,2,1.1,3.1c0.3,1,0.4,2.1,0.4,3.1v4.4c0,1.5-0.3,2.8-0.9,4c-0.5,1.2-1.3,2.3-2.2,3.3c-0.9,0.9-2.1,1.7-3.3,2.2
		c-1.3,0.6-2.6,0.9-4.1,0.9h-6.3H110c-0.3,0-0.6-0.1-0.8-0.3c-0.2-0.2-0.3-0.5-0.3-0.8c0,0.3-0.1,0.6-0.3,0.8
		c-0.2,0.2-0.5,0.3-0.8,0.3h-3.7c0-0.4,0.1-0.7,0.2-0.9c0.2-0.2,0.3-0.4,0.5-0.6c0.2-0.2,0.4-0.5,0.5-0.9c0.2-0.4,0.2-0.9,0.2-1.7
		v-19c-0.1-1.4-0.8-2.4-1.9-3c0.6-0.4,1.2-0.5,1.9-0.5V96.6c0-0.8-0.1-1.3-0.2-1.7c-0.2-0.4-0.3-0.6-0.5-0.9
		c-0.2-0.2-0.4-0.4-0.5-0.6c-0.2-0.2-0.2-0.5-0.2-0.9h3.7c0.3,0,0.5,0.1,0.8,0.3c0.2,0.2,0.3,0.5,0.3,0.8c0-0.7,0.4-1.1,1.1-1.1h0.1
		h6.3c1.4,0,2.8,0.3,4.1,0.8c1.3,0.5,2.4,1.3,3.3,2.2c0.9,0.9,1.7,2,2.2,3.3s0.8,2.6,0.9,4V110.3z M109.4,119v-3.7
		c0-0.3,0-0.6,0-0.9c0-0.3,0-0.6,0-0.9v-1.8c0-1.2-0.1-2.3-0.1-3.3c0-1,0-2-0.1-2.9c0-0.5-0.1-1-0.1-1.4s0-0.8-0.1-1.2
		c0-0.4,0-0.7,0-1.1c0-0.3,0-0.6,0-0.8c0-0.3,0-0.5,0-0.7c0-0.2,0-0.4,0-0.5v-0.4c0,0-0.1,0.1-0.1,0.1v0.3c0,0.1,0,0.3,0,0.5
		c0,0.2,0,0.5,0,0.7c0,0.2,0,0.5,0,0.8c0,0.3,0,0.7,0,1.1c0,0.4-0.1,0.7-0.1,1.2s0,0.9-0.1,1.4c0,0.9-0.1,1.9-0.1,2.9
		c0,1,0,2.2-0.1,3.3v1.8c0,0.3,0,0.6,0,0.9s0,0.6-0.1,0.9v3.7v3.6c0,0.2,0,0.3,0,0.5c0,0.1,0,0.3,0,0.5v0.9v1.7c0,0.6,0,1.2,0,1.7
		c0,0.6,0,1.1,0,1.6c0,0.5,0,1,0,1.5c0,0.5,0,1,0,1.5c0,0.2,0.1,0.4,0.1,0.6c0,0.2,0,0.4,0,0.6c0,0.2,0,0.4,0,0.6c0,0.2,0,0.4,0,0.5
		c0,0.4,0,0.7,0,1.1c0,0.3,0,0.6,0,0.9c0,0.3,0,0.5,0,0.7c0,0.2,0,0.4,0,0.5v0.3c0,0,0,0.1,0.1,0.1v-0.5c0-0.1,0-0.3,0-0.5
		c0-0.2,0-0.4,0-0.7c0-0.3,0-0.6,0-0.9c0-0.3,0-0.7,0-1.1c0-0.2,0.1-0.4,0.1-0.5c0-0.2,0-0.4,0-0.6c0-0.2,0-0.4,0-0.6
		c0-0.2,0-0.4,0-0.6c0-0.5,0-1,0-1.5c0-0.5,0-1,0-1.5c0-0.5,0-1,0-1.6c0-0.6,0-1.1,0-1.7v-1.7c0-0.4,0-0.7,0.1-0.9v-1V119z
		 M120.5,103.1c0-0.6,0-1.3-0.1-2.1c0-0.8-0.2-1.6-0.5-2.4c-0.3-0.8-0.7-1.4-1.2-2c-0.6-0.6-1.4-0.9-2.5-0.9h-2.4
		c-0.5,0-0.9,0.2-1.3,0.5c-0.4,0.4-0.5,0.8-0.5,1.3v18.3c0,0.5,0.2,0.9,0.5,1.3c0.4,0.4,0.8,0.5,1.3,0.5h2.4c1.1,0,1.9-0.3,2.5-0.8
		s1-1.2,1.2-2c0.3-0.8,0.4-1.6,0.5-2.4c0-0.8,0.1-1.6,0.1-2.1V103.1z M120.5,130.7c0-0.6,0-1.4-0.1-2.5s-0.2-2.2-0.5-3.3
		s-0.7-2-1.2-2.8c-0.6-0.8-1.4-1.2-2.5-1.2h-2.4c-0.5,0-0.9,0.2-1.3,0.5c-0.4,0.4-0.5,0.8-0.5,1.3v17.7c0,0.5,0.2,0.9,0.5,1.3
		c0.4,0.3,0.8,0.5,1.3,0.6h2.4c1.1,0,1.9-0.3,2.5-0.8c0.6-0.6,1-1.2,1.2-2c0.3-0.8,0.4-1.6,0.5-2.4s0.1-1.6,0.1-2.2V130.7z
		 M123.6,112.1c0.1-0.3,0.1-0.5,0.1-0.5c0.1-0.2,0.1-0.4,0.1-0.5c0-0.1,0.1-0.2,0.1-0.3s0-0.2,0.1-0.3c0-0.1,0-0.2,0-0.3
		c0-0.1,0-0.2,0-0.4c0-0.1,0.1-0.4,0.1-0.7c0-0.2,0.1-0.5,0.1-0.7c0-0.2,0-0.5,0.1-0.7v-1.5c0-0.5,0-1,0-1.5s0-0.9-0.1-1.4
		c0-0.1-0.1-0.3-0.1-0.4c0-0.1,0-0.2-0.1-0.3c0-0.3,0-0.5-0.1-0.7c0-0.2-0.1-0.4-0.1-0.6c0-0.2-0.1-0.4-0.1-0.5
		c-0.1-0.3-0.1-0.5-0.1-0.5c-0.1-0.2-0.1-0.3-0.1-0.4c-0.1-0.2-0.1-0.3-0.2-0.4c0-0.1,0-0.2-0.1-0.3c0-0.1-0.1-0.3-0.2-0.5l-0.1-0.1
		v0.1c0,0,0,0.1,0,0.1c0,0,0,0,0,0.1c0,0,0.1,0.1,0.1,0.2s0,0.2,0.1,0.3v0.3c0,0.1,0.1,0.2,0.1,0.4c0,0.1,0,0.2,0,0.2
		c0,0.1,0,0.1,0,0.2v0.5c0,0.2,0.1,0.4,0.1,0.5c0,0.2,0,0.4,0,0.6v0.3v0.3c0,0.1,0,0.2,0,0.3c0,0.1,0,0.2,0,0.3v0.7v0.3v0.3v0.7v0.7
		v1.4v0.3v0.4c0,0.1-0.1,0.4-0.1,0.7v0.6v0.3v0.3c0,0.2,0,0.4,0,0.6c0,0.2,0,0.4,0,0.5c0,0.2,0,0.4,0,0.5c0,0.2,0,0.3,0,0.4
		c0,0.2,0,0.4-0.1,0.4v0.2v0.2c0,0-0.1,0-0.1,0.1v0.1c0,0,0,0.1,0,0.1c0,0,0,0.1,0,0.1c0,0,0,0.1-0.1,0.1l0.1-0.1c0,0,0-0.1,0-0.1
		c0,0,0-0.1,0-0.1c0,0,0.1,0,0.1-0.1c0,0,0.1,0,0.1-0.1c0,0,0.1,0,0.1-0.1c0,0,0.1-0.1,0.1-0.2c0.1-0.1,0.1-0.2,0.1-0.3
		C123.5,112.3,123.6,112.2,123.6,112.1z M123.3,131.6v1.4v0.3v0.3c0,0.1-0.1,0.4-0.1,0.7v0.6v0.6c0,0.2,0,0.4,0,0.6
		c0,0.2,0,0.4,0,0.5c0,0.2,0,0.3,0,0.5c0,0.1,0,0.3,0,0.4v0.2c0,0-0.1,0.1-0.1,0.2v0.2v0.1c0,0-0.1,0.1-0.1,0.1v0.1c0,0,0,0.1,0,0.1
		c0,0,0,0.1,0,0.1c0,0,0,0.1-0.1,0.1h0.1l0.1-0.1l0.1-0.1c0,0,0.1-0.1,0.1-0.1c0,0,0.1-0.1,0.1-0.1c0,0,0.1-0.1,0.1-0.1
		c0,0,0.1-0.1,0.1-0.2c0.1-0.1,0.1-0.2,0.1-0.3c0.1-0.2,0.2-0.5,0.3-1c0.1-0.3,0.1-0.5,0.1-0.5c0-0.1,0.1-0.2,0.1-0.3
		c0-0.1,0-0.2,0.1-0.3c0-0.1,0-0.2,0-0.3c0-0.1,0-0.2,0-0.3c0-0.1,0.1-0.3,0.1-0.6c0-0.2,0.1-0.5,0.1-0.7c0-0.2,0-0.5,0.1-0.7v-1.4
		v-1.4c0-0.2,0-0.5,0-0.7c0-0.2-0.1-0.5-0.1-0.7c0-0.3,0-0.5-0.1-0.6c0-0.1,0-0.2,0-0.3c0-0.1,0-0.2,0-0.3c0-0.1-0.1-0.2-0.1-0.3
		s0-0.2-0.1-0.3c0-0.1,0-0.2,0-0.3c0-0.1,0-0.2,0-0.3c-0.1-0.3-0.1-0.4-0.1-0.5c0-0.1-0.1-0.3-0.2-0.5c0-0.1,0-0.2-0.1-0.3
		c0-0.1,0-0.2-0.1-0.3c-0.1-0.2-0.2-0.3-0.2-0.4c0,0-0.1-0.1-0.1-0.1h-0.1l0.1,0.1c0,0,0,0.1,0,0.1c0,0,0,0.1,0,0.1
		c0,0.1,0,0.2,0.1,0.3v0.3c0,0.1,0.1,0.2,0.1,0.3c0,0.2,0,0.4,0.1,0.5v0.5c0,0.2,0.1,0.4,0.1,0.5c0,0.2,0,0.4,0,0.6v0.3v0.3
		c0,0.1,0,0.2,0,0.3c0,0.1,0,0.2,0,0.3v0.7v0.3v0.3V131.6z"/>
	<path fill="#E9E8EA" d="M152,141.3c0,0.8,0.1,1.4,0.2,1.8c0.2,0.4,0.3,0.7,0.5,0.9c0.2,0.2,0.4,0.4,0.5,0.6
		c0.2,0.2,0.2,0.5,0.2,0.9h-2.8H150h-2.2h-3.6h-8.3h-0.7c-0.7,0-1.1-0.4-1.1-1.1c0,0.3-0.1,0.6-0.3,0.8s-0.5,0.3-0.8,0.3h-3.7
		c0-0.4,0.1-0.7,0.2-0.9c0.2-0.2,0.3-0.4,0.5-0.6c0.2-0.2,0.4-0.5,0.5-0.9c0.2-0.4,0.2-0.9,0.2-1.7v-18.9c-0.1-1.4-0.8-2.4-1.9-3.1
		c0.6-0.3,1.3-0.5,1.9-0.5V96.6c0-0.8-0.1-1.3-0.2-1.7c-0.2-0.4-0.3-0.6-0.5-0.9c-0.2-0.2-0.4-0.4-0.5-0.6c-0.2-0.2-0.2-0.5-0.2-0.9
		h3.7c0.3,0,0.5,0.1,0.8,0.3c0.2,0.2,0.3,0.5,0.3,0.8c0-0.3,0.1-0.6,0.3-0.8c0.2-0.2,0.5-0.3,0.8-0.3h0.7h2.8h5.6h3.6h2.2h0.7h2.8
		c0,0.4-0.1,0.7-0.2,0.9c-0.2,0.2-0.3,0.4-0.5,0.6c-0.2,0.2-0.4,0.5-0.5,0.9c-0.2,0.4-0.2,1-0.2,1.8v9.1c-1.6,0-2.8-0.3-3.6-0.9
		c-0.8-0.6-1.5-1.3-1.9-2.1c-0.5-0.9-0.8-1.9-0.8-3.1v-2.2c0-0.5-0.2-0.9-0.5-1.3c-0.4-0.4-0.8-0.5-1.3-0.5H139
		c-0.5,0-0.9,0.2-1.3,0.5c-0.4,0.4-0.5,0.8-0.5,1.3v18.3c0,0.5,0.2,0.9,0.5,1.3c0.4,0.4,0.8,0.6,1.3,0.6h0.5c0.5,0,0.9-0.2,1.2-0.6
		c0.3-0.4,0.5-0.8,0.5-1.3v-0.1c0-0.7,0.2-1.3,0.5-1.8c0.3-0.5,0.7-0.9,1.2-1.2c0.5-0.4,1.3-0.5,2.4-0.5v5.5v0.7v1.7v0.7v5.4
		c-1,0-1.8-0.2-2.4-0.5c-0.5-0.3-0.9-0.7-1.2-1.2c-0.3-0.5-0.5-1.1-0.5-1.8v-0.1c0-0.5-0.2-0.9-0.5-1.3c-0.3-0.4-0.8-0.6-1.2-0.6
		H139c-0.5,0-0.9,0.2-1.3,0.6c-0.4,0.4-0.5,0.8-0.5,1.3v17.6c0,0.5,0.2,0.9,0.5,1.3c0.4,0.4,0.8,0.5,1.3,0.5h4.9
		c0.5,0,0.9-0.2,1.3-0.5c0.4-0.4,0.5-0.8,0.5-1.3v-2.1c0-1.1,0.3-2.1,0.8-3c0.4-0.8,1-1.5,1.9-2.1c0.8-0.6,2.1-1,3.6-1V141.3z
		 M134.5,119v-3.7c0-0.3,0-0.6,0-0.9c0-0.3,0-0.6,0-0.9v-1.8c0-1.1-0.1-2.2-0.1-3.3c0-1.1,0-2.1-0.1-3c0-0.5-0.1-0.9-0.1-1.3
		c0-0.4,0-0.8-0.1-1.2c0-0.4,0-0.7,0-1c0-0.3,0-0.6,0-0.9c0-0.3,0-0.5,0-0.7c0-0.2,0-0.4,0-0.5v-0.5c0,0-0.1,0.1-0.1,0.1v0.3
		c0,0.1,0,0.3,0,0.5c0,0.2,0,0.4,0,0.7c0,0.3,0,0.6,0,0.9c0,0.3,0,0.7,0,1c0,0.4-0.1,0.8-0.1,1.2c0,0.4,0,0.9-0.1,1.3
		c0,0.9-0.1,1.9-0.1,3c0,1.1,0,2.2-0.1,3.3v1.8c0,0.3,0,0.6,0,0.9c0,0.3,0,0.6-0.1,0.9v3.7v3.7c0,0.1,0,0.3,0,0.4c0,0.2,0,0.3,0,0.4
		v0.9v1.8c0,0.6,0,1.2,0,1.7c0,0.5,0,1.1,0,1.6c0,0.5,0,1.1,0,1.5c0,0.5,0,1,0,1.5c0,0.2,0.1,0.4,0.1,0.6c0,0.2,0,0.4,0,0.6
		c0,0.2,0,0.4,0,0.6c0,0.2,0,0.4,0,0.6c0,0.4,0,0.7,0,1c0,0.3,0,0.6,0,0.9c0,0.3,0,0.5,0,0.7c0,0.2,0,0.4,0,0.5v0.3
		c0,0,0,0.1,0.1,0.1v-0.5c0-0.1,0-0.3,0-0.5c0-0.2,0-0.4,0-0.7c0-0.3,0-0.6,0-0.9c0-0.3,0-0.7,0-1c0-0.2,0.1-0.4,0.1-0.6
		c0-0.2,0-0.4,0-0.6c0-0.2,0-0.4,0-0.6c0-0.2,0-0.4,0-0.6c0-0.5,0-1,0-1.5c0-0.5,0-1,0-1.5c0-0.5,0-1,0-1.6c0-0.5,0-1.1,0-1.7v-1.8
		c0-0.1,0-0.3,0-0.4c0-0.2,0-0.3,0.1-0.4v-0.9V119z"/>
	<path fill="#E9E8EA" d="M184.2,142c0.1,0.6,0.3,1,0.5,1.3c0.2,0.3,0.4,0.5,0.6,0.7c0.2,0.2,0.4,0.4,0.5,0.6
		c0.2,0.2,0.3,0.5,0.4,0.8h-3.5c-0.3,0-0.6-0.2-0.9-0.4s-0.4-0.5-0.4-0.8c0.1,0.7-0.2,1.1-0.9,1.2h-3.6c0-0.3,0-0.5,0.1-0.8
		c0.1-0.3,0.2-0.6,0.3-0.9c0.1-0.3,0.2-0.7,0.3-1.1c0.1-0.4,0.1-0.9,0.1-1.4l-1.8-10.2c-0.1-0.5-0.4-0.8-0.8-1.2
		c-0.4-0.3-0.8-0.5-1.3-0.5h-5c-0.5,0-0.9,0.2-1.3,0.5c-0.4,0.3-0.7,0.7-0.9,1.2l-1.7,10.2c-0.1,0.8-0.2,1.4-0.1,1.8
		c0.1,0.4,0.2,0.7,0.3,0.9c0.1,0.2,0.3,0.4,0.4,0.6c0.1,0.2,0.1,0.5,0.1,0.9h-3.6c-0.3,0-0.5-0.1-0.7-0.3c-0.2-0.2-0.3-0.5-0.2-0.8
		c0,0.3-0.2,0.6-0.4,0.8c-0.3,0.2-0.5,0.3-0.8,0.3h-3.5c0-0.4,0.2-0.6,0.3-0.8c0.2-0.2,0.4-0.4,0.6-0.5c0.2-0.2,0.4-0.4,0.6-0.7
		c0.2-0.3,0.4-0.8,0.6-1.4l3.6-20.5c-0.1-0.9-0.6-1.6-1.3-2c0.6-0.3,1.2-0.5,1.7-0.5l3.9-22.3c0.1-0.8,0.2-1.4,0.1-1.8
		c-0.1-0.4-0.2-0.7-0.3-0.9s-0.3-0.4-0.4-0.6c-0.1-0.2-0.2-0.5-0.1-0.9h4.7c0.6,0.1,1,0.5,1,1.1c0-0.3,0.1-0.5,0.3-0.7
		c0.2-0.2,0.4-0.3,0.7-0.3h4.6c0,0.3,0,0.5-0.1,0.8c-0.1,0.3-0.2,0.6-0.3,0.9c-0.1,0.3-0.3,0.7-0.3,1.1c-0.1,0.4-0.1,0.8,0,1.4
		l3.9,22.3c0.5,0,1.1,0.2,1.8,0.5c-0.7,0.4-1.2,1.1-1.3,2L184.2,142z M169,101.1c0-0.3,0.1-0.5,0.1-0.7c0-0.2,0-0.4,0-0.6
		c0-0.1,0-0.1,0-0.2c0,0,0-0.1,0-0.1v-0.1c0,0-0.1,0.1-0.1,0.1c0,0,0,0.1,0,0.1c0,0,0,0.1,0,0.2c0,0.1-0.1,0.3-0.1,0.5
		c0,0.2-0.1,0.4-0.2,0.7c-0.1,0.5-0.3,1.4-0.6,2.6c-0.3,1.2-0.5,2.6-0.8,4s-0.6,2.8-0.9,4.3c-0.3,1.4-0.5,2.5-0.7,3.3
		c-0.1,0.6-0.3,1.2-0.4,1.8s-0.2,1.2-0.3,1.8c0,0.3-0.2,1-0.4,2.1c-0.2,1.1-0.4,2.3-0.6,3.5c-0.2,1.2-0.4,2.3-0.5,3.4
		c-0.2,1-0.2,1.6-0.2,1.6c-0.1,0.8-0.2,1.5-0.3,2.2c-0.1,0.7-0.2,1.4-0.3,2.1c0,0.2,0,0.4,0,0.6c0,0.2-0.1,0.4-0.1,0.6
		c-0.1,0.4-0.1,0.7-0.2,1.1c0,0.3-0.1,0.6-0.1,0.9c0,0.3-0.1,0.5-0.1,0.7c0,0.2,0,0.4,0,0.5c0,0.1-0.1,0.2-0.1,0.3v0.1
		c0,0,0.1-0.1,0.1-0.1c0-0.1,0-0.2,0.1-0.3c0-0.1,0.1-0.3,0.1-0.5c0-0.2,0.1-0.4,0.2-0.7c0-0.1,0.1-0.6,0.3-1.3
		c0.1-0.7,0.3-1.5,0.5-2.3c0.2-0.8,0.3-1.6,0.5-2.4c0.2-0.7,0.3-1.2,0.4-1.4c0-0.2,0.2-0.9,0.4-2c0.2-1.1,0.4-2.2,0.6-3.5
		c0.2-1.2,0.4-2.3,0.6-3.4c0.2-1,0.3-1.6,0.3-1.7c0.1-0.6,0.2-1.2,0.3-1.8c0.1-0.6,0.2-1.2,0.3-1.8L169,101.1z M173,126.3
		c0.5,0,0.9-0.2,1.2-0.5c0.3-0.4,0.4-0.8,0.3-1.3l-0.3-1.4c0-0.1,0-0.2-0.1-0.3c-0.1-0.7-0.4-1.3-0.9-1.9c-0.5-0.6-1-1-1.7-1.4
		c0.6-0.4,1.2-0.5,1.8-0.5c0,0,0.1,0,0.1,0c0,0,0.1,0,0.1,0l-2.4-14l-2.4,14c0,0,0.1,0,0.1,0c0,0,0.1,0,0.1,0c0.7,0,1.3,0.2,1.8,0.5
		c-1.4,0.7-2.2,1.8-2.5,3.3c0,0.1,0,0.2-0.1,0.3l-0.3,1.4c-0.1,0.5,0,0.9,0.3,1.3c0.3,0.4,0.7,0.5,1.2,0.5H173z M180.3,138.1
		c0,0.1,0,0.2,0,0.2c0,0,0,0.1,0,0.1v0.1v-0.1c0,0,0-0.1,0-0.1C180.3,138.3,180.3,138.2,180.3,138.1c0-0.1,0-0.3,0-0.5
		c0-0.2-0.1-0.5-0.1-0.7c0-0.2-0.1-0.5-0.1-0.8c0-0.3-0.1-0.7-0.2-1.1c0-0.2,0-0.4,0-0.6c0-0.2-0.1-0.4-0.1-0.6
		c0-0.2-0.1-0.4-0.1-0.6c0-0.2-0.1-0.4-0.1-0.6c-0.1-0.5-0.2-1-0.2-1.5c0-0.5-0.1-1-0.2-1.5c-0.1-0.5-0.2-1.1-0.3-1.6
		s-0.2-1.1-0.3-1.7c0-0.2-0.1-0.6-0.2-1.4s-0.3-1.5-0.4-2.4c-0.1-0.8-0.3-1.6-0.4-2.3c-0.1-0.7-0.2-1.1-0.2-1.2
		c-0.1-0.6-0.2-1.2-0.3-1.8c-0.1-0.6-0.2-1.2-0.4-1.8c-0.1-0.6-0.2-1.2-0.3-1.8c-0.1-0.6-0.2-1.2-0.4-1.8c-0.2-1.2-0.4-2.3-0.6-3.3
		c-0.2-1-0.4-2-0.6-2.9c-0.2-0.8-0.4-1.5-0.5-2.2c-0.2-0.7-0.3-1.5-0.5-2.2c0-0.3-0.1-0.5-0.1-0.7c0-0.2-0.1-0.4-0.1-0.5
		c0-0.1-0.1-0.2-0.1-0.3c0,0,0-0.1-0.1-0.1v0.1c0,0,0,0.1,0,0.1c0,0,0,0.1,0,0.2c0,0.2,0.1,0.4,0.1,0.6c0,0.2,0,0.4,0.1,0.7
		c0.1,0.7,0.2,1.4,0.3,2.1s0.2,1.5,0.3,2.3c0.3,1.9,0.6,4,1,6.3c0.1,0.6,0.2,1.2,0.3,1.8c0.1,0.6,0.2,1.2,0.3,1.8
		c0.1,0.6,0.2,1.2,0.3,1.8c0.1,0.6,0.2,1.2,0.4,1.8c0,0.3,0.1,0.8,0.2,1.5c0.1,0.7,0.2,1.3,0.4,2.1c0.1,0.7,0.3,1.4,0.4,2.1
		s0.2,1.2,0.3,1.5c0.1,0.6,0.3,1.2,0.4,1.7c0.1,0.6,0.2,1.1,0.3,1.6c0.1,0.5,0.2,1,0.3,1.5c0.1,0.5,0.2,1,0.3,1.4
		c0,0.2,0.1,0.5,0.1,0.7c0,0.2,0.1,0.5,0.1,0.7c0,0.2,0.1,0.4,0.1,0.6c0,0.2,0.1,0.4,0.1,0.6c0.1,0.4,0.2,0.7,0.2,1
		c0.1,0.3,0.1,0.6,0.2,0.9c0.1,0.3,0.2,0.5,0.2,0.7C180.2,137.8,180.3,138,180.3,138.1z"/>
	<path fill="#E9E8EA" d="M214,148.3c0.5,0.1,0.8,0.2,1.1,0.5c0.2,0.2,0.4,0.5,0.4,0.7c0.1,0.3,0.1,0.6,0.1,0.9
		c-1.5,0-2.8-0.2-4.1-0.5c-1.3-0.4-2.4-1-3.3-1.8c-0.9-0.8-1.7-1.9-2.3-3.2c-0.6-1.3-0.9-2.9-0.9-4.8v-11.6c0-0.6,0-1.3-0.1-2.2
		c0-0.9-0.2-1.7-0.5-2.4c-0.3-0.8-0.7-1.4-1.2-2c-0.6-0.6-1.4-0.8-2.5-0.8H198c-0.4,0.1-0.8,0.3-1,0.6c-0.3,0.3-0.4,0.7-0.4,1.2
		v18.6c0,0.8,0.1,1.4,0.2,1.8c0.2,0.4,0.3,0.7,0.5,0.9c0.2,0.2,0.4,0.4,0.5,0.6c0.2,0.2,0.2,0.5,0.2,0.9h-3.5
		c-0.7,0-1.1-0.4-1.1-1.1c0,0.3-0.1,0.6-0.3,0.8s-0.5,0.3-0.8,0.3h-3.7c0-0.4,0.1-0.7,0.2-0.9c0.2-0.2,0.3-0.4,0.5-0.6
		c0.2-0.2,0.4-0.5,0.5-0.9c0.2-0.4,0.2-0.9,0.2-1.7v-18.9c-0.1-1.4-0.8-2.4-1.9-3.1c0.6-0.3,1.3-0.5,1.9-0.5V96.5
		c0-0.8-0.1-1.3-0.2-1.7c-0.2-0.4-0.3-0.6-0.5-0.8c-0.2-0.2-0.4-0.4-0.5-0.6c-0.2-0.2-0.2-0.5-0.2-0.9h3.7c0.3,0,0.5,0.1,0.8,0.3
		c0.2,0.2,0.3,0.5,0.3,0.8c0-0.3,0.1-0.6,0.3-0.8c0.2-0.2,0.5-0.3,0.8-0.3h0.1h3.4h2.8c1.4,0,2.8,0.3,4,0.8c1.3,0.6,2.4,1.3,3.3,2.2
		c0.9,0.9,1.7,2,2.2,3.3c0.5,1.3,0.8,2.6,0.9,4v7.3c0,1.9-0.4,3.6-1.3,5.2c-0.9,1.6-2.1,2.9-3.6,3.8c1.5,0.9,2.7,2.2,3.6,3.8
		c0.9,1.6,1.3,3.4,1.3,5.3v11.4c0,1,0,2,0.1,2.9c0,1,0.1,1.8,0.3,2.6c0.2,0.8,0.4,1.5,0.8,2C212.8,147.8,213.4,148.2,214,148.3z
		 M193.9,119v-3.7c0-0.3,0-0.6,0-0.9c0-0.3,0-0.6,0-0.9v-1.8c0-1.1-0.1-2.2-0.1-3.3c0-1.1,0-2.1-0.1-3c0-0.5-0.1-0.9-0.1-1.3
		c0-0.4,0-0.8-0.1-1.2c0-0.4,0-0.7,0-1s0-0.6,0-0.9c0-0.3,0-0.5,0-0.7c0-0.2,0-0.4,0-0.5v-0.5c0,0-0.1,0.1-0.1,0.1v0.3
		c0,0.1,0,0.3,0,0.5c0,0.2,0,0.4,0,0.7c0,0.3,0,0.6,0,0.9c0,0.3,0,0.7,0,1c0,0.4-0.1,0.8-0.1,1.2c0,0.4,0,0.9-0.1,1.3
		c0,0.9-0.1,1.9-0.1,3c0,1.1,0,2.2-0.1,3.3v1.8c0,0.3,0,0.6,0,0.9c0,0.3,0,0.6-0.1,0.9v3.7v3.7c0,0.1,0,0.3,0,0.4c0,0.2,0,0.3,0,0.4
		v0.9v1.8c0,0.6,0,1.2,0,1.7c0,0.5,0,1.1,0,1.6c0,0.5,0,1.1,0,1.5c0,0.5,0,1,0,1.5c0,0.2,0.1,0.4,0.1,0.6c0,0.2,0,0.4,0,0.6
		c0,0.2,0,0.4,0,0.6c0,0.2,0,0.4,0,0.6c0,0.4,0,0.7,0,1c0,0.3,0,0.6,0,0.9c0,0.3,0,0.5,0,0.7c0,0.2,0,0.4,0,0.5v0.3
		c0,0,0,0.1,0.1,0.1v-0.5c0-0.1,0-0.3,0-0.5c0-0.2,0-0.4,0-0.7c0-0.3,0-0.6,0-0.9c0-0.3,0-0.7,0-1c0-0.2,0.1-0.4,0.1-0.6
		c0-0.2,0-0.4,0-0.6c0-0.2,0-0.4,0-0.6c0-0.2,0-0.4,0-0.6c0-0.5,0-1,0-1.5c0-0.5,0-1,0-1.5c0-0.5,0-1,0-1.6c0-0.5,0-1.1,0-1.7v-1.8
		c0-0.1,0-0.3,0-0.4c0-0.2,0-0.3,0.1-0.4v-0.9V119z M205.1,103.2c0-0.6,0-1.3-0.1-2.2c0-0.9-0.2-1.7-0.5-2.4c-0.3-0.8-0.7-1.4-1.2-2
		s-1.4-0.8-2.5-0.8h-2.4c-0.5,0-0.9,0.2-1.3,0.6c-0.4,0.3-0.5,0.8-0.5,1.3v18.2c0,0.5,0.2,0.9,0.5,1.3c0.4,0.4,0.8,0.6,1.3,0.6h2.4
		c1.1,0,1.9-0.3,2.5-0.8s1-1.2,1.2-2c0.3-0.8,0.4-1.6,0.5-2.4c0-0.9,0.1-1.6,0.1-2.2V103.2z M209.6,145.8L209.6,145.8l-0.1-0.2
		c0,0,0-0.1,0-0.1c0,0,0,0,0-0.1l-0.1-0.1c0,0,0-0.1,0-0.1c0,0,0-0.1,0-0.1c0,0-0.1-0.1-0.1-0.2c-0.1-0.2-0.2-0.6-0.3-1.1
		c0-0.2-0.1-0.5-0.1-0.7c0-0.2,0-0.5,0-0.7c0-0.3-0.1-0.5-0.1-0.8c0-0.3,0-0.6,0-0.9v-2v-2.1c0-0.4,0-0.7,0-1.1c0-0.3,0-0.7,0-1.1
		c0-0.4,0-0.7,0-1.1c0-0.4,0-0.7-0.1-1.1v-1.1c0-0.5,0-0.8-0.1-1c0-0.7-0.1-1.3-0.1-2s-0.1-1.2-0.2-1.8c-0.1-0.3-0.2-0.5-0.2-0.8
		c0-0.2-0.1-0.5-0.2-0.7c-0.1-0.2-0.2-0.4-0.2-0.6c0-0.2-0.1-0.3-0.2-0.5c-0.1-0.1-0.2-0.2-0.2-0.3c0-0.1-0.1-0.2-0.1-0.3l-0.1-0.1
		v-0.1v0.1c0,0,0,0.1,0.1,0.1c0.1,0.3,0.2,0.5,0.3,0.7c0,0.2,0.1,0.4,0.1,0.5c0,0.2,0.1,0.4,0.1,0.6c0,0.2,0.1,0.5,0.1,0.7
		c0,0.2,0,0.5,0,0.7c0,0.5,0.1,1.1,0.1,1.7c0,0.6,0,1.3,0,1.9c0,0.5,0,0.8-0.1,1v1.1v2.1v2.2v0.5v0.5c0,0.2,0,0.4,0,0.5
		c0,0.2,0,0.3,0,0.5c0,0.4,0,0.7,0,1c0,0.3,0.1,0.6,0.1,1c0,0.3,0.1,0.6,0.1,0.9c0,0.3,0.1,0.6,0.1,0.9c0.1,0.3,0.1,0.5,0.2,0.8
		c0,0.2,0.1,0.5,0.2,0.7c0.1,0.2,0.2,0.4,0.2,0.6c0.1,0.2,0.1,0.3,0.2,0.5c0.1,0.1,0.2,0.2,0.2,0.3c0.1,0.1,0.1,0.2,0.2,0.3
		C209.5,145.7,209.5,145.7,209.6,145.8L209.6,145.8z M207.8,106.2v1.5v0.3v0.3c0,0.1-0.1,0.4-0.1,0.7v0.7v0.3v0.3c0,0.2,0,0.4,0,0.6
		c0,0.2,0,0.4,0,0.5c0,0.2,0,0.4,0,0.5c0,0.1,0,0.3,0,0.5c0,0.2,0,0.3-0.1,0.4v0.1v0.2c0,0-0.1,0.1-0.1,0.1v0.1c0,0,0,0.1,0,0.1
		c0,0,0,0.1,0,0.1c0,0,0,0.1-0.1,0.1h0.1l0.1-0.1l0.1-0.1c0,0,0.1-0.1,0.1-0.1c0,0,0.1-0.1,0.1-0.1c0,0,0.1-0.1,0.1-0.2
		c0,0,0.1,0,0.1-0.1c0.1-0.2,0.1-0.3,0.1-0.4c0.1-0.2,0.1-0.3,0.1-0.5c0.1-0.2,0.1-0.3,0.1-0.5c0.1-0.3,0.1-0.5,0.1-0.6
		c0-0.1,0.1-0.2,0.1-0.3s0-0.2,0.1-0.3c0-0.1,0-0.2,0-0.3c0-0.1,0-0.2,0-0.3c0-0.1,0.1-0.4,0.1-0.7c0-0.2,0.1-0.5,0.1-0.7
		c0-0.2,0-0.5,0.1-0.7v-1.5c0-0.5,0-1,0-1.4s0-0.9-0.1-1.4c0-0.1-0.1-0.2-0.1-0.3c0-0.1,0-0.3-0.1-0.3c0-0.3,0-0.5-0.1-0.6
		c0-0.2-0.1-0.4-0.1-0.6c0-0.2-0.1-0.4-0.1-0.6c-0.1-0.2-0.1-0.3-0.1-0.5c-0.1-0.3-0.1-0.4-0.1-0.5l-0.2-0.4c0,0,0-0.2-0.1-0.3
		c-0.1-0.2-0.2-0.3-0.2-0.4c0,0-0.1-0.1-0.1-0.1l-0.1-0.1v0.1c0,0,0,0.1,0,0.1c0,0,0,0,0,0.1c0,0.1,0.1,0.2,0.1,0.2s0,0.1,0.1,0.2
		v0.3c0,0.1,0.1,0.2,0.1,0.4c0,0.1,0,0.2,0,0.2c0,0.1,0,0.1,0,0.2v0.5c0,0.2,0.1,0.4,0.1,0.5s0,0.4,0,0.6v0.3v0.3c0,0.1,0,0.2,0,0.3
		c0,0.1,0,0.2,0,0.4v0.7v0.3v0.3v0.7V106.2z"/>
	<path fill="#E9E8EA" d="M222.9,141.3c0,0.8,0.1,1.4,0.2,1.8c0.2,0.4,0.3,0.7,0.5,0.9c0.2,0.2,0.4,0.4,0.5,0.6
		c0.2,0.2,0.2,0.5,0.2,0.9h-3.6c-0.7,0-1.1-0.4-1.1-1.1c0,0.3-0.1,0.6-0.3,0.8c-0.2,0.2-0.5,0.3-0.7,0.3h-3.6c0-0.4,0.1-0.7,0.2-0.9
		c0.2-0.2,0.3-0.4,0.5-0.6c0.2-0.2,0.4-0.5,0.5-0.9c0.2-0.4,0.2-0.9,0.2-1.7v-18.9c-0.1-1.4-0.8-2.4-1.9-3.1
		c0.6-0.3,1.3-0.5,1.9-0.5V96.6c0-0.8-0.1-1.3-0.2-1.7c-0.2-0.4-0.3-0.6-0.5-0.9c-0.2-0.2-0.4-0.4-0.5-0.6c-0.2-0.2-0.2-0.5-0.2-0.9
		h3.6c0.3,0,0.5,0.1,0.7,0.3c0.2,0.2,0.3,0.5,0.3,0.8c0-0.3,0.1-0.6,0.3-0.8c0.2-0.2,0.5-0.3,0.8-0.3h3.6c0,0.4-0.1,0.7-0.2,0.9
		c-0.2,0.2-0.3,0.4-0.5,0.6c-0.2,0.2-0.4,0.5-0.5,0.9c-0.2,0.4-0.2,1-0.2,1.8V119c0.6,0,1.3,0.2,1.9,0.5c-1.1,0.6-1.8,1.7-1.9,3.1
		V141.3z M220.2,122.7c0-0.6,0.1-1.2,0.1-1.8c0-0.6,0-1.2,0-1.8s0-1.2,0-1.8c0-0.6,0-1.2-0.1-1.8v-1.8v-1.8c0-1.1-0.1-2.2-0.1-3.3
		c0-1.1,0-2.1,0-3c0-0.5-0.1-0.9-0.1-1.3c0-0.4,0-0.8-0.1-1.2c0-0.4,0-0.7,0-1c0-0.3,0-0.6,0-0.9c0-0.3-0.1-0.5-0.1-0.7
		c0-0.2,0-0.4,0-0.5c0-0.1-0.1-0.2-0.1-0.3v-0.1v0.5c0,0.1,0,0.3,0,0.5c0,0.2,0,0.4,0,0.7c0,0.3-0.1,0.6-0.1,0.9s0,0.7,0,1
		c0,0.4-0.1,0.8-0.1,1.2c0,0.4,0,0.9-0.1,1.3c0,0.9-0.1,1.9-0.1,3c0,1.1,0,2.2,0,3.3c0,0.3,0,0.6,0,0.9c0,0.3,0,0.6-0.1,0.9v1.8v3.7
		v3.7v0.9v0.9c0,0.3,0.1,0.6,0.1,0.9c0,0.3,0,0.6,0,0.9c0,0.6,0,1.2,0,1.7s0,1.1,0.1,1.6c0,0.5,0,1.1,0,1.5c0,0.5,0,1,0,1.5
		c0,0.2,0,0.4,0,0.6c0,0.2,0,0.4,0,0.6v1.2c0,0.4,0.1,0.7,0.1,1c0,0.3,0,0.6,0.1,0.9c0,0.3,0,0.5,0,0.7c0,0.2,0,0.4,0,0.5v0.5v-0.1
		c0-0.1,0-0.2,0.1-0.3c0-0.1,0-0.3,0-0.5s0-0.4,0.1-0.7c0-0.3,0-0.6,0-0.9c0-0.3,0-0.7,0-1c0-0.2,0-0.4,0-0.6c0-0.2,0-0.4,0-0.6
		c0-0.2,0-0.4,0-0.6c0-0.2,0-0.4,0.1-0.6c0-0.5,0-1,0-1.5c0-0.5,0-1,0.1-1.5c0-0.5,0-1,0-1.6c0-0.5,0-1.1,0-1.7v-1.8v-0.9V122.7z"/>
	<path fill="#E9E8EA" d="M254.8,142c0.1,0.6,0.3,1,0.5,1.3c0.2,0.3,0.4,0.5,0.6,0.7c0.2,0.2,0.4,0.4,0.5,0.6
		c0.2,0.2,0.3,0.5,0.4,0.8h-3.5c-0.3,0-0.6-0.2-0.9-0.4s-0.4-0.5-0.4-0.8c0.1,0.7-0.2,1.1-0.9,1.2h-3.6c0-0.3,0-0.5,0.1-0.8
		c0.1-0.3,0.2-0.6,0.3-0.9c0.1-0.3,0.2-0.7,0.3-1.1c0.1-0.4,0.1-0.9,0.1-1.4l-1.8-10.2c-0.1-0.5-0.4-0.8-0.8-1.2
		c-0.4-0.3-0.8-0.5-1.3-0.5h-5c-0.5,0-0.9,0.2-1.3,0.5s-0.7,0.7-0.8,1.2l-1.7,10.2c-0.1,0.8-0.2,1.4-0.1,1.8
		c0.1,0.4,0.2,0.7,0.3,0.9c0.1,0.2,0.3,0.4,0.4,0.6c0.1,0.2,0.1,0.5,0.1,0.9h-3.6c-0.3,0-0.5-0.1-0.7-0.3c-0.2-0.2-0.3-0.5-0.2-0.8
		c0,0.3-0.2,0.6-0.4,0.8c-0.2,0.2-0.5,0.3-0.8,0.3H227c0-0.4,0.2-0.6,0.3-0.8c0.2-0.2,0.4-0.4,0.6-0.5c0.2-0.2,0.4-0.4,0.6-0.7
		s0.4-0.8,0.6-1.4l3.6-20.5c-0.1-0.9-0.6-1.6-1.3-2c0.6-0.3,1.2-0.5,1.7-0.5l3.9-22.3c0.1-0.8,0.2-1.4,0.1-1.8
		c-0.1-0.4-0.2-0.7-0.3-0.9s-0.3-0.4-0.4-0.6c-0.1-0.2-0.2-0.5-0.1-0.9h4.7c0.6,0.1,1,0.5,1,1.1c0-0.3,0.1-0.5,0.3-0.7
		c0.2-0.2,0.4-0.3,0.7-0.3h4.6c0,0.3,0,0.5-0.1,0.8c-0.1,0.3-0.2,0.6-0.3,0.9c-0.1,0.3-0.3,0.7-0.3,1.1c-0.1,0.4-0.1,0.8,0,1.4
		l3.9,22.3c0.5,0,1.1,0.2,1.8,0.5c-0.7,0.4-1.2,1.1-1.3,2L254.8,142z M239.7,101.1c0-0.3,0.1-0.5,0.1-0.7c0-0.2,0-0.4,0-0.6
		c0-0.1,0-0.1,0-0.2c0,0,0-0.1,0-0.1v-0.1c0,0-0.1,0.1-0.1,0.1c0,0,0,0.1,0,0.1c0,0,0,0.1,0,0.2c0,0.1-0.1,0.3-0.1,0.5
		c0,0.2-0.1,0.4-0.2,0.7c-0.1,0.5-0.3,1.4-0.6,2.6c-0.3,1.2-0.5,2.6-0.8,4s-0.6,2.8-0.8,4.3c-0.3,1.4-0.5,2.5-0.7,3.3
		c-0.1,0.6-0.3,1.2-0.4,1.8c-0.1,0.6-0.2,1.2-0.3,1.8c0,0.3-0.2,1-0.4,2.1c-0.2,1.1-0.4,2.3-0.6,3.5c-0.2,1.2-0.4,2.3-0.5,3.4
		c-0.2,1-0.2,1.6-0.2,1.6c-0.1,0.8-0.3,1.5-0.3,2.2c-0.1,0.7-0.2,1.4-0.3,2.1c0,0.2,0,0.4,0,0.6c0,0.2-0.1,0.4-0.1,0.6
		c-0.1,0.4-0.1,0.7-0.2,1.1c0,0.3-0.1,0.6-0.1,0.9c0,0.3-0.1,0.5-0.1,0.7c0,0.2,0,0.4,0,0.5c0,0.1-0.1,0.2-0.1,0.3v0.1
		c0,0,0.1-0.1,0.1-0.1c0-0.1,0-0.2,0.1-0.3c0-0.1,0.1-0.3,0.1-0.5c0-0.2,0.1-0.4,0.2-0.7c0-0.1,0.1-0.6,0.3-1.3
		c0.1-0.7,0.3-1.5,0.5-2.3c0.2-0.8,0.4-1.6,0.5-2.4c0.2-0.7,0.3-1.2,0.4-1.4c0-0.2,0.2-0.9,0.4-2c0.2-1.1,0.4-2.2,0.6-3.5
		c0.2-1.2,0.4-2.3,0.6-3.4c0.2-1,0.3-1.6,0.3-1.7c0.1-0.6,0.2-1.2,0.3-1.8c0.1-0.6,0.2-1.2,0.3-1.8L239.7,101.1z M243.7,126.3
		c0.5,0,0.9-0.2,1.2-0.5c0.3-0.4,0.4-0.8,0.3-1.3l-0.3-1.4c0-0.1,0-0.2-0.1-0.3c-0.1-0.7-0.4-1.3-0.9-1.9c-0.5-0.6-1-1-1.7-1.4
		c0.6-0.4,1.2-0.5,1.8-0.5c0,0,0.1,0,0.1,0c0,0,0.1,0,0.1,0l-2.4-14l-2.4,14c0,0,0.1,0,0.1,0c0,0,0.1,0,0.1,0c0.7,0,1.3,0.2,1.8,0.5
		c-1.4,0.7-2.2,1.8-2.5,3.3c0,0.1,0,0.2-0.1,0.3l-0.3,1.4c-0.1,0.5,0,0.9,0.3,1.3c0.3,0.4,0.7,0.5,1.2,0.5H243.7z M251,138.1
		c0,0.1,0,0.2,0,0.2c0,0,0,0.1,0,0.1v0.1v-0.1c0,0,0-0.1,0-0.1C251,138.3,251,138.2,251,138.1c0-0.1,0-0.3,0-0.5
		c0-0.2-0.1-0.5-0.1-0.7c0-0.2-0.1-0.5-0.1-0.8c0-0.3-0.1-0.7-0.2-1.1c0-0.2,0-0.4,0-0.6c0-0.2-0.1-0.4-0.1-0.6
		c0-0.2-0.1-0.4-0.1-0.6c0-0.2-0.1-0.4-0.1-0.6c-0.1-0.5-0.2-1-0.2-1.5c0-0.5-0.1-1-0.2-1.5c-0.1-0.5-0.2-1.1-0.3-1.6
		s-0.2-1.1-0.3-1.7c0-0.2-0.1-0.6-0.2-1.4s-0.3-1.5-0.4-2.4c-0.1-0.8-0.3-1.6-0.4-2.3c-0.1-0.7-0.2-1.1-0.2-1.2
		c-0.1-0.6-0.2-1.2-0.3-1.8c-0.1-0.6-0.2-1.2-0.4-1.8c-0.1-0.6-0.2-1.2-0.3-1.8c-0.1-0.6-0.2-1.2-0.4-1.8c-0.2-1.2-0.4-2.3-0.6-3.3
		c-0.2-1-0.4-2-0.6-2.9c-0.2-0.8-0.4-1.5-0.5-2.2c-0.2-0.7-0.3-1.5-0.5-2.2c0-0.3-0.1-0.5-0.1-0.7c0-0.2-0.1-0.4-0.1-0.5
		c0-0.1-0.1-0.2-0.1-0.3c0,0,0-0.1-0.1-0.1v0.1c0,0,0,0.1,0,0.1c0,0,0,0.1,0,0.2c0,0.2,0.1,0.4,0.1,0.6c0,0.2,0,0.4,0.1,0.7
		c0.1,0.7,0.2,1.4,0.3,2.1s0.2,1.5,0.3,2.3c0.3,1.9,0.6,4,1,6.3c0.1,0.6,0.2,1.2,0.3,1.8c0.1,0.6,0.2,1.2,0.3,1.8
		c0.1,0.6,0.2,1.2,0.3,1.8c0.1,0.6,0.2,1.2,0.4,1.8c0,0.3,0.1,0.8,0.2,1.5c0.1,0.7,0.2,1.3,0.4,2.1c0.1,0.7,0.3,1.4,0.4,2.1
		s0.2,1.2,0.3,1.5c0.1,0.6,0.3,1.2,0.4,1.7c0.1,0.6,0.2,1.1,0.3,1.6c0.1,0.5,0.2,1,0.3,1.5c0.1,0.5,0.2,1,0.3,1.4
		c0,0.2,0.1,0.5,0.1,0.7c0,0.2,0.1,0.5,0.1,0.7c0,0.2,0.1,0.4,0.1,0.6c0,0.2,0.1,0.4,0.1,0.6c0.1,0.4,0.2,0.7,0.2,1
		c0.1,0.3,0.1,0.6,0.2,0.9c0.1,0.3,0.2,0.5,0.2,0.7C250.9,137.8,250.9,138,251,138.1z"/>
</g>
</svg>
