<svg id="layer_1" data-name="layer 1" xmlns="http://www.w3.org/2000/svg" viewBox="0 0 91.78 185.38"><defs><style>.cls-1{fill:#c17b3d;}.cls-2{fill:#262845;}.cls-3{fill:#0b0e21;}</style></defs><title>Maquina</title><path class="cls-1" d="M104,209.06a1.93,1.93,0,0,0,2.07-1.7,41.27,41.27,0,0,0-1-8.51c.79-.48,1.36-1.13,1.22-1.87a135,135,0,0,0-6.85-30.63,51.85,51.85,0,0,0,5.31-3.51,6,6,0,0,0,2.36-4.76c.28-25.6-21.68-92.53-38-117.14h0c-.73-1.1-1.44-2.13-2.15-3a6.79,6.79,0,0,0-6.16-2.35l-.17-1.61a1.38,1.38,0,0,0-.51-.94l-2.87-2.35a1.84,1.84,0,0,0-1-.43V24.52a.91.91,0,0,0-.4-.7.88.88,0,0,0-.79-.07L28.7,33.25a2,2,0,0,0-.83.62,2.18,2.18,0,0,0-.5,1.14L24.83,59.84a2.71,2.71,0,0,0,1,2.47l1.63,1.24a1.86,1.86,0,0,0,.39.63L31.47,68a1.6,1.6,0,0,0,.57.4l.39.18c.66,2.27,1.37,4.62,2.14,7h-.1a.65.65,0,0,0-.42.26.7.7,0,0,0-.17.6,279.24,279.24,0,0,0,7,31.05,1.1,1.1,0,0,0,1,.78l5.36.07a.94.94,0,0,0,.36-.08,564.68,564.68,0,0,0,30.75,56.33,1.67,1.67,0,0,0,1.2.79l1,.12.35.5-.52.26a2.74,2.74,0,0,0-.93.73,2.85,2.85,0,0,0-.52,2.72c2.3,7.13,5,11.14,8.25,12.27,2,.69,4.28.27,6.73-1.27,2.31,6.9,4.13,13,5.5,18.36.19.55.78.78,1.53.85a39.35,39.35,0,0,1,1.08,7.86C102.14,208.52,103,209.06,104,209.06Zm-19.17-39.3,5.16.36h.23c1,2.82,2,5.51,2.87,8.09a5.76,5.76,0,0,1-5.4,1c-3-1.19-5.34-7.85-6-9.85a.77.77,0,0,1,.38-.89l.62-.33c.37.4.78.79,1.18,1.17a1.57,1.57,0,0,0,1,.45Z" transform="translate(-24.81 -23.69)"/><path class="cls-2" d="M65.86,39.43a5.07,5.07,0,0,0-2.2-.79A4.87,4.87,0,0,0,61.4,39a5.07,5.07,0,0,1,4.26.71,6.5,6.5,0,0,1,1.57,1.57c.44.61.85,1.24,1.25,1.88.84,1.26,1.63,2.56,2.42,3.85.4.64.79,1.29,1.17,1.94s.78,1.32,1.12,2c-.27-.71-.6-1.39-.92-2.09s-.69-1.35-1-2c-.73-1.34-1.51-2.64-2.36-3.93-.42-.63-.83-1.27-1.3-1.89A6.36,6.36,0,0,0,65.86,39.43Z" transform="translate(-24.81 -23.69)"/><path class="cls-2" d="M46.89,44.92a7.74,7.74,0,0,0-2,1.5,7.32,7.32,0,0,0-2,4.46,7.61,7.61,0,0,0,.25,2.47l.19.59.22.57.43,1.13q.85,2.28,1.73,4.53c2.35,6,4.64,12,7,17.9,4.71,11.84,9.63,23.49,14.7,35.08s10.35,23.1,15.89,34.65c1.38,2.9,2.82,5.78,4.23,8.69.71,1.45,1.44,2.89,2.16,4.34.37.73.73,1.46,1.09,2.18l.55,1.09a9.85,9.85,0,0,0,.59,1.11,2.78,2.78,0,0,0,2.27,1.18,3,3,0,0,0,1.26-.31c.38-.16.79-.33,1.13-.51,1.48-.71,2.92-1.5,4.34-2.36.71-.42,1.41-.85,2.1-1.3l1-.69a3.28,3.28,0,0,0,.91-.87,3.1,3.1,0,0,0,.51-1.16,8.66,8.66,0,0,0,.09-1.25c0-.83,0-1.66,0-2.49v2.48a9.88,9.88,0,0,1-.11,1.22,3,3,0,0,1-.51,1.11,6.9,6.9,0,0,1-1.92,1.48c-.7.43-1.41.85-2.12,1.25-1.42.78-2.88,1.57-4.35,2.22l-1.12.48a2.67,2.67,0,0,1-1.11.27,2.35,2.35,0,0,1-1.93-1,10.4,10.4,0,0,1-.54-1.05l-.52-1.09c-.35-.73-.7-1.46-1-2.19-.7-1.45-1.4-2.91-2.08-4.36-1.37-2.91-2.75-5.8-4.09-8.7C78.8,136,73.61,124.5,68.55,112.94s-10-23.17-14.92-35q-3.69-8.85-7.36-17.86L44.45,55.6,44,54.47c-.16-.39-.31-.79-.43-1.14A7.25,7.25,0,0,1,43.23,51,7.08,7.08,0,0,1,45,46.53,7.27,7.27,0,0,1,46.92,45c.36-.19.74-.37,1.11-.53l1.14-.52L48,44.39A11.63,11.63,0,0,1,46.89,44.92Z" transform="translate(-24.81 -23.69)"/><path class="cls-2" d="M33.85,54.5l1.07-5.85a9.12,9.12,0,0,1,2.87-4.82,7.72,7.72,0,0,1,2.35-1.5l2.77-1.11,5.49-2.28c3.67-1.52,7.31-3.1,10.94-4.71q-5.61,2-11.17,4.13l-5.55,2.15L39.84,41.6a8.89,8.89,0,0,0-2.64,1.63,10.48,10.48,0,0,0-1.94,2.36,8.67,8.67,0,0,0-1.13,2.89c-.33,2-.66,3.93-.94,5.89-.58,3.93-1.08,7.85-1.27,11.85.26-2,.54-3.92.88-5.89S33.5,56.45,33.85,54.5Z" transform="translate(-24.81 -23.69)"/><path class="cls-3" d="M104,209.06a1.93,1.93,0,0,0,2.07-1.7,41.27,41.27,0,0,0-1-8.51c.79-.48,1.36-1.13,1.22-1.87a135,135,0,0,0-6.85-30.63,51.85,51.85,0,0,0,5.31-3.51,6,6,0,0,0,2.36-4.76c.28-25.6-21.68-92.53-38-117.14h0c-.73-1.1-1.44-2.13-2.15-3a6.79,6.79,0,0,0-6.16-2.35l-.17-1.61a1.38,1.38,0,0,0-.51-.94l-2.87-2.35a1.84,1.84,0,0,0-1-.43V24.52a.91.91,0,0,0-.4-.7.88.88,0,0,0-.79-.07L28.7,33.25a2,2,0,0,0-.83.62,2.18,2.18,0,0,0-.5,1.14L24.83,59.84a2.71,2.71,0,0,0,1,2.47l1.63,1.24a1.86,1.86,0,0,0,.39.63L31.47,68a1.6,1.6,0,0,0,.57.4l.39.18c.66,2.27,1.37,4.62,2.14,7h-.1a.65.65,0,0,0-.42.26.7.7,0,0,0-.17.6,279.24,279.24,0,0,0,7,31.05,1.1,1.1,0,0,0,1,.78l5.36.07a.94.94,0,0,0,.36-.08,564.68,564.68,0,0,0,30.75,56.33,1.67,1.67,0,0,0,1.2.79l1,.12.35.5-.52.26a2.74,2.74,0,0,0-.93.73,2.85,2.85,0,0,0-.52,2.72c2.3,7.13,5,11.14,8.25,12.27,2,.69,4.28.27,6.73-1.27,2.31,6.9,4.13,13,5.5,18.36.19.55.78.78,1.53.85a39.35,39.35,0,0,1,1.08,7.86C102.14,208.52,103,209.06,104,209.06Zm1.26-1.72a.84.84,0,0,1-.44.69c.17-1.69-.58-8.12-1.22-8.05a3,3,0,0,1-1.71.4,2.21,2.21,0,0,0-.11-.51,10.17,10.17,0,0,0,1.34-.24,9.53,9.53,0,0,0,1.17-.41,40.12,40.12,0,0,1,1,8.1Zm.19-10.26a.79.79,0,0,1-.31.66A95.52,95.52,0,0,0,102,180.46c-1.8-6-3.14-9.61-3.76-11.18a.91.91,0,0,0-1.09-.68,1.3,1.3,0,0,0-.25.1,14,14,0,0,1-4.71,1.83.43.43,0,0,0-.24.54c.78,2.1,4.2,12,5.77,17.45.79,2.86,1.37,5.34,1.72,7.18-2-7.25-4.71-15.7-8.32-25.63a6.13,6.13,0,0,0,1.74-.46,61.65,61.65,0,0,0,5.88-2.9,134.72,134.72,0,0,1,6.71,30.34Zm-17.74-28.7a8.68,8.68,0,0,0,.56.79l-3.37-.26a.89.89,0,0,1-.49-.25l-.38-.37Zm-2.88,1.38,5.16.36h.23c1,2.82,2,5.51,2.87,8.09a5.76,5.76,0,0,1-5.4,1c-3-1.19-5.34-7.85-6-9.85a.77.77,0,0,1,.38-.89l.62-.33c.37.4.78.79,1.18,1.17a1.57,1.57,0,0,0,1,.45ZM106.3,158a5.21,5.21,0,0,1-2.07,4.14,56.88,56.88,0,0,1-11.74,6.71,5.09,5.09,0,0,1-2.44.42l-.6,0c-.61-.31-2.27-3.08-4.63-7.57Q80.8,153.72,77,146c-10.7-22.2-25.61-55.25-34.33-76.53l-.93-6a1.41,1.41,0,0,0-1.56-1.23l-.14,0-.24.06c-3.7-9.43-4-11.54-3.92-12l.12-.53a8.76,8.76,0,0,1,5.29-6,143.36,143.36,0,0,1,18.33-7.3,8,8,0,0,1,3-.19h-.22a7.23,7.23,0,0,0-1.13.12,2.76,2.76,0,0,0-1.06.38s.53-.08,1-.11a8.85,8.85,0,0,1,1,0,6.89,6.89,0,0,1,2.19.53h0A7.26,7.26,0,0,0,63.14,37a6.37,6.37,0,0,0-1.31.08,3,3,0,0,0-1.23.4s.6-.11,1.2-.13a8,8,0,0,1,1.2,0,7,7,0,0,1,1.27.27,4.19,4.19,0,0,1,.69.29,6.31,6.31,0,0,0-2.52-.18,3.26,3.26,0,0,0-1.42.43A8.59,8.59,0,0,1,62.4,38a7.06,7.06,0,0,1,.92,0,1.3,1.3,0,0,1,.42.06,5.75,5.75,0,0,1,1.42.39,6.34,6.34,0,0,1,1.26.79,11.54,11.54,0,0,1,2.07,2.12C84.7,65.85,106.58,132.54,106.3,158ZM39.83,63.91a1.07,1.07,0,0,0-.43-.06,2.76,2.76,0,0,0-.43.07l-.88.17-1.63.32a3.2,3.2,0,0,0-.74.18A18,18,0,0,0,38,64.37l.84-.1.39-.06h.29a.72.72,0,0,1,.46.32.9.9,0,0,1,.13.51l.06.64L40.34,67q.13,1.27.3,2.55c.21,1.57.43,3.14.68,4.71l-5.86,1.15A96.53,96.53,0,0,1,35,64.53a.41.41,0,0,1,.26-.33,25.1,25.1,0,0,1,3.42-.84L40.22,63a.57.57,0,0,1,.46.08.63.63,0,0,1,.26.4l1.57,10.44L42.1,74c-.3-1.5-.58-3-.84-4.51-.14-.79-.27-1.64-.4-2.47l-.18-1.23-.09-.62a3.82,3.82,0,0,0-.12-.66,1,1,0,0,0-.12-.23A1.19,1.19,0,0,0,39.83,63.91Zm3.48,9.88-.16-1,.4,1ZM25.63,59.91,28.17,35.1A1.38,1.38,0,0,1,29,34L55.3,24.46h.06l0,0v5.75h-.06L54.91,27a9,9,0,0,0-.4-1.84,7.75,7.75,0,0,0-.21,1.79l-.09,3.78-.39.15-.45-3.19a7.67,7.67,0,0,0-.44-1.82,7.66,7.66,0,0,0-.16,1.78v3.73l-.39.17-.59-3.23a8.73,8.73,0,0,0-.49-1.8,7.59,7.59,0,0,0-.12,1.78L51.27,32l-.41.16-.67-3.19a7.65,7.65,0,0,0-.55-1.82,7.55,7.55,0,0,0-.07,1.78l.17,3.64-.42.17-.74-3.14A7.89,7.89,0,0,0,48,27.77a7.57,7.57,0,0,0,0,1.78l.26,3.59-.43.18L47,30.17a7.37,7.37,0,0,0-.62-1.76,7.65,7.65,0,0,0,0,1.79l.35,3.54-.44.18-.89-3.14A7.87,7.87,0,0,0,44.78,29a7.66,7.66,0,0,0,0,1.79l.43,3.49-.45.18-1-3.07a8.34,8.34,0,0,0-.71-1.75,7.66,7.66,0,0,0,.1,1.79l.51,3.46-.47.18-1-3.05a8.66,8.66,0,0,0-.78-1.73,7.14,7.14,0,0,0,.14,1.79l.58,3.41-.47.19-1.1-3A8.33,8.33,0,0,0,39.84,31a7.8,7.8,0,0,0,.18,1.8l.66,3.36-.48.19-1.17-3a8.62,8.62,0,0,0-.83-1.7,7.79,7.79,0,0,0,.23,1.8l.74,3.31-.49.2-1.24-3a8.3,8.3,0,0,0-.88-1.7,8.34,8.34,0,0,0,.28,1.8l.79,3.28-.5.2L35.82,34.6a8.05,8.05,0,0,0-.92-1.68,7.74,7.74,0,0,0,.33,1.79L36.1,38l-.49.2-1.38-2.92s-.83-1.72-1-1.66a8,8,0,0,0,.36,1.8l1,3.27-.46.26-1.5-3s-.87-1.72-1-1.66a8,8,0,0,0,.42,1.8l1.14,3.52-.4.36-1.68-3.23A10.08,10.08,0,0,0,30,34.88a9.35,9.35,0,0,0,.52,1.95l1.44,4a8,8,0,0,0-.49.79c-.64-1.63-2.59-6.6-2.67-6.5s-2.73,22.59-3.1,25.55A1.68,1.68,0,0,1,25.63,59.91Zm6.42,7.48-3.61-3.78a1.09,1.09,0,0,1-.28-.93l3.3-18.54a6.69,6.69,0,0,1,4.13-5.07l20-8a1.14,1.14,0,0,1,1.11.18l2.87,2.36a.7.7,0,0,1,.23.41L60,35.57l-.66.15a145,145,0,0,0-18.44,7.33,9.59,9.59,0,0,0-3.85,2.78,9.33,9.33,0,0,0-1.9,3.75,1.76,1.76,0,0,1-.13.5h0v.05a129.36,129.36,0,0,0-2.64,17.51h-.06A.91.91,0,0,1,32.05,67.39ZM42,107.45a.33.33,0,0,1-.29-.22,1.46,1.46,0,0,0-.1-.34.9.9,0,0,0,.59.22l3.66-.09a.51.51,0,0,0,.5-.52s0-.06,0-.08q-2.67-14.53-4.5-29.68a1.29,1.29,0,0,0-1.43-1.13h0l-5,.79a1,1,0,0,0-.61.33l0-.39,8.79-1.72L46.6,96.69c-.62-3.77-1.17-7.54-1.7-11.32l-.75-5.11c-.18-1.25-.36-2.51-.5-3.45l-.17-1.14a3,3,0,0,0-.09-.43,1.77,1.77,0,0,0,0,.46c0,.29.07.7.11,1.2.11,1,.25,2.32.39,3.64l.61,5.29c.26,2.1.52,4.19.79,6.29q-.54-3.37-1-6.76l-.72-5-.49-3.46c-.08-.47-.14-.86-.18-1.14a3.15,3.15,0,0,0-.09-.42,1.69,1.69,0,0,0,0,.45c0,.29.07.71.12,1.21.1,1,.24,2.35.39,3.64l.63,5.29c.91,7.19,1.94,14.37,3.27,21.52Zm37.14,56.69C66.4,143.43,56.32,125,48.38,107.88a.83.83,0,0,0,.48-.91l-4.34-31,1.17,2.78L49.43,107a3.37,3.37,0,0,1-.09,1.48C61,131,72.47,153.22,79.65,163.62a1.36,1.36,0,0,0,.55.46l.52.23.15.32-1.12-.14a.93.93,0,0,1-.66-.37Zm8.37,17a6.48,6.48,0,0,1-2.25-1.39l.09.07c.16.13.33.22.49.33a4.8,4.8,0,0,0,.48.3,8.19,8.19,0,0,0,.91.41,2.51,2.51,0,0,0,.94.24,6,6,0,0,0-.79-.42,8.86,8.86,0,0,1-1.63-1.08,10.09,10.09,0,0,1-1.34-1.43,7.4,7.4,0,0,1-.53-.72,22.52,22.52,0,0,1-2.72-5.71q-.24-.77-.45-1.53c-.07-.25-.14-.51-.19-.78a1.82,1.82,0,0,1-.09-.66,1.32,1.32,0,0,1,.53-1,.41.41,0,0,1,.11-.07l.17-.1.36-.19.43-.24.19.24-.43.23a1.5,1.5,0,0,0-.48.39,1.53,1.53,0,0,0-.28,1.47c.86,2.68,3.24,9.06,6.46,10.34a6.37,6.37,0,0,0,6-.92l.11.34a20.65,20.65,0,0,1-2.35,1.3s-.32.15-.64.28a2.5,2.5,0,0,0-.64.3,1.61,1.61,0,0,0,.69,0c.22,0,.45-.09.67-.15l1-.34a6.08,6.08,0,0,1-4.78.43Z" transform="translate(-24.81 -23.69)"/><path class="cls-2" d="M86.27,154.29l-5.64-11.4c1.21,3.27,2.53,6.4,3.92,9.42l-4.71-9.55c1.57,4.09,3.24,8,5.11,11.74a122.61,122.61,0,0,0,6.28,11.25c-1.57-3.06-3-6-4.45-9,1.57,3,3.23,5.91,5.13,8.86C89.94,161.78,88.13,158,86.27,154.29Z" transform="translate(-24.81 -23.69)"/><path class="cls-2" d="M84.29,154.5a129.86,129.86,0,0,0,6.28,11.38L79.1,142.69C80.69,146.8,82.4,150.69,84.29,154.5Z" transform="translate(-24.81 -23.69)"/><path class="cls-2" d="M83.61,154.48c1.89,3.85,3.93,7.64,6.28,11.51-4-8.05-7.58-15.34-11.55-23.4C80,146.72,81.71,150.63,83.61,154.48Z" transform="translate(-24.81 -23.69)"/><path class="cls-2" d="M82.93,154.45c1.91,3.88,3.92,7.71,6.28,11.64L77.57,142.53C79.24,146.64,81.06,150.57,82.93,154.45Z" transform="translate(-24.81 -23.69)"/><path class="cls-2" d="M82.25,154.42c1.93,3.93,3.93,7.79,6.23,11.79l-11.73-23.8C78.51,146.56,80.33,150.51,82.25,154.42Z" transform="translate(-24.81 -23.69)"/><path class="cls-2" d="M87.8,166.29c-4.07-8.25-7.75-15.71-11.78-24A263.45,263.45,0,0,0,87.8,166.29Z" transform="translate(-24.81 -23.69)"/><path class="cls-2" d="M43.51,47a7.19,7.19,0,0,0-1.39,4.33,6.53,6.53,0,0,0,.46,2.23c.27.69.56,1.38.85,2.06q.89,2.07,1.89,4.15c-.45-1.46-.91-2.89-1.39-4.3-.24-.7-.49-1.4-.74-2.09a7.26,7.26,0,0,1-.37-2.06,7.37,7.37,0,0,1,1.11-4,7,7,0,0,1,1.42-1.66,9.9,9.9,0,0,1,1.94-1.19,8.83,8.83,0,0,0-2.09,1A6.6,6.6,0,0,0,43.51,47Z" transform="translate(-24.81 -23.69)"/><path class="cls-2" d="M42.67,47a7.23,7.23,0,0,0-1.35,4.45l0,.59.1.59a7.19,7.19,0,0,0,.36,1.11c.28.71.57,1.42.87,2.12.61,1.41,1.23,2.83,1.91,4.27-.46-1.5-1-3-1.45-4.41-.25-.72-.51-1.44-.78-2.14a6.63,6.63,0,0,1-.31-1L42,52a2,2,0,0,0,0-.54A7.46,7.46,0,0,1,43,47.28a7,7,0,0,1,1.47-1.7,12.18,12.18,0,0,1,2-1.25,9.74,9.74,0,0,0-2.13,1A6.47,6.47,0,0,0,42.67,47Z" transform="translate(-24.81 -23.69)"/><path class="cls-2" d="M41.84,47a7.1,7.1,0,0,0-1.31,4.57,6.84,6.84,0,0,0,.18,1.19c.06.2.11.4.18.59l.21.54L42,56.07q.91,2.16,1.93,4.38c-.49-1.57-1-3-1.5-4.51-.27-.74-.53-1.47-.79-2.21a6.74,6.74,0,0,1-.51-2.17,7.25,7.25,0,0,1,1.07-4.28,7,7,0,0,1,1.52-1.74,12.12,12.12,0,0,1,2-1.3,11.07,11.07,0,0,0-2.19,1.06A6.66,6.66,0,0,0,41.84,47Z" transform="translate(-24.81 -23.69)"/><path class="cls-2" d="M41,47a7.17,7.17,0,0,0-1.27,4.71,7.45,7.45,0,0,0,.64,2.36l.91,2.23q.93,2.22,2,4.51c-.51-1.58-1-3.15-1.57-4.63l-.78-2.25a7.63,7.63,0,0,1-.58-2.24,7.18,7.18,0,0,1,1-4.43,7.07,7.07,0,0,1,1.57-1.79A13.86,13.86,0,0,1,45,44.14a12.53,12.53,0,0,0-2.24,1.09A6.93,6.93,0,0,0,41,47Z" transform="translate(-24.81 -23.69)"/><path class="cls-2" d="M40.16,47A7.07,7.07,0,0,0,39,51.8,6,6,0,0,0,39.21,53c.12.4.29.78.43,1.15.31.79.62,1.52.93,2.29.63,1.52,1.28,3.06,2,4.62q-.78-2.35-1.61-4.71l-.84-2.31c-.14-.38-.3-.78-.42-1.15-.05-.18-.1-.37-.14-.56a2.89,2.89,0,0,1-.1-.6,7.25,7.25,0,0,1,2.64-6.4,15.72,15.72,0,0,1,2.16-1.31,13.58,13.58,0,0,0-2.29,1.14A6.89,6.89,0,0,0,40.16,47Z" transform="translate(-24.81 -23.69)"/><path class="cls-2" d="M41.14,45.14a7.16,7.16,0,0,0-3,6.77c0,.21.07.42.12.63s.11.43.17.63l.47,1.17c.3.78.62,1.57.94,2.36q.95,2.36,2,4.71c-.56-1.64-1.11-3.25-1.68-4.83-.29-.79-.58-1.57-.86-2.36l-.44-1.17c-.07-.19-.11-.39-.17-.58s-.07-.4-.11-.6a7.21,7.21,0,0,1,1-4.71,7.07,7.07,0,0,1,1.65-1.88,6.87,6.87,0,0,1,1.08-.7L43.46,44l-1.19.53A7.94,7.94,0,0,0,41.14,45.14Z" transform="translate(-24.81 -23.69)"/><path class="cls-2" d="M40.9,44.73c-.19.12-.39.23-.57.36A7.15,7.15,0,0,0,37.38,52c0,.22.08.43.14.65a6.36,6.36,0,0,0,.19.62l.48,1.2c.31.78.63,1.57,1,2.4.66,1.57,1.33,3.22,2,4.87-.57-1.68-1.15-3.32-1.74-4.94l-.88-2.42a12.73,12.73,0,0,1-.79-2.4,7.16,7.16,0,0,1,1-4.83,7.25,7.25,0,0,1,1.69-1.93c.17-.14.36-.25.53-.38a6.55,6.55,0,0,1,.58-.32l1.18-.65-1.21.56C41.29,44.54,41.08,44.63,40.9,44.73Z" transform="translate(-24.81 -23.69)"/><path class="cls-2" d="M37.77,54.56A16.39,16.39,0,0,1,37,52.1a7.16,7.16,0,0,1,.88-5,7,7,0,0,1,1.74-2c.17-.14.36-.26.55-.39s.39-.22.59-.33l1.2-.67-1.23.59-.62.31a5.5,5.5,0,0,0-.57.36A7,7,0,0,0,37.66,47a7.12,7.12,0,0,0-1,5.14,13.25,13.25,0,0,0,.85,2.51c.32.79.65,1.63,1,2.46.66,1.64,1.34,3.3,2.06,5q-.9-2.58-1.81-5C38.38,56.2,38.08,55.38,37.77,54.56Z" transform="translate(-24.81 -23.69)"/><path class="cls-2" d="M55.29,35A8.05,8.05,0,0,0,59,33.75,7.23,7.23,0,0,0,55.29,35Z" transform="translate(-24.81 -23.69)"/><path class="cls-2" d="M54.78,34.6a8.08,8.08,0,0,0,3.7-1.31A7.26,7.26,0,0,0,54.78,34.6Z" transform="translate(-24.81 -23.69)"/><path class="cls-2" d="M54.27,34.14a8.07,8.07,0,0,0,3.7-1.3A7.24,7.24,0,0,0,54.27,34.14Z" transform="translate(-24.81 -23.69)"/><path class="cls-2" d="M53.75,33.68a7.9,7.9,0,0,0,3.7-1.32A7.27,7.27,0,0,0,53.75,33.68Z" transform="translate(-24.81 -23.69)"/><path class="cls-2" d="M53.24,33.24a8.07,8.07,0,0,0,3.7-1.3A7.15,7.15,0,0,0,53.24,33.24Z" transform="translate(-24.81 -23.69)"/><path class="cls-2" d="M52.73,32.78a8.05,8.05,0,0,0,3.7-1.29A7.23,7.23,0,0,0,52.73,32.78Z" transform="translate(-24.81 -23.69)"/><path class="cls-2" d="M31.53,65.57a7.52,7.52,0,0,0,.37-3.93A8.2,8.2,0,0,0,31.53,65.57Z" transform="translate(-24.81 -23.69)"/><path class="cls-2" d="M31,65.14a7.61,7.61,0,0,0,.36-4A8.51,8.51,0,0,0,31,65.14Z" transform="translate(-24.81 -23.69)"/><path class="cls-2" d="M30.43,64.71a7.78,7.78,0,0,0,.37-4.08A8.69,8.69,0,0,0,30.43,64.71Z" transform="translate(-24.81 -23.69)"/><path class="cls-2" d="M29.89,64.28a8.16,8.16,0,0,0,.35-4.13A8.91,8.91,0,0,0,29.89,64.28Z" transform="translate(-24.81 -23.69)"/><path class="cls-2" d="M29.34,63.85a8.28,8.28,0,0,0,.34-4.19A9.3,9.3,0,0,0,29.34,63.85Z" transform="translate(-24.81 -23.69)"/><path class="cls-2" d="M29.13,59.18a9.51,9.51,0,0,0-.33,4.24A8.48,8.48,0,0,0,29.13,59.18Z" transform="translate(-24.81 -23.69)"/><path class="cls-2" d="M34.72,45.92a33.06,33.06,0,0,0,2.74-3.28A5.38,5.38,0,0,0,34.72,45.92Z" transform="translate(-24.81 -23.69)"/><path class="cls-2" d="M34.12,45.65c1-1.34,1.87-2.42,3-3.66A5.23,5.23,0,0,0,34.12,45.65Z" transform="translate(-24.81 -23.69)"/><path class="cls-2" d="M34.61,42.92a5.75,5.75,0,0,0-1.12,2.46A25.5,25.5,0,0,1,35,43.25a15.32,15.32,0,0,1,1.77-1.92A4.92,4.92,0,0,0,34.61,42.92Z" transform="translate(-24.81 -23.69)"/><path class="cls-2" d="M34,42.39a6.42,6.42,0,0,0-1.16,2.71,21.84,21.84,0,0,1,1.57-2.35,10.93,10.93,0,0,1,2-2A4.88,4.88,0,0,0,34,42.39Z" transform="translate(-24.81 -23.69)"/><path class="cls-2" d="M33.44,41.85a6.73,6.73,0,0,0-1.21,3,17.66,17.66,0,0,1,1.62-2.66A9.35,9.35,0,0,1,36.07,40,5,5,0,0,0,33.44,41.85Z" transform="translate(-24.81 -23.69)"/><path class="cls-2" d="M35.73,39.43a5,5,0,0,0-2.86,1.93,7.26,7.26,0,0,0-1.29,3.19,17.62,17.62,0,0,1,1.67-2.92A8.16,8.16,0,0,1,35.73,39.43Z" transform="translate(-24.81 -23.69)"/><path class="cls-1" d="M62.43,47.14c-4.41-6.89.51-10.93,5.38-3.29q5.09,8.84,9.36,18.06C80,68.08,82.6,74.3,84.9,80.63a375.71,375.71,0,0,1,11.87,38.52s.57,2.21,1.33,5.5c.38,1.67.85,3.61,1.3,5.7l1.38,6.54c.88,4.47,1.74,8.93,2.25,12.3s.79,5.64.64,5.67c-.38.08-2.67-9.15-5.17-18.33s-5.24-18.24-5.24-18.24c-1.84-6.28-3.92-12.44-6-18.59s-4.47-12.22-7-18.19A228.68,228.68,0,0,0,62.43,47.14Z" transform="translate(-24.81 -23.69)"/><path class="cls-2" d="M64.26,107.12l-.83.35v-.07l-.64.27v-.08l-.27.11h0l-.37.16v-.08l-.29.14h0l-.33.15S58.79,102,56.17,95.79s-5.28-12.38-5.28-12.38-1.13-2.82-2.27-5.63L47.11,73.9l-.49-1.29a2,2,0,0,1-.16-.49l.06.13.16.36L47.29,74,49,78l2.49,5.85.12.27.16.36c.72,1.71,2.81,6.55,5,11.38,2,4.5,4,9,4.94,10.92-.92-2.13-3-7.07-5.07-12-2.75-6.55-5.4-13.13-5.4-13.13l-2.36-6c-.57-1.5-1.16-3-1.57-4.13-.21-.56-.38-1-.5-1.36a4.72,4.72,0,0,1-.18-.53h0a.37.37,0,0,1,.07.14l.18.39.59,1.4,1.79,4.28c1.29,3.14,2.6,6.2,2.6,6.2s2.68,6.4,5.49,12.75c1.57,3.59,3.14,7.16,4.23,9.6L57.1,93.84c-2.85-6.93-5.62-13.9-5.62-13.9S50.25,76.8,49,73.66l-1.72-4.39-.53-1.45a3.5,3.5,0,0,1-.17-.55,4.64,4.64,0,0,1,.26.55l.61,1.49c.51,1.23,1.18,2.87,1.85,4.52L52,80.4s2.81,6.77,5.7,13.51c1.09,2.52,2.18,5,3.14,7.21L57.5,92.83c-3-7.31-5.86-14.66-5.86-14.66l-2.56-6.68-1.71-4.61c-.22-.63-.41-1.15-.54-1.52a3.09,3.09,0,0,1-.18-.59,6.11,6.11,0,0,1,.27.58c.15.39.37.93.64,1.57l1.93,4.78,2.82,6.93s2.93,7.15,5.94,14.25S64.26,107.12,64.26,107.12Zm-8.11-10.3c-.48-1.07-1-2.14-1.42-3.14l-5.67-13-.27-.62c-.59-1.38-1.19-2.74-1.63-3.77l-.55-1.24-.15-.35c0-.08-.06-.12-.07-.12s0,.05,0,.13l.13.34c.12.29.27.7.47,1.21.39,1,.93,2.31,1.46,3.63l2.17,5.27S53,91,55.56,96.8s5.17,11.49,5.17,11.49l.3-.15h0l.29-.14s-2.64-5.57-5.17-11.18Zm0,2.19-8.08-18c-.38-.87-.78-1.7-1-2.36l-.52-1.15-.15-.32a.12.12,0,0,0-.06-.11.2.2,0,0,0,0,.11,1,1,0,0,0,.12.32c.11.27.26.66.44,1.12l1.4,3.4L50.33,87S52.63,92.41,55,97.8c1.2,2.69,2.43,5.37,3.38,7.38L60,108.5l.53-.27S59.89,106.94,59,105c-.74-1.68-1.75-3.79-2.77-6Z" transform="translate(-24.81 -23.69)"/><path class="cls-3" d="M115.52,132.1a3.55,3.55,0,0,0-.13-1.38,75,75,0,0,1-2.68-29.3,5.92,5.92,0,0,0-1.45-4.66,6.28,6.28,0,0,0-4.76-2h0c-11.6,0-22.42,4.71-32.89,9.27-12.82,5.57-24.94,10.84-35.69,5.38a10.21,10.21,0,0,1-4.27-4.57h0v-.07a9.43,9.43,0,0,1-.78-2.64c-.4-2.85,2.46-5.56,2.65-5.35s-2,2.79-1.58,5.21v.13a8.31,8.31,0,0,1,.79-1.84,7.47,7.47,0,0,1,.63-.85,2.55,2.55,0,0,1,.78-.66,6.35,6.35,0,0,1-.53.91,8,8,0,0,0-.46.93,6.58,6.58,0,0,0-.52,3.45,6.64,6.64,0,0,1,.53-1.69,6.72,6.72,0,0,1,.47-.78c.27-.37.6-.66.65-.63a4.82,4.82,0,0,1-.36.84c-.11.25-.21.52-.3.78a5.46,5.46,0,0,0,0,3.25,5.36,5.36,0,0,1,.2-1.43,4,4,0,0,1,.29-.67c.18-.32.42-.6.47-.56s-.07.37-.15.72-.08.45-.11.69a4.15,4.15,0,0,0,.57,2.64h0l.18.15a5.8,5.8,0,0,1,0-.59,3.07,3.07,0,0,1,.07-.53c0-.26.16-.5.22-.49s.08.28.13.52.11.49.11.49a3.43,3.43,0,0,0,.69,1.34,2,2,0,0,1,0-.35c0-.21.06-.42.12-.43s.14.2.23.37l.18.33a2.23,2.23,0,0,0,1.08.93h0a21,21,0,0,0,9,1.57l-1.12-2.44-.09.08a.57.57,0,0,1-.34.07H42.1a2.34,2.34,0,0,1-.63-.21c-.27-.15-.51-1-.51-1l-1.51-5.27-2.28-9.53c-4.32,2.85-6.54,6-6.59,9.36a6.84,6.84,0,0,0,.51,2.6c5.07,12.56,7.25,23.2,6.66,32.53A5,5,0,0,0,40,141.14c12.3,8.15,28.5.78,42.8-5.78,9.94-4.53,19.32-8.82,26-7.11a4.9,4.9,0,0,1,3.93,3.47c.87,3.55-4.32,8.69-4.52,8.48s2.22-2.84,3.2-5.43a11.54,11.54,0,0,1-1.29,2,10.44,10.44,0,0,1-.91,1,3.76,3.76,0,0,1-1.07.79,8.68,8.68,0,0,1,.85-1.07c.42-.53.79-1.09.79-1.09a10.8,10.8,0,0,0,1.57-4.36,11.45,11.45,0,0,1-1.75,3.36,11,11,0,0,1-.79.88,3.24,3.24,0,0,1-.93.71,8.73,8.73,0,0,1,.69-1c.35-.48.66-1,.66-1a10.27,10.27,0,0,0,1.32-3.69c-.06.18-.13.36-.2.53a10.9,10.9,0,0,1-1.14,2,7.08,7.08,0,0,1-.66.79,3.24,3.24,0,0,1-.78.64,5.16,5.16,0,0,1,.55-.9c.29-.44.52-.89.52-.89a10.53,10.53,0,0,0,.79-1.94c.09-.33.17-.66.23-1a1,1,0,0,0,0-.25,6.51,6.51,0,0,1-1,2.19,4.31,4.31,0,0,1-.52.6c-.28.28-.61.5-.65.46s.19-.36.39-.7.36-.69.36-.69a5.46,5.46,0,0,0,.53-2.35,3.85,3.85,0,0,1-.6,1.11,1.71,1.71,0,0,1-.35.36c-.2.17-.42.29-.47.24s.1-.26.2-.48l.2-.42a3.27,3.27,0,0,0,.24-1.38h-.13a2.47,2.47,0,0,1-.4.61s-.37.3-.47.19,0-.47,0-.47a1.34,1.34,0,0,0,0-.49,15.66,15.66,0,0,0-4.27.07.47.47,0,0,0,0,.25l.57.09s.31.06.35.19-.24.32-.24.32l-.47.34a2.08,2.08,0,0,0,.08.39h.58s.36,0,.41.14-.26.36-.26.36l-.54.39a2.25,2.25,0,0,0,.09.4h.6s.41,0,.47.1-.28.39-.28.39l-.61.45a2.1,2.1,0,0,0,.09.42,4.78,4.78,0,0,0,.65-.07s.45-.08.51,0-.3.46-.3.46a8.29,8.29,0,0,1-.68.48,2.31,2.31,0,0,0,.08.43,5.38,5.38,0,0,0,.7-.12s.49-.13.56,0,0,.18-.13.29a1.34,1.34,0,0,1-.2.21,5.72,5.72,0,0,1-.78.54,3,3,0,0,0,.07.43,6.93,6.93,0,0,0,.79-.17l.27-.07c.14,0,.29-.06.33,0s0,.19-.15.31a1.51,1.51,0,0,1-.21.23,5.77,5.77,0,0,1-.78.6,2.07,2.07,0,0,0,.08.42,4.73,4.73,0,0,0,.82-.22l.29-.09c.15-.05.31-.08.35,0s0,.21-.16.34a2.73,2.73,0,0,1-.23.25,5.78,5.78,0,0,1-.9.66,2.07,2.07,0,0,0,.08.42,7,7,0,0,0,.89-.27l.31-.12c.16,0,.32-.11.37,0s-.06.2-.17.35a3.33,3.33,0,0,1-.25.28,6.34,6.34,0,0,1-1,.72l.07.41a5.54,5.54,0,0,0,1-.33l.33-.13c.17-.07.34-.13.39-.09s-.06.22-.18.38a2.63,2.63,0,0,1-.27.3,6.87,6.87,0,0,1-1.07.79l.07.4a5.57,5.57,0,0,0,1.06-.38l.34-.16c.18-.08.36-.16.4-.11s0,.23-.19.4a2.47,2.47,0,0,1-.28.32,5.67,5.67,0,0,1-1.16.85c.22,1.25.38,2.22.48,2.75A16.6,16.6,0,0,0,115.52,132.1ZM49.93,112.58a14.35,14.35,0,0,1-18-7,17,17,0,0,0,18,7ZM43.41,129.4a5.46,5.46,0,0,1-5.29-1.79c1.86.69,3.39,1.19,5.29,1.75Zm-5.22-3.85a14.53,14.53,0,0,0,2.49,1.18,15.39,15.39,0,0,0,2.64.79,4.52,4.52,0,0,1-5.13-2ZM41.44,137a21.44,21.44,0,0,0,2.35,1.13,4.57,4.57,0,0,1-4.58-2.42c.76.48,1.5.87,2.23,1.26Zm-2.72-3.14A16.32,16.32,0,0,0,41,135.24a18.21,18.21,0,0,0,2.42,1.11,4.43,4.43,0,0,1-4.69-2.61Zm-.11-1.21a47.14,47.14,0,0,0,5.23,2.22,5.48,5.48,0,0,1-5.19-2.29Zm.08-1.48c1.64.74,2.94,1.32,4.55,2.08a4.84,4.84,0,0,1-4.55-2.15Zm-.06-1.85a20.71,20.71,0,0,0,4.85,2.21,4.51,4.51,0,0,1-4.83-2.28Zm3.88,10.14a22,22,0,0,0,4.58,1.65,9.9,9.9,0,0,1-8.7-4.31,21,21,0,0,0,4.12,2.59Zm-8.75-30a17.53,17.53,0,0,0,5.67,3.64,32.08,32.08,0,0,0,6.48,2,16.52,16.52,0,0,1-6.77-1.32,11.91,11.91,0,0,1-5.38-4.36Zm6.36,5.3a28.13,28.13,0,0,0,5,1.37,11.88,11.88,0,0,1-9.76-3.67,27.25,27.25,0,0,0,4.73,2.23Zm3.45,2.78a10.4,10.4,0,0,1-7.25-2.5l7.25,2.43Zm-3.52.86a22.47,22.47,0,0,0,4.1,1.14,8.62,8.62,0,0,1-7.86-3.14,21.53,21.53,0,0,0,3.76,1.93Zm3.7,3.36A8.29,8.29,0,0,1,36.87,119a42.14,42.14,0,0,0,6.88,2.65Zm-.69,2a5.9,5.9,0,0,1-5.49-2.16,53.45,53.45,0,0,0,5.49,2.09Zm-5.57-.36a37.11,37.11,0,0,0,5.91,2.35,6.42,6.42,0,0,1-5.91-2.42Zm.52,14.7a19.45,19.45,0,0,0,6.59,4.16,19.7,19.7,0,0,0,7.63,1.35A14.2,14.2,0,0,1,38,138Zm73-31a12.39,12.39,0,0,0-5.1-1.77,4.12,4.12,0,0,1,5.13,1.7Zm-5.36-3.53a4.1,4.1,0,0,1,5.16,2.25,9.58,9.58,0,0,0-2.41-1.51,9.27,9.27,0,0,0-2.72-.81Zm5.75,11.85c-.69-.29-1.27-.49-1.85-.7s-1.14-.45-1.84-.67a3,3,0,0,1,3.72,1.3Zm-3.79-2.59a2.91,2.91,0,0,1,3.69,1.25c-.69-.29-1.26-.46-1.83-.66a17.42,17.42,0,0,0-1.83-.66Zm-.3-1.46a3.75,3.75,0,0,1,4.09,1.33l-4.05-1.4Zm1.46-3.93c-.73-.2-1.47-.4-2.35-.57a4.14,4.14,0,0,1,4.65,1.26,13.28,13.28,0,0,0-2.26-.75Zm2.22,2c-.79-.22-1.44-.36-2.11-.53s-1.31-.35-2.1-.51a3.61,3.61,0,0,1,4.24,1Zm-1.57,7.07a2.86,2.86,0,0,1,1.9,1.82,5.93,5.93,0,0,0-2.11-1.14,5.72,5.72,0,0,0-2.36-.19,2.91,2.91,0,0,1,2.57-.57Zm2.25,3.23a9,9,0,0,0-5.28-1.34,3.87,3.87,0,0,1,5.27,1.24Zm-2-3.8a11.62,11.62,0,0,0-2.1-.48,3.13,3.13,0,0,1,4.13,1.24,12.49,12.49,0,0,0-2-.86Zm-2.58-6.08a4.49,4.49,0,0,1,4.52,1.32c-1.66-.51-2.89-.88-4.52-1.42Zm.56-9.66a5.81,5.81,0,0,1,3.62,2.51,9.1,9.1,0,0,0-3.82-1.83c-1.34-.35-2.74-.59-4.26-.84a11.16,11.16,0,0,1,4.46.06Zm-6.6-1.49a12.65,12.65,0,0,1,5.77-.26,8.61,8.61,0,0,1,2.73,1,3.93,3.93,0,0,1,1.87,2.21,4.27,4.27,0,0,0-2.14-1.74,12.57,12.57,0,0,0-2.62-.79,24.57,24.57,0,0,0-5.61-.5Zm7.48,3.32a3.77,3.77,0,0,1,2.48,2.46,5.71,5.71,0,0,0-2.73-1.79A16.7,16.7,0,0,0,105,102a5.94,5.94,0,0,1,3.54-.09Zm.47,17.38a4,4,0,0,1,3,1.91,6.29,6.29,0,0,0-3.14-1.21c-1.09-.15-2.23-.16-3.47-.26a8.11,8.11,0,0,1,3.58-.54ZM110.9,99a4.28,4.28,0,0,0-1.52-.91,16.33,16.33,0,0,0-3.52-.67,23.21,23.21,0,0,0-7.34.44A15.24,15.24,0,0,1,106,96.76a11.55,11.55,0,0,1,3.66.89,4.32,4.32,0,0,1,1.54,1.2,2.87,2.87,0,0,1,.62,1.82A2.9,2.9,0,0,0,110.9,99Zm-3.4,24.81a9.74,9.74,0,0,1,3.72,1.09,7.13,7.13,0,0,1,2.82,2.68,7.94,7.94,0,0,0-3.08-2.2,11.75,11.75,0,0,0-3.55-.86,34,34,0,0,0-7.53.56,19.07,19.07,0,0,1,7.62-1.27Zm6,1.16a13,13,0,0,0-10.63-1.93,8.64,8.64,0,0,1,10.63,2Zm-1-2a13.39,13.39,0,0,0-3.92-1.39,13.2,13.2,0,0,0-4.16-.15A7,7,0,0,1,112.47,123Zm-39.8-17.28c5.92-2.85,11.88-5.84,18.57-7.4-6.61,2-12.38,5.23-18.32,8.07a88.86,88.86,0,0,1-9.14,3.93,41.51,41.51,0,0,1-9.9,2.28c6.88-1.14,12.88-4,18.81-6.86Zm2.66,31.41c-3,1.26-6,2.53-9.16,3.61A44.78,44.78,0,0,1,56.35,143c6.79-1.19,12.73-4.09,18.77-6.58s12.09-5,18.44-7.37c-6.22,2.88-12.19,5.52-18.21,8Zm30.12-41.71a8.43,8.43,0,0,1,4.71,1.28,5.09,5.09,0,0,1,1.64,1.87,3.8,3.8,0,0,1,.41,2.43,4.54,4.54,0,0,0-2.36-3.87,9,9,0,0,0-4.41-1A32.35,32.35,0,0,0,96,97.45a22.7,22.7,0,0,1,9.46-2Zm6.24,32.26a11.75,11.75,0,0,0-4.93-1.21,22.41,22.41,0,0,0-10.28,1.83,18,18,0,0,1,10.36-2.53,10.49,10.49,0,0,1,5.15,1.47,5.69,5.69,0,0,1,1.9,2,4.45,4.45,0,0,1,.63,2.64A5.2,5.2,0,0,0,111.69,127.68Zm-4.8,16.1a31.22,31.22,0,0,0,7.61-9,14.27,14.27,0,0,1-7.64,9ZM58.6,162.56a7.4,7.4,0,0,0,0,3.68,51,51,0,0,1,1.49,18.48,3.44,3.44,0,0,0,2.36,3.7,18.53,18.53,0,0,0,6.62.41,25.61,25.61,0,0,1,9.67.83A6.19,6.19,0,0,1,82.83,193a2.78,2.78,0,0,1,.11.5,3.9,3.9,0,0,0-.66-2.07,5.11,5.11,0,0,0-.51-.64c-.26-.3-.61-.55-.59-.61a1.46,1.46,0,0,1,.79.32,3.39,3.39,0,0,1,.66.54,4.78,4.78,0,0,1,1.12,2.06,3.55,3.55,0,0,0-.21-1.3s-.08-.22-.17-.44-.21-.44-.17-.49.26.09.44.26a2.43,2.43,0,0,1,.34.38,4.21,4.21,0,0,1,.49.94l-.08-.59s-.08-.55,0-.59.43.37.43.37l.37.52c.25-.25.49-.5.73-.78A26.08,26.08,0,0,1,79.14,184a.52.52,0,0,1,0-.47.51.51,0,0,1,.35-.32,39.73,39.73,0,0,0,9.77-3.82h0a1.59,1.59,0,0,0,.28-1.08v-.3c0-.16-.08-.33,0-.37s.2,0,.32.19a1.23,1.23,0,0,1,.22.29,2.39,2.39,0,0,1,.15.37,2.12,2.12,0,0,0,.18-1.42,4,4,0,0,0-.11-.44c-.07-.22-.2-.44-.15-.48s.26.08.44.27a2.45,2.45,0,0,1,.59,1.36,1.81,1.81,0,0,0,.06-1.8,2.66,2.66,0,0,0-.29-.45c-.17-.22-.41-.4-.38-.45s.32,0,.58.16a2.32,2.32,0,0,1,.48.4,2.3,2.3,0,0,1,.49.84c.21-1.37-1.12-2.43-.93-2.64s2.19,1.4,1.93,3c-.51,3.14-7.06,5.61-12.56,7.19a24,24,0,0,0,6.61,6.78.58.58,0,0,1,.24.37.54.54,0,0,1-.12.42,23.25,23.25,0,0,1-4.88,4.24l-.09.07A31.59,31.59,0,0,1,78.44,198,13.26,13.26,0,0,0,91.63,196a3,3,0,0,0,1.17-2.63,43.6,43.6,0,0,1,1.41-14.78,5,5,0,0,0-.79-4.24c-3-4-9-6.28-15.13-5.73-7.49.63-15.22,1-17.12-3.47-2.36-5.55,5.71-10.95,5.84-10.7s-5.67,5.15-5.29,9.08a16.9,16.9,0,0,1,3-5.22,12.24,12.24,0,0,1,1.17-1.22,5.27,5.27,0,0,1,1.34-1c-.36.45-.74.89-1.14,1.31-.57.66-1.06,1.36-1.06,1.36a15.91,15.91,0,0,0-2.71,6.39l0,.09a23,23,0,0,1,2.85-5.44s.45-.63,1-1.21a5.58,5.58,0,0,1,1.1-1.07,11.94,11.94,0,0,1-.87,1.35c-.43.66-.83,1.34-.83,1.34a21.17,21.17,0,0,0-2.4,5.87l.16.12a22.75,22.75,0,0,1,2.42-4.8s.38-.56.78-1.09a4.37,4.37,0,0,1,.95-1,9.23,9.23,0,0,1-.69,1.23c-.36.6-.69,1.21-.69,1.21a21.65,21.65,0,0,0-1.91,5l.25.12a13.74,13.74,0,0,1,1.47-3.52,7.9,7.9,0,0,1,.56-.78c.3-.36.64-.75.69-.72a3.58,3.58,0,0,1-.41.94c-.22.45-.41.91-.41.91a12.66,12.66,0,0,0-1,3.53l.35.1a10.4,10.4,0,0,1,.73-2.14s.14-.27.3-.53.36-.49.41-.46,0,.33-.09.63l-.14.59a8.55,8.55,0,0,0-.25,2.13,2,2,0,0,1,.24,0l.41-.88s.29-.59.41-.56.09.72.09.72l-.06.85c.13,0,.24,0,.36,0l.28-.43s.22-.31.34-.28.17.42.17.42v.37a61.91,61.91,0,0,0,9.13-.26c.35,0,.7-.05,1.06-.07a5.43,5.43,0,0,1,.42-.68,1.61,1.61,0,0,1,.42-.36,6.14,6.14,0,0,0-.84-.23l-.52-.09c-.27,0-.54-.07-.55-.14s.24-.15.51-.21l.54-.09a6.7,6.7,0,0,1,1.67.14l-.26-.36a4.72,4.72,0,0,1-1.57-.36v.13a6,6,0,0,0-1.29-.46s-.66-.15-.69-.25.68-.3.68-.28a2.28,2.28,0,0,0,.52,0,.42.42,0,0,1,0-.1l-.24-.4a4.62,4.62,0,0,0-1.3-.43s-.72-.08-.74-.19.69-.34.7-.32a4.41,4.41,0,0,1,.72-.08L77,162.2a5.7,5.7,0,0,0-2.29.07s-.29.06-.59.15-.59.19-.62.13.18-.26.44-.44a6,6,0,0,1,.55-.31,6.36,6.36,0,0,1,1.92-.57l-.33-.54a9.45,9.45,0,0,0-3.53.58s-.46.17-.92.37a4.36,4.36,0,0,1-.94.4,2.72,2.72,0,0,1,.72-.68,6.72,6.72,0,0,1,.85-.53,10.11,10.11,0,0,1,3.25-1.07L75,159a12.3,12.3,0,0,0-4.1,1s-.53.23-1,.5a5.28,5.28,0,0,1-1,.51,3.25,3.25,0,0,1,.78-.79,8.56,8.56,0,0,1,.94-.63,12.86,12.86,0,0,1,3.88-1.52L73.75,157a11,11,0,0,0-3.58,1.19s-.42.21-.83.46a3.76,3.76,0,0,1-.86.47s.26-.41.61-.73.72-.6.72-.6A12,12,0,0,1,73.2,156l-.37-.63a11,11,0,0,0-2.92,1l-.73.37c-.37.19-.73.4-.79.36s.24-.36.53-.63a6,6,0,0,1,.64-.51,12,12,0,0,1,2.73-1.43l-.4-.67a10.42,10.42,0,0,0-2.31,1l-.55.32c-.27.16-.55.33-.59.29s.14-.3.35-.55.29-.3.44-.44A10.93,10.93,0,0,1,71.37,153l-.28-.45a5,5,0,0,0-1.57.62s-.78.55-.87.5.48-.89.5-.87a5.56,5.56,0,0,1,1.45-1.1l-.67-1.12C63.62,153.46,59.91,157.4,58.6,162.56Zm26.23,35.09a28.21,28.21,0,0,0,3.49-1.21,26.88,26.88,0,0,0,3.33-1.61,7.76,7.76,0,0,1-6.82,2.82Zm3.08-2.51A18,18,0,0,1,91.84,194a3.86,3.86,0,0,1-3.93,1.11Zm1.79-7.28A4.8,4.8,0,0,1,92,186.72a1.82,1.82,0,0,1-2.3,1.14Zm2.2.66a2,2,0,0,1-2,1,1.83,1.83,0,0,1,2-.94Zm-2.84-2.11c.52-.26.92-.5,1.34-.69s.87-.33,1.42-.53a2.14,2.14,0,0,1-2.73,1.27l-.06,0Zm1.57,6.69a7.14,7.14,0,0,1,1.2-.26,1.57,1.57,0,0,1-2,.93l-.28-.14a6.89,6.89,0,0,1,1.06-.51Zm-.78-.74a2.59,2.59,0,0,1,2-.79,1.46,1.46,0,0,1-1.86.9l-.21-.09Zm-.41-1.4a6.8,6.8,0,0,1,2.64-1,2.07,2.07,0,0,1-2.7,1.08Zm-.28-5.82a12.19,12.19,0,0,1,3.21-1.88,3.32,3.32,0,0,1-3.28,1.9Zm-1.06-1.57A23.08,23.08,0,0,0,93,181.12,4.72,4.72,0,0,1,88,183.57ZM93.7,179a7.49,7.49,0,0,1-6.89,3.82,18.35,18.35,0,0,0,3.64-1.57A17.67,17.67,0,0,0,93.62,179Zm-9.26-5.95a2.7,2.7,0,0,1,3,1.74,16.87,16.87,0,0,1-3-1.74ZM83,171.58a8.84,8.84,0,0,1,5.58,2.19,23.73,23.73,0,0,1-5.64-2.19Zm6.69,1.58a34.17,34.17,0,0,0-5-1.81,32.6,32.6,0,0,0-5.27-1,13,13,0,0,1,10.25,2.82Zm-29.26-4a28.84,28.84,0,0,0,3.93,1.33,32.76,32.76,0,0,0,4,.79,9.21,9.21,0,0,1-8-2.09Zm3,8.7c.64.2,1.27.4,2,.56a3.2,3.2,0,0,1-4-1.24,19,19,0,0,0,1.92.72Zm-1.75-2.08c.66.25,1.23.43,1.8.62s1.12.38,1.8.57a2.8,2.8,0,0,1-3.66-1.16Zm3.83,4.06a3.21,3.21,0,0,1-3.83-1.14c1.35.44,2.37.73,3.77,1.17Zm-1.72.9a22.33,22.33,0,0,0,2.13.68,3.55,3.55,0,0,1-4.22-1.52,19.73,19.73,0,0,0,2,.91Zm-2.27-8.11c1.57.46,2.83.78,4.4,1.32a4.17,4.17,0,0,1-4.47-1.29Zm3.7,2.79a3.33,3.33,0,0,1-3.79-1.32c1.34.48,2.34.82,3.73,1.35Zm-1.86,9.54c.65.26,1.29.52,2,.78a3.54,3.54,0,0,1-4-1.64,15.19,15.19,0,0,0,2,.89Zm-1.78-2.14a13.36,13.36,0,0,0,1.92.79,14.13,14.13,0,0,0,2,.52,2.94,2.94,0,0,1-4-1.23l0,0Zm0-1.31a12.41,12.41,0,0,0,2.43,1,13.8,13.8,0,0,0,2.54.52,4,4,0,0,1-5-1.45Zm-.39-10.56a19.78,19.78,0,0,0,2.53.85,19.22,19.22,0,0,0,2.59.54A4.47,4.47,0,0,1,61.15,171Zm2.92,15.48a15.13,15.13,0,0,0,3.19.62,5.56,5.56,0,0,1-6.22-1.88,14.06,14.06,0,0,0,3,1.29Zm.16,2a5.5,5.5,0,0,1-2.21-.9,4.19,4.19,0,0,1-1.53-1.83,6.28,6.28,0,0,0,3.88,2,34.16,34.16,0,0,0,4.52.26,10.6,10.6,0,0,1-4.71.47Zm16.86,1A31.36,31.36,0,0,0,77,188.33a32.45,32.45,0,0,0-4.26-.64,9.94,9.94,0,0,1,8.36,1.82ZM63.08,169a14,14,0,0,0,3.85.58c1.3.05,2.61,0,3.93,0s2.68,0,4.06,0c-1.38.22-2.72.4-4.06.55a29.86,29.86,0,0,1-4,.22,11.34,11.34,0,0,1-4-.79,7.27,7.27,0,0,1-3.23-2.54A8.05,8.05,0,0,0,63.05,169Zm28,8.95h0v0s0,0-.07,0ZM99.74,71.34a5.94,5.94,0,0,0-.92-4l-.4-.58A17.55,17.55,0,0,0,91.27,62l-.7-.23A12.65,12.65,0,0,0,89,61.31a15,15,0,0,0-1.57-.3,3.72,3.72,0,0,1-.74-.14,4.21,4.21,0,0,1,.71,0c.53,0,1,.1,1.57.18a17.5,17.5,0,0,1,8,3.55C92.38,57.53,89.52,51.05,88.21,45a1.39,1.39,0,0,0-.82-1c-2.55-1.1-6.21-1.21-10.89-.33-.21.38-.41.76-.59,1.15,2.93.91,7.76,2.88,11.1,6.56a.51.51,0,0,1,.11.53.54.54,0,0,1-.4.34c-5.08.94-11.19,2.69-14.5,4.91l.07,0s.32.21.29.34-.43.17-.43.17l-.78.08-.06,0,.84.28s.79.27.72.39-.84.12-.84.12h-1.5c.83.24,1.67.46,2.53.63l.7.16c.36.07.72.16.71.22s-.39.11-.79.12-.78,0-.78,0a29.09,29.09,0,0,1-3-.25h0a28,28,0,0,0,4.81.78l1.19.08a5.38,5.38,0,0,1,1.2.13,4.06,4.06,0,0,1-1.25.23c-.63.07-1.27.08-1.27.08a28.28,28.28,0,0,1-4.78-.28,22.59,22.59,0,0,0,6.28.79s.74,0,1.48-.07a9.24,9.24,0,0,1,1.49-.07,5.32,5.32,0,0,1-1.51.43c-.79.15-1.57.23-1.57.23a22.49,22.49,0,0,1-5.56-.13c2.19,1,9.79.26,9.78.52s-3,.6-4.24.7c-3.42.25-6.38.49-7.07-1.33a3.26,3.26,0,0,1,.24-2.87c1.87-3.34,9.51-5.9,16.37-7.27A26.07,26.07,0,0,0,75,45.69a.52.52,0,0,1-.37-.63.3.3,0,0,1,0-.1,53.75,53.75,0,0,1,6-9.56,32.34,32.34,0,0,0-15.82,7.75,2.77,2.77,0,0,0-.62,3.14,32.42,32.42,0,0,1,3,11,7.06,7.06,0,0,1,2.61-2.51,6.6,6.6,0,0,1,1.29-.53,3.05,3.05,0,0,1,1.37-.17c0,.07-.68.23-1.31.53a7,7,0,0,0-1.18.69,6.38,6.38,0,0,0-2.67,4.55h0v.25c-.06,2.42.91,2.95,1.64,3.14,1.64.42,4.38.24,7.54,0,6.87-.46,15.4-1,19.64,4a9.69,9.69,0,0,1,1.35,2.07h0v.07a7.66,7.66,0,0,1,.71,4c-.38,4.44-4.09,6.63-4.28,6.4s2.16-2,3-4.84a8.82,8.82,0,0,1-1.41,2,10.24,10.24,0,0,1-1.11,1,4.28,4.28,0,0,1-1.26.73,13.38,13.38,0,0,1,1.08-1.05c.34-.35.67-.72,1-1.11a8.13,8.13,0,0,0,1.64-3.78,8.08,8.08,0,0,1-1.7,2.69,9,9,0,0,1-1.09,1,4.13,4.13,0,0,1-1.26.71c0-.06.56-.5,1.08-1a12.4,12.4,0,0,0,1-1.09,7.77,7.77,0,0,0,1.57-5.24h0a7.29,7.29,0,0,1-3,5,3.07,3.07,0,0,1-1.17.62s.52-.46,1-.93a8.29,8.29,0,0,0,.88-1,6.71,6.71,0,0,0,1.35-4.71,6.45,6.45,0,0,1-1.69,3.55,6.38,6.38,0,0,1-.94.78,2.77,2.77,0,0,1-1.1.54,10.52,10.52,0,0,1,.92-.85,8.5,8.5,0,0,0,.78-.91,5.8,5.8,0,0,0,1.09-4.11,5.48,5.48,0,0,1-1.42,3,5.38,5.38,0,0,1-.86.72,2.29,2.29,0,0,1-1,.45c0-.07.44-.37.84-.79a6.49,6.49,0,0,0,.7-.78,4.8,4.8,0,0,0,.79-3.8h0a4.43,4.43,0,0,1-1.16,3.14,4.29,4.29,0,0,1-.74.61c-.41.26-.86.39-.88.33s.37-.31.69-.64a4.35,4.35,0,0,0,.57-.7,3.65,3.65,0,0,0,.56-2.8,3.66,3.66,0,0,1-.79,2,3.3,3.3,0,0,1-.59.59c-.33.25-.72.4-.75.34s.28-.31.53-.62a3.8,3.8,0,0,0,.41-.66,3,3,0,0,0,.26-2.15,3.74,3.74,0,0,1-.63,1.67,2.62,2.62,0,0,1-.46.48c-.25.22-.54.34-.58.3s.18-.3.34-.55a5.44,5.44,0,0,0,.27-.54,2.74,2.74,0,0,0,.16-1.74,2.35,2.35,0,0,1-.49,1.09,1.8,1.8,0,0,1-.38.35c-.22.16-.47.22-.5.17s.14-.23.26-.43a3,3,0,0,0,.21-.4,1.82,1.82,0,0,0,.12-.86.84.84,0,0,0-.08-.3,2,2,0,0,1-.4,1,1.57,1.57,0,0,1-.38.35c-.22.14-.46.21-.5.15s.15-.23.26-.41a2,2,0,0,0,.19-.39,1.38,1.38,0,0,0,0-1,1.29,1.29,0,0,1-.25.63,1.4,1.4,0,0,1-.33.31c-.2.11-.41.14-.43.08s.11-.19.19-.35a1,1,0,0,0,.12-.32.78.78,0,0,0-.18-.78,1.49,1.49,0,0,1-.23.57.8.8,0,0,1-.2.21c-.12.08-.26.12-.3.07s0-.17,0-.28a1.18,1.18,0,0,0-.18-.74A39.42,39.42,0,0,0,81.1,64c0,.07.07.15.1.24l.87.13s.54.08.55.21-.47.3-.47.3l-.59.21.18.43h1s.61,0,.64.16-.51.35-.51.35l-.74.29c.07.14.12.29.19.44l1,0s.68,0,.72.1-.56.4-.56.4l-.86.38.19.43L84,67.88s.79-.08.79,0a4.08,4.08,0,0,1-.55.6l-1,.48c.06.15.13.3.2.45.41,0,.84-.11,1.25-.19,0,0,.79-.16.86,0s-.64.53-.64.53c-.37.2-.79.37-1.13.54l.19.45c.46-.07.91-.16,1.37-.27l.44-.1c.22,0,.46-.08.48,0s-.69.59-.69.59a12.27,12.27,0,0,1-1.25.64l.18.44c.5-.1,1-.21,1.48-.35l.48-.12c.24-.07.49-.12.52-.07s-.15.22-.35.37a3.89,3.89,0,0,1-.39.28,14.13,14.13,0,0,1-1.39.73l.18.44a13.47,13.47,0,0,0,1.57-.44l.5-.15c.26-.08.53-.15.56-.1s-.16.24-.37.4a4.33,4.33,0,0,1-.42.31,16,16,0,0,1-1.53.83c.07.14.12.29.18.43A15.57,15.57,0,0,0,87.22,74l.54-.19c.27-.09.55-.18.58-.13s-.17.26-.39.44-.45.33-.45.33a14.91,14.91,0,0,1-1.66.92c0,.15.11.29.17.43a17.57,17.57,0,0,0,1.86-.61l.57-.21c.29-.11.58-.21.61-.16s-.18.26-.41.45-.32.25-.48.36a15.56,15.56,0,0,1-1.82,1v.06c0,.11.09.24.14.35a15,15,0,0,0,2-.69l.6-.25c.3-.12.61-.24.64-.19s-.19.28-.44.48-.5.39-.5.39a17.12,17.12,0,0,1-2,1.15l.15.41a16.76,16.76,0,0,0,2.19-.78l.63-.29a2.16,2.16,0,0,1,.68-.23s-.21.3-.46.52-.54.42-.54.42a18.09,18.09,0,0,1-2.17,1.27l.15.39a17.61,17.61,0,0,0,2.36-.89l.66-.31c.34-.15.67-.31.71-.26s-.22.31-.49.54l-.56.45a19.87,19.87,0,0,1-2.35,1.39l.14.38a17.74,17.74,0,0,0,2.53-1l.69-.33c.35-.18.7-.35.73-.3s-.22.33-.51.57-.58.47-.58.47a17.88,17.88,0,0,1-2.52,1.51l.14.38a17.57,17.57,0,0,0,2.7-1.1l.72-.37c.37-.18.73-.38.79-.32s-.24.33-.55.59-.61.5-.61.5a18.88,18.88,0,0,1-2.69,1.63c.26.71.48,1.3.63,1.69C95.6,82.46,99,78,99.73,71.37ZM93.25,59.49c-1.2-.32-2-.55-3.24-.9a2.74,2.74,0,0,1,3.23.93Zm-.63-1.07a10.44,10.44,0,0,1-2.43-.78,1.84,1.84,0,0,1,2.41.81Zm-1.15-2.35a1.12,1.12,0,0,1-1.56-.25v0a1.21,1.21,0,0,1,1.56.32Zm.43,1.07a3.69,3.69,0,0,1-2-.41,1.36,1.36,0,0,1,1.89.34l.08.13Zm2.36,3.72a27.48,27.48,0,0,1-4.88-1.48,7.13,7.13,0,0,1,4.86,1.53Zm.52,1.39a30.36,30.36,0,0,0-6.85-2,8.31,8.31,0,0,1,6.82,2.1ZM88.68,48.5c-.45.29-.73.19-.91-.32.41-.18.7-.12.89.38Zm-.91-3.58a18.85,18.85,0,0,0-3-.78,19.4,19.4,0,0,0-3-.36A6,6,0,0,1,87.77,44.92Zm.1.71a16.74,16.74,0,0,1-3.43-.79,3.37,3.37,0,0,1,3.43.81ZM86,46a2.84,2.84,0,0,1,2.4.58A2.56,2.56,0,0,1,86,46Zm.91,1.18a1.11,1.11,0,0,1,1.45.29,1,1,0,0,1-1.43-.24l0,0Zm-19.63-5a8.77,8.77,0,0,0-1.65,1.57,8.68,8.68,0,0,0-1.22,1.94,3.41,3.41,0,0,1,2.9-3.49ZM67,43.71a15.46,15.46,0,0,0-1.09,1.21,13.87,13.87,0,0,0-1,1.31A2.35,2.35,0,0,1,67,43.74Zm.52.91c-.46.42-.79.79-1.16,1.17s-.72.79-1.11,1.23a2.48,2.48,0,0,1,2.3-2.37Zm.47,1.1a10.33,10.33,0,0,0-1.38,1.09,10.73,10.73,0,0,0-1.22,1.3A2.52,2.52,0,0,1,68,45.71Zm.62.86c-.53.38-1,.72-1.4,1.06s-.88.66-1.37,1.08a2.82,2.82,0,0,1,2.8-2.12Zm.31,1.23a14.49,14.49,0,0,0-1.48,1A14.69,14.69,0,0,0,66,49.89a2.66,2.66,0,0,1,2.9-2.06Zm.66.78c-.6.31-1.08.64-1.57.94a17.34,17.34,0,0,0-1.49,1,2.84,2.84,0,0,1,3.09-2Zm.88,1.09a9.84,9.84,0,0,0-1.93.87,9.73,9.73,0,0,0-1.73,1.17,3.14,3.14,0,0,1,3.69-2ZM71,50.74a8.22,8.22,0,0,0-2.14.84A7.28,7.28,0,0,0,67.06,53a3.31,3.31,0,0,1,4-2.2Zm.22,1a11.48,11.48,0,0,0-2,.79,11.12,11.12,0,0,0-1.87,1.14,3.43,3.43,0,0,1,3.94-1.91Zm.39.92a20.15,20.15,0,0,0-2.13.79,17.44,17.44,0,0,0-2.06,1,4,4,0,0,1,4.22-1.72Zm-1.73,1.57a16,16,0,0,0-2.2,1.34,4.7,4.7,0,0,1,4.71-2.26,15.41,15.41,0,0,0-2.47,1Zm25.67,14Z" transform="translate(-24.81 -23.69)"/><path class="cls-1" d="M44.21,123h.49a1.7,1.7,0,0,0,.58.14c0,.09.14.15.37.18l.7.46a1.62,1.62,0,0,0,.45-.67h0a1.85,1.85,0,0,0,.11.45l0,0v.05s-.07,0-.08.17.12,0,.13.06V124h.05v0h0l0,0a1.6,1.6,0,0,0,.05.21v.25h0v.17l.07.12-.06.08.1.07v.22l.07.11v.18l.09.07v0h.06v0c.05.26.1.53.16.79v.09h0l.09.09.05.2-.07.18.16.18v.08l0,.1c-.35,0-.69,0-1,0l-.06,0v0h-.18l-.06,0h0v0l-.07-.13c0-.22-.09-.44-.13-.66l0,0h0v-.25l-.1-.08v-.18h.07v0l-.1-.11v0l.06-.09a2,2,0,0,0-.79-1.29c0-.08-.27-.15-.78-.24h0l-.18.07v0a1.19,1.19,0,0,0-.21,1.19l-.05.08v.08a1.15,1.15,0,0,0,.11.31h0l.08.08.12.47H44.5l.09.21v.39c0,.08.07.16.12.24v0l.06,0v.46l.07.17h0l.15.33v.34a4.88,4.88,0,0,0,.87.89,1.91,1.91,0,0,1-.39.62v.62a1.6,1.6,0,0,1,.05.21l.07.17v.16l.11.17v.33l.14.3,0,.08-.22-.08h0v.05a.3.3,0,0,1,.32.2v.25l.15.33v0h0c.33.73.66,1.07,1,1.06h.24a1.08,1.08,0,0,0,.65-1.26v-.05h.25v0a.37.37,0,0,1-.39-.32h0l-.09-.23a2.92,2.92,0,0,0-.09-.5.67.67,0,0,0-.1-.25v0h.08l.08.08.11,0,1.11-.12v.12h0c.09.23.17.46.25.68a4.09,4.09,0,0,1,.13.49l-.05.14.11.1v.33h-.12v-.08h-.07a.15.15,0,0,0,.18.11h0l.05,0h0a1.94,1.94,0,0,1-.67,1.42,1.57,1.57,0,0,1-1.53.78,3.51,3.51,0,0,1-1.34-.59c-.44-.45-.78-.84-1.1-1.19v-.22h0a3.26,3.26,0,0,1-.55-.85v0l-.26-.26-.4-.91-.19-.51v0h0a2.67,2.67,0,0,0-1-1.31l-.16-.19.36-.66,0-.53-.06,0a1.18,1.18,0,0,1,0-.59l-.08-.18v-.16l-.06-.13a6.52,6.52,0,0,1,.1-2.2c0-.16,0-.24.1-.22v-.1a.41.41,0,0,1,.15-.48.82.82,0,0,1,.57-.73c0-.09.12-.16.36-.2C43.57,123,43.77,122.94,44.21,123Zm0,9.6v.12l.13-.07-.05-.05h-.08Zm.34-.32a.21.21,0,0,1-.11.21v0l-.11,0v.07h.12c0-.11,0-.17.14-.2v0Zm-1.78-7.67h.07v-.08c.08,0,.11,0,.1-.08h0Zm2.17,7.27c0,.08,0,.15-.19.21v.08l.21-.24v0ZM43.05,124h0v0h.1v0Zm2,8.06v.12h.26v0l-.17-.09Zm.39,0h0v0l.22.09h0Zm-.79-7.91v0h.12Zm.13-.12v.13h0Zm0-.13v0h.14v0Zm.37-.4v.13h0v-.13Zm.35,0v0h0c0-.08,0-.13.07-.13v-.12h0c-.07,0-.1.09-.11.24Zm.31,1.12h0l.2.09v-.08l-.15,0Zm.4.55v.08h.12Zm2.07,7.68v0h.11v-.08Zm-1.86-7.74c.08.09.15.18.23.26v0h.07v0h0v-.08a.48.48,0,0,1-.34-.14Zm2,7.86v0h.13V133Zm.16,0v.08h.19Zm-1.85-7.58v.07h.07a.16.16,0,0,0,.16.13v.07h.08l-.27-.28Zm.58.35V126h.09c.06,0,.06,0,0-.14h0v.09h-.08v-.09Zm1.35-3a1.94,1.94,0,0,1,.85.39c.15-.3.32-.46.47-.48h0a1.56,1.56,0,0,1,.87.4l-.07.09H51l.11,0,.56.45v0h-.56c-.12,0-.15.3-.11.85H51a5,5,0,0,0,.08.66l.13.35.07.58.1.07v.2c0,.07.07.16.1.23h-.11l.1.1v.25a1.83,1.83,0,0,0,1,1.11,1.26,1.26,0,0,1-.27.51l-.05,0c0,.13,0,.21-.1.23h.05l-.09.48.11.1v.24l.08.15,0,.17-.08.14c.09.23.16.34.2.33v.25c.08.26.16.53.25.78l0,.14.16.34V132c.4.79.79,1.13,1.18,1.05l.31-.07c.56-.13.78-.57.74-1.29l-.15-.35-.06-.23.06-.14-.11-.05v-.08l.06-.14-.07-.11v-.05l-.11,0a5.76,5.76,0,0,0-.11-.79l-.17-.46h0l-.21-.48v-.06h0a1.41,1.41,0,0,0-.38-.49v0h0a.16.16,0,0,0-.17-.13h0l-.26-.19a3.37,3.37,0,0,0,.4-1v-.21l-.08-.11v0h0l-.14-.18h0l-.05-.4-.15-.39-.07-.6-.1-.06v0l-.1-.19h0l0,0H53l-.12-.44.06-.09-.09-.19-.07-.28-.36-.27-.26.05a.44.44,0,0,0-.25.17H52v0a1.77,1.77,0,0,1,.63-1h.12l.09-.14h.07a.94.94,0,0,1,.6.22.63.63,0,0,1,.43-.35H54c.7.1,1.1.28,1.17.56l.09,0v0h-.58c-.16.11-.2.3-.13.58l.07.15v.26l.14.21c.12.43.23.86.34,1.29v.24l.1.22v.25c0,.09.08.17.11.26v.13q.06.19.9.72v.12a3.88,3.88,0,0,0-.46,1h0l0,.48A1.09,1.09,0,0,0,56,129a.74.74,0,0,0,0,.21l.15.41v.34c0,.09.08.11.12.17l.09.47.07.11-.06.1.1.05h0a.7.7,0,0,1,0,.34h-.13c0,.06.07.07.18.05h0a3.22,3.22,0,0,1-.15,1.48,2.34,2.34,0,0,1-1.79,1.67l-.31.08h-.25l-.14.07a3.77,3.77,0,0,1-1.73-.23,2.93,2.93,0,0,1-1.15-1.19v0h0l-.46-1v-.28l-.13-.36v-.3c-.06,0-.17-.28-.35-.87V130l-.14-.23v-.28a2.77,2.77,0,0,0-.87-1l.39-.79a.73.73,0,0,1,.06-.41c-.06,0-.13,0-.2-.15v-.08h0c0-.1-.08-.19-.11-.29-.13-.51-.08-.79.15-.79h-.08l-.13.1-.14-.24v-.28l-.13-.21v-.08h0c-.28-.94-.51-1.41-.7-1.4h-.47l-.1.09h0v-.12a1.71,1.71,0,0,1,1.08-.94Zm-.12,1.27v.07l.3.06H49v0ZM50.17,129v0l.17.06h0a.44.44,0,0,0-.18-.1Zm.79,1.72h0l.34.08c0-.05-.11-.09-.31-.12Zm-1.05-4.89v0h0l.18-.06v0h-.18Zm-.31-1.51h.19v-.05Zm2.54,9.58V134l.1-.06v0Zm-2-8.23v.08l.1,0v0Zm-.29-1.29v0l.25,0h0v0l-.25,0Zm2.41,9.42v0h.2v0Zm-.78-4.14h0v0h.16v.07ZM52,131v0h.16v0Zm.26.08v0h.25s-.09-.08-.22-.08Zm2.81.28.1.06h0Zm-1.71-7h.2v0h-.07v0Zm1.94,7.07.1.05h0l-.1-.05Zm.06-.26v.08h.16v-.08ZM55.09,130v0l.06-.1v0Zm.54,1.57v0l.27.08v-.07Zm-.93-3.68.11-.07v-.08a1.65,1.65,0,0,1-.15.25Zm-.94-3.74a.74.74,0,0,0,.28-.35h0c-.22.24-.3.35-.28.46Zm2,7.07v0h.17c0-.05,0-.06-.14-.05Zm.33.5c0,.05.08.06.18,0v.07h.12v0Zm-.12-.39v.07l.19,0v0Zm.41.64h.17s-.06-.06-.14,0Zm-.11-.6v0h.15v-.08h-.16Zm6.28-12.63c.61,0,1,.08,1,.35h0v.12h0l.15.07a1.71,1.71,0,0,1,0,.78,1.44,1.44,0,0,1,.48.68c.1.37-.15.72-.73,1.06v0a.86.86,0,0,0,.12-.5c-.05-.17-.24-.19-.56-.07l-.33.09v.09h-.1l-.31.15h-.07l-.25,0-.14.09h-.08l-.3.25L61,122l.06.39a1.14,1.14,0,0,0,.09.3v.05h0l-.27-.07h0s.14.09.37.12h0l.05.31.07.14v.28h0l.12.73.1,0v.13l.15.4h0v.06l.06.09v.33a1.35,1.35,0,0,0,1,.79v.11a3.3,3.3,0,0,0-.4,1.14l.15.39c0,.26.06.39,0,.4h0v.2h.05v.17h0v.15l.3.79.12.73.46.27H64a1.12,1.12,0,0,0,.42-.33h0a2.91,2.91,0,0,1-1.25,1.47,1.09,1.09,0,0,1-.71-.1,1.35,1.35,0,0,1-.78.59,1.84,1.84,0,0,1-1.51-.45v0a1,1,0,0,0,.41,0l.27-.1c.26-.09.32-.36.21-.78a2.44,2.44,0,0,0-.09-.47l-.08-.14,0-.3-.35-1.15,0-.1-.18-.39v0c-.07-.25-.37-.52-.89-.79a3,3,0,0,1,.45-.78h-.08v-.49a1.53,1.53,0,0,1-.25-.57l.08-.19-.15-.07v-.41l-.23-.53.11-.08-.25-.46v-.12l-.18-.51v-.17l-.08-.14h0l-.07-.26c-.18,0-.28,0-.3-.07l-.28.21-.31.13h-.12l-.14.09h-.29l-.25.12h-.24c-.2.08-.3.12-.29.16v.17a.62.62,0,0,0,.36.43v0a1.1,1.1,0,0,1-1.19-.46,1.7,1.7,0,0,1,.06-.71.7.7,0,0,1-.46-.5V122q-.18-.68.78-1.14v0a.54.54,0,0,0-.1.39v.12c0,.18.21.24.49.16l.22-.1h.08c.25-.08.39-.08.41,0h0c0-.08,0-.12,0-.14h0l.27,0,.3-.12h.18l.52-.24h.21l1.2-.48h.13l.14-.09h.16l.53-.22.39-.14.35-.09v0H62c.52-.26.79-.47.73-.6a.69.69,0,0,0,0-.35c-.12-.28-.24-.4-.36-.35Zm-5.8,4.42H57v-.06h0Zm1.4-.66v0l.16,0v0Zm0-.08h0l.16-.05h0Zm.18-.1v0l.28-.08v0Zm.39,0Zm.07-.22h0L59,122V122Zm2.67,9.19h0l.12-.05v-.07ZM60,125.55h0l.31,0v-.07a.23.23,0,0,1-.22,0ZM61.75,131v0l.11,0v-.08Zm-1.11-5.28.23.09v-.08h-.23Zm-1-4.06v0l.22-.07v0Zm1,3.8h0l.05-.1h0Zm.15-.18h0l.06-.1h0Zm.2.55s.05.06.13,0H61Zm1,3.8.1,0h0l-.1,0Zm.18,0Zm-2.2-8.23v0l.15,0h-.15Zm1.19,4.38v0l.14.07h0ZM61.1,125V125h0l.11-.08h0Zm.47.93v.17h.12l.1-.08v0Zm1,3.84v.08h.07a.08.08,0,0,0,.11.08h0Zm-2.15-8.48v0l.2-.07h0Zm.44-.24h0l.16,0v0Zm.34-.15v0l.16-.06h0Zm.26-.14h0l.26-.1v-.07Zm.62-.35v0l.15-.06v0ZM70.9,116a2.58,2.58,0,0,1,1.35-.13V116a.66.66,0,0,0-.37.38h0a.9.9,0,0,1,.34-.33V116a1.14,1.14,0,0,1,.58.06.38.38,0,0,0,.25-.47v0l.15-.07h0a1.73,1.73,0,0,1,.26-.57h.05a.55.55,0,0,0,.06.18l-.06.11.16.26.07.57.23.51v.16h0a3.1,3.1,0,0,0,.08.42l.19.52-.06.11h0v0h0l.22.47,0,.15a.73.73,0,0,1,0,.34h-.05l-.15.11h0l-.18.12-.79.35c-.09,0-.14,0-.17-.17l-.15-.5v-.2h-.1v-.07l.1-.25-.08,0-.15-.55h0c.06,0,.08-.11.07-.23l-.1.12h0c0-.12-.18-.24-.45-.37h0v-.09h0v0h0a2.79,2.79,0,0,0-.85.26,1.4,1.4,0,0,0-.78,1.57,1.89,1.89,0,0,0,1.83,1.29l.38-.21.38-.18c.08,0,.15.08.23.35h0l.37.39c1.21.38,1.86.78,2,1.1.06,0,.14.07.26.29v.27l.11.07v.24l.09.16v.22h.09c.1.52.07.78-.06.88l.08.12a3.49,3.49,0,0,1-.72,2,2.27,2.27,0,0,1-1,1,1.09,1.09,0,0,1-.4.27l-.34.16a3.74,3.74,0,0,1-1.66.11l-.69-.3a1.08,1.08,0,0,0-.52-.18,2.87,2.87,0,0,1-.6-.74v-.17l-.07-.12v-.24h0v-.19l-.07-.1a.49.49,0,0,0,0-.3c-.18-.31-.31-.44-.41-.39l-.12,0a.61.61,0,0,0-.27.28h0v-.07a.9.9,0,0,1,.47-.91l.62-.11h0a1.44,1.44,0,0,1,.43-.49l.27-.12c.22-.1.46,0,.72.41V124h-.08c0-.09-.09-.11-.28-.07l-.11.09h0a1,1,0,0,0,.09.29l-.05.15h0l.11.08a.74.74,0,0,0,0,.14v.29h.09v.2l.11.23c-.06,0-.07.05,0,.14a1.59,1.59,0,0,0,.9.6,1.51,1.51,0,0,0,.79,0l.46-.21a1.63,1.63,0,0,0,.46-.7h.29l-.24.07v-.07a3.62,3.62,0,0,0,0-1.27,2.36,2.36,0,0,0-.79-.78c-.4-.2-.65-.28-.78-.22l-.66.26-.37.21h0v0h0l-.16-.25-.07-.26a1.45,1.45,0,0,0-.88-.37,2.8,2.8,0,0,0-.88-.35l-.52-.49v-.13l-.2-.24v-.06l-.32-.55v-.07l-.1-1.1v0h0v0a3.55,3.55,0,0,1,.88-2.06l.9-.79Zm-2.27,3.74h0l.16-.06h0Zm2,5.87h0l.2-.09h0Zm-1.53-6.54v.09h0l.1-.09v0Zm.67,2.39h0l.06-.1h0Zm1.46,4.12v.07l.3,0a.4.4,0,0,0-.3,0Zm-1.88-7h0l.21-.18v0h0c-.16.06-.22.13-.21.18Zm.14,0v.05h0l.11-.08v0Zm.65,2.48h0l.06-.11h0Zm.2-.21h0l.06-.11h0Zm.22-.3v.07l.1-.09h0Zm.13-.15h.07l.11-.1h-.07Zm-.19-3h.08l.1-.09v0h0Zm.33-.32v.08l.11-.1h0Zm.51-.35v.07l.11-.08h-.11Zm3.31,8.34v0l.16,0h.08v0l-.21,0ZM73,118h.08l.12-.18h0Zm2.13,7.06h0l.27-.09s0-.06-.13,0Zm-1.8-7.43v.07l.26-.29v-.07ZM75.47,125v.07l.15-.07h-.15Zm-1.53-8h0l.06-.1h0Zm7.74-5.91a2,2,0,0,1,1.5.07l.15.25a1,1,0,0,0-.79,0l-.2.08c-.06.21-.12.4-.17.61.06,0,.11,0,.12.08a1.4,1.4,0,0,1,0,.29l.1.14v.58l.11,0h0a6.89,6.89,0,0,1,.24,1.2l.09.19v0h.1l0,.52a1,1,0,0,0,.08.29l1,.59a5.53,5.53,0,0,1-.51,1.17l.11.08.18.64.11.79h.11l0,.33c.09.29.19.58.29.86v.14l.07.11,0,.06.1.18.12.4v.26c.16.35.38.48.66.36l.3-.12.35-.24v0a1.71,1.71,0,0,1-.91,1.09s0,.11-.19.16l-.47.19a1,1,0,0,1-.54.06,2.59,2.59,0,0,1-.56.37l-.35.14a1.09,1.09,0,0,1-1.25-.27h0l.37-.06.25-.11c.11,0,.13-.37.06-1l-.33-.53v0l.41-.06h0a.58.58,0,0,1-.55-.15c-.06-.19-.11-.38-.16-.57l0-.11-.11-.26v0l-.09-.63c-.09,0-.15-.07-.2-.28h0l0-.33-.14-.31a.71.71,0,0,0-.06-.24l-1.29.49-.06.12h-.19l-.15.12-.08,0h-.16v.2l.09.18v.14h.05c0,.25.09.51.13.79a2.21,2.21,0,0,0,.26.6l.3,1.24v.11l.11.08c0,.26,0,.51.07.79.14,0,.32.15.51.48v0l.18-.21.27-.07c0-.06,0-.13.17-.22h0a1.9,1.9,0,0,1-1.13,1.37h-.79a2.27,2.27,0,0,1-.61.5l-.11,0-.07.12h0l0,.06-.09,0s-.08,0-.11-.09h0v.08h0a1.47,1.47,0,0,1-1.26-.1h0l.83-.29a.5.5,0,0,1,.28-.35l-.12-.07.06-.13h0c0-.2,0-.41-.06-.61l-.09-.13.29-.13v0l-.3.09,0-.11-.08-.14v-.24h-.07v-.22l-.15-.19-.12-.58s0-.11,0-.16v-.1h-.12a3.27,3.27,0,0,0-.06-.42h-.06v-.11h0l-.08-.14.08-.22-.13.07v-.09h0l-.13-.24,0-.17a2.22,2.22,0,0,1-.78-.36v0a5.12,5.12,0,0,0,.38-1c-.07-.21-.12-.43-.19-.64l.1,0-.23-.44v-.22l-.09-.14,0-.15.07-.13h0l-.08-.28.25-.12v-.33c-.14.06-.22.07-.24,0l-.1-.17a3.11,3.11,0,0,0-.11-.58h-.1c-.17-.6-.44-.82-.79-.66l-.13.07-.37.35v-.09A2.76,2.76,0,0,1,75.62,114l.29-.14a.94.94,0,0,1,.62,0,1.46,1.46,0,0,1,.75-.74,1.08,1.08,0,0,1,1.39.35l-.09,0H78.2c-.24.15-.34.31-.28.5l.17.45c.17.7.23,1.06.17,1.09s.12.21.18.32,0,.23,0,.35.11.26.15.39.1.46.16.69l.14.19.65-.23.25-.12c.06,0,.1,0,.11.07a.75.75,0,0,1,.3-.31l.5-.22c.08,0,.09-.19.07-.48l-.09-.14V116h0l-.09-.19c0-.16-.09-.31-.14-.47V115l-.11-.09v-.21c-.12-.38-.25-.78-.37-1.14a2.85,2.85,0,0,0,0-.65s-.1,0-.17-.14l-.31.09-.42.37v0c0-.14.12-.33.37-.57a1.35,1.35,0,0,1,.78-.84l.13-.06.59-.09a2.21,2.21,0,0,1,.79-.63Zm-4.39,9.43h0l.06-.13h-.05a.18.18,0,0,0-.06.05Zm.88,2.77h.19l-.11,0Zm-.74-3h.08c0-.08,0-.14.1-.18v-.07Zm.21-.41v0l.1,0,.13-.19h-.05Zm-1-4.71h-.1v.08h0L77,115v-.13l-.13.05-.21.25Zm1.5,4.11h0v-.06h0l.48-.48v-.09l-.52.51v.06Zm1.51,4v.06a1.51,1.51,0,0,1,.79,0h0c0-.09-.29-.12-.78-.11Zm-2.3-8.84h.08l.13-.2h0Zm1.37,4.21h0l.06-.12h0Zm.21-.28h0a1.83,1.83,0,0,1,.39-.49h0c0-.06,0-.11.18-.17s.06-.19.25-.33h0c-.55.49-.83.84-.81.93Zm.37-.21h0l.07-.12h0Zm1.17-1.07v0l-.7.58v0h0l.89-.67h.06s.15-.2.45-.43v-.07Zm-.38-4.58a.35.35,0,0,1-.18.26h0l.09,0,.11-.27Zm0,.5v0l.17-.08v0Zm.2-.94h0l.07-.11v-.06Zm2.53,9h0c0,.07.14.07.29,0h0V121a.53.53,0,0,1-.33,0Zm.46.12h.12l.07-.11h-.07Zm.13.24.15.08v0l-.09-.05Zm-1.35-5.64h.08c.16-.15.25-.26.24-.33h0Zm1.74,5.39v.08c.06,0,.1,0,.13.12l.09,0v-.08Zm.29.5v.13c.08,0,.13,0,.16.11l.27.11.06-.1a.91.91,0,0,1-.44-.22l-.05,0Zm0-.35v0l.26.11h0Zm-1.5-6v.09a1.36,1.36,0,0,0,.29-.49h0l-.22.37Zm1.83,6.22h.23v0l-.22,0Zm.25.57v.12h0l-.07-.11Zm.25-.46v.09l.43.06v-.07h0a.12.12,0,0,0,.18.11h0a1,1,0,0,0-.67-.25Zm.13.44v.12h.08l-.07-.1Zm3.78-13.81.12,0q.41-.15,1.11.48l.17.24h-.06a.64.64,0,0,0-.69-.11.43.43,0,0,0-.26.36l.4.79s-.06,0,0,.14h-.1l.05.19h.06v-.23h.07c.79,1.87,1.26,2.79,1.5,2.71l.14.21a1.13,1.13,0,0,1,.59.2v0a3.46,3.46,0,0,0-.3.89c.63,1.34,1.26,2.68,1.89,4a.42.42,0,0,0,.45.22l.12,0c.15,0,.29-.19.4-.45h.05c-.3.78-.66,1.21-1.08,1.34l-.57-.14h-.08a1.8,1.8,0,0,1-.6.53l-.17,0a1.37,1.37,0,0,1-1.27-.47h0a1.89,1.89,0,0,0,.75,0,.28.28,0,0,0,.15-.39,3.05,3.05,0,0,0-.29-.61l.19-.23h0l-.16.14h-.07l-.13-.48c-.13,0-.34-.32-.6-1.1h-.06v0l-.41.13-.45.12-.11.09L89,117c0,.06-.07.14-.29.24a14.56,14.56,0,0,1,.09,2.09c0,.2.08.41.13.6a.29.29,0,0,0,.38.13.73.73,0,0,0,.36-.31v.09a2.12,2.12,0,0,1-.61,1l-.17.06a1,1,0,0,1-.78-.1h0a1.26,1.26,0,0,1-.57.55l-.17.08c-.7.08-1.09,0-1.18-.38a1,1,0,0,0,.57-.05c.31-.12.45-.43.46-1h0v-.11c0-.38.07-.75.1-1.12h-.06V118h0v-1.39h-.06a1.47,1.47,0,0,0,0-.59,2,2,0,0,0-.68-.52,2.29,2.29,0,0,1,.44-.83l.18-.51a.61.61,0,0,1,.26-.66v-.2h-.13c0,.14,0,.23-.08.25h0v-.09a14.17,14.17,0,0,0-.1-2.52v-.34c-.1-.37-.3-.5-.6-.38l-.32.31v0c.18-.65.4-1,.69-1.13,0-.07,0-.12.17-.18v0l.09,0v.08h.08v-.08a1.44,1.44,0,0,1,1.2.11c0-.56.29-.88.55-1Zm-1.5,10.1v0h0l.11-.08h0Zm.23-.13v0h.05l.14-.1v0h-.08Zm.26-.19v.09l.11-.1h-.11Zm-.53-5v.12c0-.06.09-.13.14-.18h0Zm-.46-3.14h0l.12-.23h0c-.11.11-.15.17-.15.21Zm.78,2.83v.08l.58-.66h-.08Zm.79-.69c.06.49,0,.78-.1.78h0l.05.65.07.1a14.74,14.74,0,0,0,0,1.88v.06c.09,0,.15,0,.17.07h.08l.14-.09.84-.22s.07-.11.23-.16l-.72-1.67v-.13a5.25,5.25,0,0,1-.72-1.34ZM87,109.39v0h0l.12-.1v0h0Zm1.32,2.45v.2h.08v-.18Zm.1.07h0c.11-.1.16-.18.16-.24v0c-.12.1-.19.2-.17.25Zm.38-.1.15.06a1,1,0,0,0,.23-.12v.08l.13,0c0-.08-.1-.09-.24,0v-.1l0,0h0Zm.07-.42h0l.13-.14v-.09h0Zm.2-.38v.08a1.87,1.87,0,0,0,.39-.53h0a1,1,0,0,0-.29.4Zm.34.74.16.09v-.11Zm.33.07.15.08v-.05l-.1,0Zm1.84,6.08V118h.09v-.12Zm-1.58-6h.18c0-.06-.07-.07-.14,0Zm1.69,5.92h.08v-.11Zm.2.37.16.08v0l-.11,0Zm.16.12v.05h.19l0-.12Zm0-.69h0l.27-.17v-.08c-.19.08-.3.16-.26.23Zm.3.79.18.16h.07v-.12h-.18Zm-.25-1.1v.08l.12-.08v-.07Zm1.11,1.36v0a.33.33,0,0,0,.38.11Zm.26-12a1.82,1.82,0,0,1,1.57.59l.07.12h0a1.51,1.51,0,0,0-.6,0c-.19,0-.26.26-.19.62l.1.23-.06.1.22.17a1.67,1.67,0,0,0,.11.41,5.92,5.92,0,0,1,.78,1.39v0a3.22,3.22,0,0,1,.5.89v0h0c.15.32.3.63.45,1v.13l.58,1h.08a21.81,21.81,0,0,1-.15-2.55c-.09-.52-.09-.83,0-.92v0h0v-.26h-.06v0a.51.51,0,0,1,.05-.32v0l-.08-.15c0-.24,0-.36.07-.37l-.09-.2c0-.17,0-.27.1-.29l-.12-.11,0-.16,0-.18-.06,0v-.21l-.08-.34h.08v0L96.4,107h0l-.17.17H96v0q.34-1,.93-1.08h.17a.44.44,0,0,1,.32.06c0-.09.07-.15.21-.17h.08c.41-.08.64,0,.69.13l.11,0v0l.1.11.12-.06.47.5v0h-.06a.48.48,0,0,0-.31-.08h-.09q-.63.12-.42,3v.57l.07.12a2.09,2.09,0,0,0,0,.56l.08.12v0a1.87,1.87,0,0,1,.6.65c-.08,0-.18.16-.31.49-.21.17-.3.52-.27,1.06a.46.46,0,0,1-.06.28l.1.06a.65.65,0,0,1-.07.41l.08.16v1.19l.08.16V116l-.21,0v0c.16,0,.25,0,.27.08l0,.14.09.2v0h0c.12.47.35.7.7.73.08,0,.13,0,.14.07l.48-.28v0a1.19,1.19,0,0,1-.38.66,2.68,2.68,0,0,1-.84.39l-.56,0v0h-.05l-.23-.09-.32.23h-.31l-.11.07a2.66,2.66,0,0,1-1.15-.23l-.11.06-.47-.28H96a.63.63,0,0,0,.53-.66v-.07L96,116.1h0l-.27-.42v-.09h0c-.08,0-.18-.13-.29-.46h.12v0c-.13,0-.32-.24-.56-.78v-.17l-.13-.19v-.21c-.14,0-.23,0-.27-.2l-.74-.46c-.12,0-.19,0-.2-.07v-.08a2.53,2.53,0,0,0,.18-1.15v0c-.11,0-.34-.33-.68-1.08v-.06h0c-.05,0-.14-.14-.26-.45a4.07,4.07,0,0,1-.49-.86l.06-.11v-.08h-.14V109l-.33-.24-.14-.21h-.19a1.11,1.11,0,0,0-.53.34h0v0c.23-.63.48-1,.73-1.07s.22-.21.32-.32a1.28,1.28,0,0,1,.88.13,2.57,2.57,0,0,1,.48-1Zm-1.34,1.45v0l.16-.06V108h0Zm1.61,3v0h.08v-.12ZM93.15,108l.11.06h0l-.1-.06Zm.79,2.89v0h.13c0-.06,0-.1.1-.12h0Zm-.23-2.83c0,.06.05.07.14.05h.05v0Zm.68,2.23v.08c.14,0,.22-.1.22-.19h0v.06h0v0ZM95.81,115H96V115h-.14ZM94,108.18h.17v-.05h-.13Zm.6,1.94v.08l.11-.07V110Zm.15-.12h.13v-.08ZM98,115.42h0l.4.07h0v0l-.36-.07Zm-1.15-6.76v0l.05-.1v-.07Zm.07-.23v.08l.19-.25h0Zm.28-.23v0h0l0-.19h0c0-.07-.06,0,0,.12Zm.16.14v0h.12v-.09Zm.19-.61-.06.1v0h.08l0-.14Zm.12-.06h0l.06-.11h0Zm.24.25h0l.16-.06v-.08H98ZM105.4,105h0s.07.09.15.09l.33,1.17a.53.53,0,0,1-.11.5v0h0l.06.06h0v-.14l.09.09,0,.34c.1.35.2.7.29,1.06s.12.48.17.72,0,.34-.07.33l-.31-.06h-.15l-.31,0h-.3c0-.13-.1-.26-.14-.39s-.05-.33-.08-.49L105,108a.39.39,0,0,1,.06-.25c.06-.07-.15-.11-.19-.26a.7.7,0,0,1,0-.29c-.06-.26-.42-.52-1.07-.78h-.25c-.52,0-.83.15-.91.37h0a10.59,10.59,0,0,1,.29,1.86c.07,0,.13.09.2.28s0,.31,0,.46l.09.08h0l.06,0v.3c.08.33.21.49.38.48l.29-.12.44.08c.22-.08.27-.3.19-.67a.9.9,0,0,0-.39-.47V109h0c.55.15.86.4,1,.75l.09.16v0a1.11,1.11,0,0,1,0,.84.2.2,0,0,0,.19.21c.09.18.17.37.25.55,0,.59-.18.86-.59.85H105a.84.84,0,0,0,.2-.63c0-.06-.17-.12-.48-.17h-.11l-.26.05,0-.05h0c-.33,0-.47.11-.44.24l.12.18c.06.29.11.58.18.86h0v.51h.08l.06.25v.25l0,0v.36c.06.15.11.31.16.46h0c.06.13.14.25.21.38l-.06.08.07.13v.09l.12.19-.06.09a.85.85,0,0,1,.26.41l.58.19a1.74,1.74,0,0,0,1.32-.66l-.07-.47,0,0v0a4.5,4.5,0,0,0-.08-.51l-.06-.05v-.28l-.15-.35.05-.08-.11-.14v-.12h0v0l.44.12.1-.08.41.08h.22l.05,0h0v.3l.16.37v.45l.13.26v.13a.16.16,0,0,1-.17.15h0v.09l.17-.11a2.83,2.83,0,0,1,.11.31.94.94,0,0,1,0,.16c.06.31-.23.79-.87,1.57a3,3,0,0,1-1.12.41l0,0-.17,0h-.16a2.86,2.86,0,0,1-1.74-.66c-.14.2-.26.3-.34.3h-.2a2.72,2.72,0,0,1-1.47-.59l-.09-.08-.17-.16v0a1.46,1.46,0,0,0,.57.21h.2a.47.47,0,0,0,.2-.56,1,1,0,0,0-.08-.15l.07-.09-.14-.2v-.29l-.12-.33.06-.08-.15-.13-.1-.53-.06-.11a2.38,2.38,0,0,0-.06-.37l0-.17v0l-.12-.15-.13-.66,0-.17-.1-.24v-.17s-.08,0-.1-.11V112l-.09-.08h.07c-.14,0-.3-.13-.49-.42l0-.09h-.33l.39-.83a1.63,1.63,0,0,0-.1-.41v-.24l-.07-.12,0-.48c-.06,0-.09,0-.11-.12s-.07-.38-.1-.57h-.06v-.37l-.12-.15v-.29a4.4,4.4,0,0,0-.35-1.08l-.68-.12-.3.35h0v0c-.09-.34.2-.79.89-1.2l.36,0a.93.93,0,0,1,.7.29,2.4,2.4,0,0,1,1-.63h.56l.4-.1c0,.07.2.11.53.12l1.2.48a1.61,1.61,0,0,0,.57-.84Zm-3.76,6v.09h0l.1,0h0Zm.17.65v0h.12v-.08Zm-1.28-5.5v.16h0l.07-.1h.19v0h-.19v.05Zm1.8,4.4a.25.25,0,0,1-.24.18v.08l.33-.23v0Zm-.13.63h.06l.14-.08h0c-.14,0-.21,0-.2.08Zm.42-.85v.08l.11-.05v-.09Zm.14-.1.09.08H103l-.09-.08Zm.16-.22h.13v-.07Zm-1.06-4.57s0,.08.14.07h0v0Zm1.13,4.3h0l.09.07,0-.08H103Zm2.35,7.67h0l.16-.12v0h0Zm-2.6-11.61.1.08h0l-.1-.08Zm2.83,11.45h0l0-.08h0Zm.41-.32h0l.06-.08h0Zm-2.46-10.84v0l.26.08h0v0l-.25-.08Zm2.88,10.36v0h0l.21-.07v-.08Zm-1.39-6v0l.11-.2v0a2.36,2.36,0,0,0-.14.24Zm1.71,5.9h0l.06-.08h0Zm-2.2-9.7.22.18v-.09l-.18-.09Zm2.45,9.55h0l.09-.12h0Zm-1.75-8.5h0l.07-.09h0Zm2.08,8.27h0l.06-.07h0Zm.23-.26v.08h.1v0Zm.23-.17-.05.07h.07l0-.11Zm-1.93-7.75c0,.06.15.13.39.22h0v0Zm-.09-1v.12h.07v-.12ZM65,122.12a1.55,1.55,0,0,1,.74-.06.66.66,0,0,1,.5.28h0l-.3.06a2,2,0,0,0,.36-.05l.1.21,0,.15a1.21,1.21,0,0,1-.21.87,1.64,1.64,0,0,1-.18.48v0l.36.25a1.51,1.51,0,0,0-.45.29h0v.06a1,1,0,0,0,.23-.13h.09l.06,0h.07a.09.09,0,0,1,.07-.08,5.32,5.32,0,0,0,1,.5h0a1,1,0,0,0,.12-.48l-.07-.44v-.11l-.13-.16v-.14l-.1-.36h0a.06.06,0,0,1,0,0l.51-.2.1-.06h.1l0,.15h0v0l0,.11v.11l.09.26a3.54,3.54,0,0,1-.09,1.65v.17a.73.73,0,0,0,.33.08l.13.2a.94.94,0,0,1-.18.72l-.16.18h0a.55.55,0,0,1-.43-.18.14.14,0,0,0-.09,0h0a1.48,1.48,0,0,1-.45.48,1.16,1.16,0,0,1-.37.33.69.69,0,0,1-.26.19,2.46,2.46,0,0,1-1.23.1,1.44,1.44,0,0,1-.64-.41l-.14-.22-.08-.35-.06-.24,0-.35a.32.32,0,0,1,.1-.25c.09-.11,0-.08.19-.13h0c-.1,0-.16,0-.17,0v-.08h0v.05h0a0,0,0,0,1,0-.07l-.06-.07.08-.14h0a2.48,2.48,0,0,1,.27-.65h0a1.65,1.65,0,0,1-.61-.67v0c-.1-.44-.12-.68-.08-.69h0A1.35,1.35,0,0,1,65,122.12Zm-.24,3.35Zm.08-.14s0,0-.08.07h.11a.05.05,0,0,1,0-.05h0Zm-.29-1.19Zm.35,1.15h0l.14-.06.42-.25h0Zm-.54-2.23Zm.06-.37h.16v0Zm.93,3.21a.72.72,0,0,0,.56.53.86.86,0,0,0,.32,0l.19-.08c.35-.21.5-.39.46-.54a1.66,1.66,0,0,1-.69-.34,2.2,2.2,0,0,0-.51-.35l-.17-.06c-.09,0-.15.25-.18.65ZM65,124.11h0l.47-.06h0a1.15,1.15,0,0,1-.49.07Zm-.37-1.44Zm.08.19Zm.19.3.06.18c.07.17.12.26.15.24l.23.13h.07a1.39,1.39,0,0,0,.21-.84h0c0-.13-.18-.19-.41-.17s-.25.15-.26.28,0,.09,0,.16Zm.79,1.7-.18,0h0l.19-.08a.09.09,0,0,0,.08-.11ZM65,122.69Zm0-.06Zm.18,0Zm1.33,4.65h0l0,0h0Zm-.82-3.14Zm-.4-1.51Zm1.29,4.6h0a.28.28,0,0,1,.09-.1h0c-.06-.07-.09,0-.09,0Zm-.62-2.44Zm.73,2.27Zm-.78-3Zm.19.63h0l.15-.06h0Zm-.5-2.13Zm1.3,4.25h0v0h0Zm-1.17-4.28h0Zm.73,2.27h0l.1-.11h0c-.09,0-.12,0-.11,0Zm.53,1.9h0v0h0Zm.07-.08h0v-.05h0Zm.17-.25Zm.25-.37h0l.1-.11h0c-.09,0-.12,0-.11,0Zm.2-.3Zm.14-.15h0c.07-.06.1-.1.1-.12h0c-.07,0-.1,0-.1,0Zm.18-.22h0l0-.08h0Zm-.37-1.71h0l.06,0h0Zm.16-.11h0s.08-.06.07-.08h0Z" transform="translate(-24.81 -23.69)"/><path class="cls-2" d="M116.56,132.2a17.63,17.63,0,0,1-10.66,13.89.52.52,0,1,1-.4-1l.45-.2a16.57,16.57,0,0,0,9.57-12.82,3.55,3.55,0,0,0-.13-1.38,75,75,0,0,1-2.68-29.3,5.92,5.92,0,0,0-1.45-4.66,6.28,6.28,0,0,0-4.76-2h0c-11.6,0-22.42,4.71-32.89,9.27-12.82,5.57-24.94,10.84-35.69,5.38a10.21,10.21,0,0,1-4.27-4.57h0v-.07a9.43,9.43,0,0,1-.78-2.64c-.4-2.85,2.46-5.56,2.65-5.35s-2,2.79-1.58,5.21v.13a8.31,8.31,0,0,1,.79-1.84,7.47,7.47,0,0,1,.63-.85,2.55,2.55,0,0,1,.78-.66,6.35,6.35,0,0,1-.53.91,8,8,0,0,0-.46.93,6.58,6.58,0,0,0-.52,3.45,6.64,6.64,0,0,1,.53-1.69,6.72,6.72,0,0,1,.47-.78c.27-.37.6-.66.65-.63a4.82,4.82,0,0,1-.36.84c-.11.25-.21.52-.3.78a5.46,5.46,0,0,0,0,3.25,5.36,5.36,0,0,1,.2-1.43,4,4,0,0,1,.29-.67c.18-.32.42-.6.47-.56s-.07.37-.15.72-.08.45-.11.69a4.15,4.15,0,0,0,.57,2.64h0l.18.15a5.8,5.8,0,0,1,0-.59,3.07,3.07,0,0,1,.07-.53c0-.26.16-.5.22-.49s.08.28.13.52.11.49.11.49a3.43,3.43,0,0,0,.69,1.34,2,2,0,0,1,0-.35c0-.21.06-.42.12-.43s.14.2.23.37l.18.33a2.23,2.23,0,0,0,1.08.93h0a21,21,0,0,0,9,1.57c7.64-.27,15.87-3.85,24.44-7.57,10.57-4.59,21.49-9.35,33.3-9.35h0a7.35,7.35,0,0,1,5.55,2.36,7,7,0,0,1,1.71,5.5,74.13,74.13,0,0,0,2.52,28.95A4.62,4.62,0,0,1,116.56,132.2Zm-14.09-3,.67,2.93c-1-.52-20.52,7.75-22.25,9.81a52.81,52.81,0,0,0-10.27,8.83l-.32-.57a.47.47,0,0,1-.24.26l-.11.05c-6.33,3-10,6.91-11.35,12.07a7.4,7.4,0,0,0,0,3.68,51,51,0,0,1,1.49,18.48,3.44,3.44,0,0,0,2.36,3.7,18.53,18.53,0,0,0,6.62.41,25.61,25.61,0,0,1,9.67.83A6.19,6.19,0,0,1,82.83,193a2.78,2.78,0,0,1,.11.5,3.9,3.9,0,0,0-.66-2.07,5.11,5.11,0,0,0-.51-.64c-.26-.3-.61-.55-.59-.61a1.46,1.46,0,0,1,.79.32,3.39,3.39,0,0,1,.66.54,4.78,4.78,0,0,1,1.12,2.06,3.55,3.55,0,0,0-.21-1.3s-.08-.22-.17-.44-.21-.44-.17-.49.26.09.44.26a2.43,2.43,0,0,1,.34.38,4.21,4.21,0,0,1,.49.94l-.08-.59s-.08-.55,0-.59.43.37.43.37l.37.52c.25-.25.49-.5.73-.78A26.08,26.08,0,0,1,79.14,184a.52.52,0,0,1,0-.47.51.51,0,0,1,.35-.32,39.73,39.73,0,0,0,9.77-3.82h0a1.59,1.59,0,0,0,.28-1.08v-.3c0-.16-.08-.33,0-.37s.2,0,.32.19a1.23,1.23,0,0,1,.22.29,2.39,2.39,0,0,1,.15.37,2.12,2.12,0,0,0,.18-1.42,4,4,0,0,0-.11-.44c-.07-.22-.2-.44-.15-.48s.26.08.44.27a2.45,2.45,0,0,1,.59,1.36,1.81,1.81,0,0,0,.06-1.8,2.66,2.66,0,0,0-.29-.45c-.17-.22-.41-.4-.38-.45s.32,0,.58.16a2.32,2.32,0,0,1,.48.4,2.3,2.3,0,0,1,.49.84c.21-1.37-1.12-2.43-.93-2.64s2.19,1.4,1.93,3c-.51,3.14-7.06,5.61-12.56,7.19a24,24,0,0,0,6.61,6.78.58.58,0,0,1,.24.37.54.54,0,0,1-.12.42,23.25,23.25,0,0,1-4.88,4.24l-.09.07A31.59,31.59,0,0,1,78.44,198,13.26,13.26,0,0,0,91.63,196a3,3,0,0,0,1.17-2.63,43.6,43.6,0,0,1,1.41-14.78,5,5,0,0,0-.79-4.24c-3-4-9-6.28-15.13-5.73-7.49.63-15.22,1-17.12-3.47-2.36-5.55,5.71-10.95,5.84-10.7s-5.67,5.15-5.29,9.08a16.9,16.9,0,0,1,3-5.22,12.24,12.24,0,0,1,1.17-1.22,5.27,5.27,0,0,1,1.34-1c-.36.45-.74.89-1.14,1.31-.57.66-1.06,1.36-1.06,1.36a15.91,15.91,0,0,0-2.71,6.39l0,.09a23,23,0,0,1,2.85-5.44s.45-.63,1-1.21a5.58,5.58,0,0,1,1.1-1.07,11.94,11.94,0,0,1-.87,1.35c-.43.66-.83,1.34-.83,1.34a21.17,21.17,0,0,0-2.4,5.87l.16.12a22.75,22.75,0,0,1,2.42-4.8s.38-.56.78-1.09a4.37,4.37,0,0,1,.95-1,9.23,9.23,0,0,1-.69,1.23c-.36.6-.69,1.21-.69,1.21a21.65,21.65,0,0,0-1.91,5l.25.12a13.74,13.74,0,0,1,1.47-3.52,7.9,7.9,0,0,1,.56-.78c.3-.36.64-.75.69-.72a3.58,3.58,0,0,1-.41.94c-.22.45-.41.91-.41.91a12.66,12.66,0,0,0-1,3.53l.35.1a10.4,10.4,0,0,1,.73-2.14s.14-.27.3-.53.36-.49.41-.46,0,.33-.09.63l-.14.59a8.55,8.55,0,0,0-.25,2.13,2,2,0,0,1,.24,0l.41-.88s.29-.59.41-.56.09.72.09.72l-.06.85c.13,0,.24,0,.36,0l.28-.43s.22-.31.34-.28.17.42.17.42v.37a61.91,61.91,0,0,0,9.13-.26c.35,0,.7-.05,1.06-.07,6.12-.21,11.93,2.16,15,6.21a6,6,0,0,1,1,5.14,42.58,42.58,0,0,0-1.37,14.43,4.06,4.06,0,0,1-1.57,3.54,14.63,14.63,0,0,1-9,3.14,15.18,15.18,0,0,1-6.39-1.44.49.49,0,0,1-.31-.48.53.53,0,0,1,.32-.48,31.16,31.16,0,0,0,4.76-2.48,1.94,1.94,0,0,0,.26-1.76,5.18,5.18,0,0,0-3.4-2.68,24.79,24.79,0,0,0-9.31-.79,19.12,19.12,0,0,1-7-.45A4.5,4.5,0,0,1,59,184.56a49.77,49.77,0,0,0-1.46-18.06,8.77,8.77,0,0,1,0-4.2c1.4-5.5,5.34-9.7,12-12.81a.39.39,0,0,1,.26,0l-3.55-6.21a45.13,45.13,0,0,1-13.9,2.56,23.2,23.2,0,0,1-13.15-3.77,6,6,0,0,1-2.73-5.36c.57-9.18-1.57-19.64-6.59-32.08a7.72,7.72,0,0,1-.59-3c.07-3.75,2.47-7.21,7.16-10.28a.52.52,0,0,1,.73.14h0a.54.54,0,0,1-.16.74l-.08,0c-4.32,2.86-6.55,6-6.6,9.36a6.63,6.63,0,0,0,.52,2.6c5.06,12.57,7.24,23.2,6.66,32.53a5,5,0,0,0,2.26,4.42c12.31,8.15,28.51.79,42.8-5.77,9.94-4.54,19.33-8.83,26-7.12,2.1.54,3.52,1.76,3.92,3.48.87,3.55-4.32,8.68-4.52,8.48s2.22-2.85,3.2-5.44a12.18,12.18,0,0,1-1.28,2,10.43,10.43,0,0,1-.92,1,3.46,3.46,0,0,1-1.07.79,9.62,9.62,0,0,1,.85-1.06c.42-.53.79-1.1.79-1.1a10.61,10.61,0,0,0,1.57-4.35,11.17,11.17,0,0,1-1.75,3.35,11,11,0,0,1-.79.88,3.06,3.06,0,0,1-.92.72,6.75,6.75,0,0,1,.69-1c.34-.49.65-1,.65-1a10.62,10.62,0,0,0,1.33-3.69l-.21.52a9.41,9.41,0,0,1-1.79,2.78,3.61,3.61,0,0,1-.79.65,5.71,5.71,0,0,1,.56-.91c.28-.44.52-.88.52-.88a10.49,10.49,0,0,0,.78-1.94c.09-.33.17-.67.23-1a1,1,0,0,0,0-.25,6.36,6.36,0,0,1-1,2.2,5.88,5.88,0,0,1-.52.6c-.28.28-.6.5-.65.45s.2-.36.39-.7a7.59,7.59,0,0,0,.36-.68,5.5,5.5,0,0,0,.53-2.36,3.67,3.67,0,0,1-.6,1.12,2.38,2.38,0,0,1-.35.36c-.2.16-.42.28-.46.24s.09-.26.19-.48.2-.43.2-.43a3.06,3.06,0,0,0,.24-1.37h-.12a2.45,2.45,0,0,1-.41.6s-.37.3-.46.2,0-.48,0-.48a2,2,0,0,0,0-.49,16.57,16.57,0,0,0-4.28.07ZM91.07,178v0ZM62.74,48.2c-.24-.69.19-1.05.67-1.26l-.13-.32a3.83,3.83,0,0,1,.88-4.3c4.71-4.32,10.49-7,17.71-8.27a.55.55,0,0,1,.55.26.53.53,0,0,1,0,.59,56.53,56.53,0,0,0-5.29,7.58c4.54-.78,8-.58,10.66.56a2.45,2.45,0,0,1,1.44,1.69c1.45,6.76,4.86,14,10.41,22.08a6.89,6.89,0,0,1,1.1,4.71c-.79,7.07-4.59,12-11.26,14.5a.54.54,0,0,1-.18,0,.53.53,0,0,1-.54-.52.54.54,0,0,1,.35-.5l.3-.13C95.58,82.45,99,78,99.7,71.37a6,6,0,0,0-.92-4l-.4-.58A17.56,17.56,0,0,0,91.27,62l-.7-.23A12.65,12.65,0,0,0,89,61.31a15,15,0,0,0-1.57-.3,3.72,3.72,0,0,1-.74-.14,4.21,4.21,0,0,1,.71,0c.53,0,1,.1,1.57.18a17.5,17.5,0,0,1,8,3.55C92.38,57.53,89.52,51.05,88.21,45a1.39,1.39,0,0,0-.82-1c-2.55-1.1-6.21-1.21-10.89-.33-.21.38-.41.76-.59,1.15,2.93.91,7.76,2.88,11.1,6.56a.51.51,0,0,1,.11.53.54.54,0,0,1-.4.34c-5.08.94-11.19,2.69-14.5,4.91l.07,0s.32.21.29.34-.43.17-.43.17l-.78.08-.06,0,.84.28s.79.27.72.39-.84.12-.84.12h-1.5c.83.24,1.67.46,2.53.63l.7.16c.36.07.72.16.71.22s-.39.11-.79.12-.78,0-.78,0a29.09,29.09,0,0,1-3-.25h0a28,28,0,0,0,4.81.78l1.19.08a5.38,5.38,0,0,1,1.2.13,4.06,4.06,0,0,1-1.25.23c-.63.07-1.27.08-1.27.08a28.28,28.28,0,0,1-4.78-.28,22.59,22.59,0,0,0,6.28.79s.74,0,1.48-.07a9.24,9.24,0,0,1,1.49-.07,5.32,5.32,0,0,1-1.51.43c-.79.15-1.57.23-1.57.23a22.49,22.49,0,0,1-5.56-.13c2.19,1,9.79.26,9.78.52s-3,.6-4.24.7c-3.42.25-6.38.48-7.07-1.33a3.26,3.26,0,0,1,.24-2.87c1.87-3.34,9.51-5.9,16.37-7.27A26.07,26.07,0,0,0,75,45.69a.52.52,0,0,1-.37-.63.3.3,0,0,1,0-.1,53.75,53.75,0,0,1,6-9.56,32.34,32.34,0,0,0-15.82,7.75,2.77,2.77,0,0,0-.62,3.14,32.42,32.42,0,0,1,3,11,7.06,7.06,0,0,1,2.61-2.51,6.6,6.6,0,0,1,1.29-.53,3.05,3.05,0,0,1,1.37-.17c0,.07-.68.23-1.31.53a7,7,0,0,0-1.18.69,6.38,6.38,0,0,0-2.67,4.55h0v.25c-.06,2.42.91,2.95,1.64,3.14,1.64.42,4.38.24,7.54,0,6.87-.46,15.4-1,19.64,4a9.69,9.69,0,0,1,1.35,2.07h0v.07A7.94,7.94,0,0,1,98,70.84h0a8,8,0,0,1,.2,2.44c-.39,4.44-4.1,6.63-4.28,6.4s2.15-2,3-4.83a8.88,8.88,0,0,1-2.52,2.92,4.28,4.28,0,0,1-1.26.73,13.38,13.38,0,0,1,1.08-1,14.53,14.53,0,0,0,1-1.1,8.21,8.21,0,0,0,1.64-3.79,8.06,8.06,0,0,1-1.69,2.73,9,9,0,0,1-1.09,1,4.13,4.13,0,0,1-1.26.71c0-.06.56-.5,1.08-1a12.4,12.4,0,0,0,1-1.09,7.77,7.77,0,0,0,1.57-5.24h0a7.29,7.29,0,0,1-3,5,3.07,3.07,0,0,1-1.17.62s.52-.46,1-.93a8.29,8.29,0,0,0,.88-1,6.71,6.71,0,0,0,1.35-4.71,6.45,6.45,0,0,1-1.69,3.55,6.38,6.38,0,0,1-.94.78,2.77,2.77,0,0,1-1.1.54,10.52,10.52,0,0,1,.92-.85,8.5,8.5,0,0,0,.78-.91,5.8,5.8,0,0,0,1.09-4.11,5.48,5.48,0,0,1-1.42,3,5.38,5.38,0,0,1-.86.72,2.29,2.29,0,0,1-1,.45c0-.07.44-.37.84-.79a6.49,6.49,0,0,0,.7-.78,4.8,4.8,0,0,0,.79-3.8h0a4.43,4.43,0,0,1-1.16,3.14,4.29,4.29,0,0,1-.74.61c-.41.26-.86.39-.88.33s.37-.31.69-.64a4.35,4.35,0,0,0,.57-.7,3.65,3.65,0,0,0,.56-2.8,3.66,3.66,0,0,1-.79,2,3.3,3.3,0,0,1-.59.59c-.33.25-.72.4-.75.34s.28-.31.53-.62a3.8,3.8,0,0,0,.41-.66,3,3,0,0,0,.26-2.15,3.74,3.74,0,0,1-.63,1.67,2.62,2.62,0,0,1-.46.48c-.25.22-.54.34-.58.3s.18-.3.34-.55a5.44,5.44,0,0,0,.27-.54,2.74,2.74,0,0,0,.16-1.74,2.35,2.35,0,0,1-.49,1.09,1.8,1.8,0,0,1-.38.35c-.22.16-.47.22-.5.17s.14-.23.26-.43a3,3,0,0,0,.21-.4,1.82,1.82,0,0,0,.12-.86.84.84,0,0,0-.08-.3,2,2,0,0,1-.4,1,1.57,1.57,0,0,1-.38.35c-.22.14-.46.21-.5.15s.15-.23.26-.41a2,2,0,0,0,.19-.39,1.38,1.38,0,0,0,0-1,1.29,1.29,0,0,1-.25.63,1.4,1.4,0,0,1-.33.31c-.2.11-.41.14-.43.08s.11-.19.19-.35a1,1,0,0,0,.12-.32.78.78,0,0,0-.18-.78,1.49,1.49,0,0,1-.23.57.8.8,0,0,1-.2.21c-.12.08-.26.12-.3.07s0-.17,0-.28a1.18,1.18,0,0,0-.18-.74A39.42,39.42,0,0,0,81.1,64h-.32l.24.72L81,64.17h.24l.87.13s.54.08.55.21-.47.31-.47.31l-.59.2-.38.13.2.6c-5.25-.31-12.68,1.57-14.66.07C63.91,63.77,66,57.21,62.74,48.2Zm32.84,20ZM88.81,83.15a20.42,20.42,0,0,0,2.69-1.62s.31-.24.61-.5.58-.55.54-.6-.4.14-.79.32l-.72.37a18.56,18.56,0,0,1-2.69,1.11l-.39.13.39,1a1.25,1.25,0,0,0,.36-.15Zm-.49-1.31a17.88,17.88,0,0,0,2.52-1.51s.3-.22.58-.47.55-.51.52-.56-.39.12-.74.29l-.69.34a18,18,0,0,1-2.52,1c-.15,0-.28.11-.42.15l.38,1a1.37,1.37,0,0,0,.37-.17Zm-.48-1.3a19.87,19.87,0,0,0,2.35-1.39s.29-.21.56-.45.53-.49.49-.54-.37.11-.71.27l-.66.3a16.39,16.39,0,0,1-2.36.9l-.44.14.37,1Zm-.49-1.3A20.58,20.58,0,0,0,89.52,78s.27-.19.53-.41.5-.47.46-.52-.36.09-.68.23l-.63.28a17.16,17.16,0,0,1-2.18.78l-.47.15.36,1Zm-.49-1.32a17.25,17.25,0,0,0,2-1.15s.26-.18.5-.39.47-.43.44-.48-.35.07-.64.19l-.61.26a17.8,17.8,0,0,1-2,.69l-.49.15.35,1a1.82,1.82,0,0,0,.47-.22Zm-.48-1.3a16.28,16.28,0,0,0,1.81-1,4.29,4.29,0,0,0,.48-.36c.23-.19.45-.4.41-.45s-.32,0-.61.16l-.57.21a17.57,17.57,0,0,1-1.86.61l-.51.14.34,1a2.07,2.07,0,0,0,.51-.22Zm-.51-1.3a14.91,14.91,0,0,0,1.66-.92s.24-.16.46-.33.41-.38.38-.43-.31,0-.58.12l-.54.19a15.57,15.57,0,0,1-1.73.52l-.5.12.33,1ZM85.35,74a14.93,14.93,0,0,0,1.52-.83s.22-.14.42-.3.4-.35.37-.41-.3,0-.55.1l-.51.16c-.53.17-1.07.31-1.57.43l-.48.11.31,1a4.52,4.52,0,0,0,.49-.22Zm-.53-1.28A14.2,14.2,0,0,0,86.21,72a3.89,3.89,0,0,0,.39-.28c.2-.15.38-.31.35-.37s-.28,0-.52.07l-.48.12c-.49.14-1,.25-1.48.35A4.3,4.3,0,0,0,84,72l.3,1a2.57,2.57,0,0,0,.52-.21Zm-.53-1.28c.43-.2.84-.41,1.25-.65,0,0,.79-.47.69-.59s-.26,0-.48,0l-.44.1a13.26,13.26,0,0,1-1.37.27l-.44.07.28,1Zm-.54-1.29c.38-.17.79-.35,1.13-.54,0,0,.69-.42.64-.54s-.86.06-.86.06c-.41.08-.84.14-1.25.19l-.41,0,.26,1a2.15,2.15,0,0,0,.49-.19Zm-.54-1.29,1-.42s.65-.33.61-.44S84,68,84,68l-1.15.12-.37,0,.23,1Zm-.53-1.2.86-.39s.59-.28.56-.4-.72-.09-.72-.09l-1.06.05H82l.21,1Zm.7-1.92c0-.12-.63-.15-.63-.15H81.5l.16,1,.48-.19.73-.29s.54-.3.54-.42ZM103.63,130s.27-.21.23-.33-.34-.19-.34-.19l-.57-.08h-.12l.24,1,.09-.06Zm-.2,1.64.54-.39s.3-.24.26-.36-.41-.14-.41-.14h-.77l.27,1Zm.27,1.31.6-.45s.34-.28.29-.39-.47-.1-.47-.1h-.86l.29,1Zm.27,1.31a5.23,5.23,0,0,0,.68-.48s.37-.35.3-.46-.51,0-.51,0a5,5,0,0,1-.65.08h-.31l.31,1Zm.26,1.33A5.32,5.32,0,0,0,105,135a1.34,1.34,0,0,0,.2-.21c.09-.11.16-.23.13-.29a2.1,2.1,0,0,0-.56,0,4.1,4.1,0,0,1-.7.12h-.34l.3,1Zm.26,1.32a5.74,5.74,0,0,0,.79-.61l.21-.23c.09-.11.17-.26.14-.31s-.19,0-.33,0l-.26.07a4.28,4.28,0,0,1-.79.17c-.13,0-.25,0-.38,0l.32,1,.3-.17Zm.25,1.32a6,6,0,0,0,.91-.66,2.85,2.85,0,0,0,.23-.26c.11-.13.19-.28.15-.33s-.19,0-.34,0l-.29.08a4.84,4.84,0,0,1-.83.22,2.93,2.93,0,0,1-.41.07l.33,1Zm.26,1.32a5.75,5.75,0,0,0,1-.72,2.91,2.91,0,0,0,.24-.27c.12-.15.21-.31.17-.36s-.21,0-.37.06l-.3.11a4.67,4.67,0,0,1-.9.27,3.12,3.12,0,0,1-.44.09l.33,1Zm.24,1.33a6.87,6.87,0,0,0,1.07-.79s.14-.14.26-.29.22-.34.18-.38-.21,0-.38.09l-.33.13a5.51,5.51,0,0,1-1,.32,3.78,3.78,0,0,1-.46.1l.34,1a2.4,2.4,0,0,1,.29-.19Zm.23,1.33a6.47,6.47,0,0,0,1.17-.85s.15-.16.28-.32.24-.36.19-.4-.22,0-.4.11l-.35.15a4.88,4.88,0,0,1-1,.38l-.47.12.34,1ZM71.12,152.49l.2,0-.31-1-.39.2a5.15,5.15,0,0,0-1.44,1.1s-.62.78-.51.87.86-.52.87-.5a4.85,4.85,0,0,1,1.58-.65Zm-2.05,2.64.55-.32a10.15,10.15,0,0,1,2.3-1h0l-.38-1-.19.11a10.56,10.56,0,0,0-2.12,1.44,4.67,4.67,0,0,0-.44.45c-.21.24-.39.5-.36.54s.31-.12.59-.28Zm.12,1.57.73-.37a11.24,11.24,0,0,1,2.92-1l.24-.06-.25-1a4.45,4.45,0,0,0-.51.19,12.25,12.25,0,0,0-2.73,1.43s-.33.24-.63.51-.58.57-.54.63.41-.18.77-.37Zm1,1.4a11.11,11.11,0,0,1,3.58-1.19h.07l-.22-1-.39.13a11.73,11.73,0,0,0-3.39,1.7,9,9,0,0,0-.72.6c-.35.32-.66.68-.61.72a4.19,4.19,0,0,0,.86-.46,8.54,8.54,0,0,1,.82-.5Zm.7,1.85a12.36,12.36,0,0,1,4.1-1h.39l-.1-1c-.28,0-.57.11-.85.16a13.34,13.34,0,0,0-3.88,1.52,9.6,9.6,0,0,0-.93.64,2.93,2.93,0,0,0-.79.78,5.1,5.1,0,0,0,1.05-.51,9,9,0,0,1,1-.54Zm1.63,1.3a9.36,9.36,0,0,1,3.52-.57,2.94,2.94,0,0,1,.42,0v-1.1c-.33,0-.66.06-1,.11a10.68,10.68,0,0,0-3.26,1.07,7.48,7.48,0,0,0-.84.54c-.4.28-.79.63-.72.67a4.06,4.06,0,0,0,.94-.39l.93-.35Zm1.57,1.15.59-.15a5.83,5.83,0,0,1,2.28-.07h.13l.09-1a5.12,5.12,0,0,0-.78.06,6.5,6.5,0,0,0-1.93.57,3.6,3.6,0,0,0-.54.31c-.26.17-.48.39-.45.44s.31-.05.61-.13Zm3.8,1.29h.06l.3-1a4.62,4.62,0,0,0-1,0,3.51,3.51,0,0,0-.72.07s-.73.18-.7.32.75.19.74.2a4.49,4.49,0,0,1,1.34.44Zm1.06,1.53v-.12l.25-.88a6.25,6.25,0,0,0-1.06,0,2.28,2.28,0,0,0-.52,0s-.71.14-.67.28.68.23.68.24a6.17,6.17,0,0,1,1.32.43Zm.25,1a6,6,0,0,1,.83.22,5.59,5.59,0,0,1,1.13.54l.45-.95a7.06,7.06,0,0,0-.79-.21,6.69,6.69,0,0,0-1.67-.13,5.07,5.07,0,0,0-.54.09c-.27,0-.52.15-.51.21s.28.09.55.14Zm-11.93-124a3.41,3.41,0,0,0-2.9,3.49,9,9,0,0,1,1.25-1.91A8.52,8.52,0,0,1,67.26,42.22ZM67,43.74a2.35,2.35,0,0,0-2.13,2.53,13.17,13.17,0,0,1,1-1.35A15.61,15.61,0,0,1,67,43.74Zm.52.91A2.47,2.47,0,0,0,65.24,47c.39-.48.79-.84,1.11-1.22A12.69,12.69,0,0,1,67.51,44.65Zm-.91,2.18A10.56,10.56,0,0,1,68,45.71a2.52,2.52,0,0,0-2.6,2.35A10.9,10.9,0,0,1,66.6,46.83Zm2-.23a2.81,2.81,0,0,0-2.77,2.15,15.84,15.84,0,0,1,1.37-1.09C67.64,47.37,68.07,47,68.6,46.6Zm.31,1.23A2.67,2.67,0,0,0,66,49.91a16.48,16.48,0,0,1,1.39-1.11A14.49,14.49,0,0,1,68.91,47.83Zm.66.78a2.84,2.84,0,0,0-3,2,17.08,17.08,0,0,1,1.48-1,14.4,14.4,0,0,1,1.55-1Zm.88,1.1a3.13,3.13,0,0,0-3.66,2,9.78,9.78,0,0,1,1.73-1.18,10.38,10.38,0,0,1,1.93-.85Zm.61,1.06a3.31,3.31,0,0,0-4,2.21,7.24,7.24,0,0,1,1.83-1.37,7.91,7.91,0,0,1,2.14-.85Zm.22,1a3.44,3.44,0,0,0-3.93,2,11.43,11.43,0,0,1,1.93-1.15,12,12,0,0,1,2-.81Zm.39.91a4,4,0,0,0-4.19,1.72,17.44,17.44,0,0,1,2.06-1,20.86,20.86,0,0,1,2.13-.77Zm.69.64a4.71,4.71,0,0,0-4.71,2.25,16.27,16.27,0,0,1,2.26-1.29,16.64,16.64,0,0,1,2.45-1Zm15.55,6.91a30.28,30.28,0,0,1,6.84,2.05,8.34,8.34,0,0,0-6.84-2.06Zm6.33.66a7.11,7.11,0,0,0-4.89-1.48,27.81,27.81,0,0,0,4.89,1.47Zm-1-1.39a2.73,2.73,0,0,0-3.24-.9c1.2.34,2,.57,3.24.89ZM90.18,57.7a10.88,10.88,0,0,0,2.42.79,1.83,1.83,0,0,0-2.42-.8Zm1.71-.49a1.36,1.36,0,0,0-1.85-.5l-.13.09a3.76,3.76,0,0,0,2,.4Zm-2-1.35a1.12,1.12,0,0,0,1.56.28h0a1.22,1.22,0,0,0-1.58-.27ZM81.78,43.75a18.28,18.28,0,0,1,3,.36,17.91,17.91,0,0,1,3,.81A6,6,0,0,0,81.78,43.75Zm2.66,1.13a16.72,16.72,0,0,0,3.43.78A3.34,3.34,0,0,0,84.44,44.88Zm3.93,1.73A2.81,2.81,0,0,0,86,46a2.55,2.55,0,0,0,2.38.57Zm-.05.89a1.09,1.09,0,0,0-1.44-.28,1,1,0,0,0,1.41.29h0Zm-.56.74c.18.5.46.6.92.32-.21-.5-.5-.56-.94-.32Zm26.13,81a5.78,5.78,0,0,0-1.9-2,10.55,10.55,0,0,0-5.16-1.47,18,18,0,0,0-10.36,2.53,22.41,22.41,0,0,1,10.28-1.83,11.71,11.71,0,0,1,4.93,1.21,5.2,5.2,0,0,1,2.83,4.17,4.46,4.46,0,0,0-.64-2.64ZM110.18,96.7a8.43,8.43,0,0,0-4.71-1.28,22.53,22.53,0,0,0-9.49,2,32.33,32.33,0,0,1,9.42-1.31,9,9,0,0,1,4.42,1,4.51,4.51,0,0,1,2.35,3.87,3.8,3.8,0,0,0-.4-2.43,5.27,5.27,0,0,0-1.61-1.87Zm1,28.23a9.65,9.65,0,0,0-3.71-1.09,19.35,19.35,0,0,0-7.61,1.27,34,34,0,0,1,7.54-.56,11.82,11.82,0,0,1,3.55.86,8,8,0,0,1,3.07,2.2,7,7,0,0,0-2.85-2.68Zm-8.39-1.86a13,13,0,0,1,10.61,2,8.64,8.64,0,0,0-10.63-2Zm1.57-1.61a13.14,13.14,0,0,1,4.15.15,13.45,13.45,0,0,1,3.93,1.39,7,7,0,0,0-8.08-1.54Zm7.64-.27a4,4,0,0,0-3-1.92,8.23,8.23,0,0,0-3.58.44c1.24.1,2.36.11,3.47.26a6.21,6.21,0,0,1,3.14,1.22Zm-2.44-23.56a11.52,11.52,0,0,0-3.66-.87,15.25,15.25,0,0,0-7.43,1.14,23.5,23.5,0,0,1,7.34-.44,16.32,16.32,0,0,1,3.53.68,4.28,4.28,0,0,1,1.51.89,2.85,2.85,0,0,1,.87,1.62,2.82,2.82,0,0,0-.62-1.81,4.11,4.11,0,0,0-1.54-1.2Zm-.31,2.13a4.29,4.29,0,0,1,2.14,1.75,4,4,0,0,0-1.87-2.22,8.86,8.86,0,0,0-2.73-1,12.51,12.51,0,0,0-5.77.27,25.14,25.14,0,0,1,5.61.43,12.78,12.78,0,0,1,2.65.77Zm2,2.81a5.77,5.77,0,0,0-3.62-2.51,11,11,0,0,0-4.46-.16c1.52.25,2.92.48,4.26.84a9,9,0,0,1,3.82,1.84Zm-.26,1.77a3.77,3.77,0,0,0-2.48-2.45,5.94,5.94,0,0,0-3.54,0,16,16,0,0,1,3.29.67,5.71,5.71,0,0,1,2.73,1.79Zm-.16,1.39a4.09,4.09,0,0,0-5.16-2.25,9.11,9.11,0,0,1,2.75.78,9.47,9.47,0,0,1,2.44,1.48Zm.2,1.28a4.12,4.12,0,0,0-5.1-1.77A12.39,12.39,0,0,1,111.07,107Zm-4.57-.22c.86.17,1.57.37,2.35.57s1.48.4,2.31.69a4.14,4.14,0,0,0-4.66-1.26Zm.34,1.5c.79.16,1.45.35,2.11.51s1.33.31,2.1.53a3.63,3.63,0,0,0-4.21-1Zm.27,1.42c1.63.55,2.86.91,4.52,1.32a4.53,4.53,0,0,0-4.52-1.31Zm2,8.81a8.63,8.63,0,0,1,2.54,1.07,3.85,3.85,0,0,0-5.28-1.33,8.46,8.46,0,0,1,2.74.27Zm.08-1.47a5.78,5.78,0,0,1,2.11,1.14,2.88,2.88,0,0,0-3.66-1.79,3,3,0,0,0-.85.46,5.58,5.58,0,0,1,2.4.2Zm-1.86-5.77c1.49.52,2.56.89,4.08,1.33a3.75,3.75,0,0,0-4.08-1.32Zm4,2.71a2.91,2.91,0,0,0-3.69-1.25c.71.19,1.28.4,1.86.59a15.55,15.55,0,0,1,1.83.7Zm.1,1.34a3,3,0,0,0-3.69-1.37c.7.22,1.27.46,1.84.67s1.17.42,1.85.71Zm-3.87,0a15.86,15.86,0,0,1,4.13,1.24,3.15,3.15,0,0,0-4.13-1.25ZM52.23,143.54A20.16,20.16,0,0,1,38,138a14.22,14.22,0,0,0,14.22,5.5Zm-20.3-38a14.36,14.36,0,0,0,18,7,17,17,0,0,1-18-7Zm7.5,7.46a17.53,17.53,0,0,1-5.67-3.64,11.92,11.92,0,0,0,5.38,4.28A16.37,16.37,0,0,0,45.91,115a32.11,32.11,0,0,1-6.48-2Zm7.66,28a22,22,0,0,1-4.58-1.65,20.29,20.29,0,0,1-4.12-2.66,9.92,9.92,0,0,0,8.7,4.3Zm-3.33-2.94c-.85-.37-1.57-.79-2.35-1.13a17.34,17.34,0,0,1-2.26-1.29,4.59,4.59,0,0,0,4.61,2.41Zm-.35-1.78a19.52,19.52,0,0,1-2.42-1.1,18.43,18.43,0,0,1-2.27-1.43,4.44,4.44,0,0,0,4.69,2.53Zm-4.76-3.75a5.5,5.5,0,0,0,5.23,2.22A47.14,47.14,0,0,1,38.65,132.53Zm4.62.6c-1.57-.78-2.9-1.34-4.54-2.08a4.83,4.83,0,0,0,4.51,2.08Zm-4.61-3.92a4.52,4.52,0,0,0,4.87,2.21,18.81,18.81,0,0,1-2.49-1,17.56,17.56,0,0,1-2.39-1.26Zm4.79.16c-1.9-.56-3.43-1.06-5.29-1.79a5.4,5.4,0,0,0,5.25,1.78Zm-.09-1.89a15.39,15.39,0,0,1-2.64-.79,14.53,14.53,0,0,1-2.49-1.18,4.5,4.5,0,0,0,5.13,2Zm.08-1.78a37.11,37.11,0,0,1-5.91-2.35,6.43,6.43,0,0,0,5.87,2.35Zm-.34-2a55,55,0,0,1-5.5-2.16,5.93,5.93,0,0,0,5.46,2.15Zm.69-2A42.39,42.39,0,0,1,36.91,119a8.3,8.3,0,0,0,6.84,2.71Zm.36-2.15a23,23,0,0,1-4.06-1.19,22,22,0,0,1-3.8-2A8.62,8.62,0,0,0,44.15,119.53ZM36.36,115a10.39,10.39,0,0,0,7.25,2.49c-2.57-.86-4.75-1.59-7.32-2.51Zm8.83,1.09a28.23,28.23,0,0,1-9.75-3.68,11.92,11.92,0,0,0,9.71,3.66Zm61.71,27.72a14.18,14.18,0,0,0,7.61-9A30.74,30.74,0,0,1,106.9,143.79Zm-40,25.78a14,14,0,0,1-3.85-.58,8,8,0,0,1-3.42-2,7.27,7.27,0,0,0,3.23,2.54,11.33,11.33,0,0,0,4,.78,28.29,28.29,0,0,0,4-.22c1.34-.15,2.68-.33,4.06-.55H70.87C69.54,169.5,68.19,169.62,66.92,169.57Zm-4.88,18a5.62,5.62,0,0,0,2.21.9,10.72,10.72,0,0,0,4.67-.44,32.6,32.6,0,0,1-4.53-.26,6.28,6.28,0,0,1-3.87-2,4.12,4.12,0,0,0,1.5,1.83Zm5.25-.51a14.61,14.61,0,0,1-3.2-.62,14,14,0,0,1-3-1.26,5.56,5.56,0,0,0,6.2,1.89Zm-1.94-1.31c-.78-.26-1.39-.52-2-.78s-1.29-.52-2-.86A3.54,3.54,0,0,0,65.35,185.75Zm-1.89-2.12a13.43,13.43,0,0,1-1.93-.78,2.94,2.94,0,0,0,3.93,1.32,12,12,0,0,1-2-.54Zm.78-13.13a28.71,28.71,0,0,1-3.92-1.33,9.19,9.19,0,0,0,8,2.14,30,30,0,0,1-4-.81ZM61.1,171a4.48,4.48,0,0,0,5.13,1.39,19.36,19.36,0,0,1-2.6-.54,20.16,20.16,0,0,1-2.48-.85Zm.32,1.68a4.15,4.15,0,0,0,4.4,1.32c-1.52-.51-2.75-.86-4.36-1.32Zm3.7,2.79c-1.36-.53-2.35-.87-3.79-1.32a3.32,3.32,0,0,0,3.84,1.32Zm.06,1.57c-.68-.18-1.23-.38-1.8-.57s-1.14-.36-1.8-.62A2.81,2.81,0,0,0,65.23,177Zm.17,1.46c-.78-.17-1.38-.36-2-.56s-1.26-.39-2-.68a3.2,3.2,0,0,0,4.05,1.21Zm.06,1.41c-1.39-.43-2.41-.72-3.83-1.13a3.21,3.21,0,0,0,3.88,1.11Zm.41,1.57c-.78-.2-1.46-.44-2.13-.68s-1.35-.49-2.09-.84a3.57,3.57,0,0,0,4.27,1.51Zm-1.9,1.05a12.32,12.32,0,0,1-2.42-1,4,4,0,0,0,5,1.48,14.05,14.05,0,0,1-2.5-.52Zm26.42-1.21a17.78,17.78,0,0,1-3.64,1.57A7.48,7.48,0,0,0,93.59,179a18.2,18.2,0,0,1-3.2,2.24Zm.15,1.21a20.54,20.54,0,0,1-2.5,1.09,4.72,4.72,0,0,0,4.85-2.45,23.14,23.14,0,0,1-2.3,1.36Zm-1.44,2.68a3.33,3.33,0,0,0,3.21-1.88,12.37,12.37,0,0,0-3.17,1.87ZM89,186.44a2.13,2.13,0,0,0,2.76-1.21h0c-.55.2-1,.34-1.41.53s-.78.42-1.3.69Zm.72,1.42a1.81,1.81,0,0,0,2.3-1.13h0A4.8,4.8,0,0,0,89.7,187.86Zm.2,1.62a2,2,0,0,0,2-1,1.82,1.82,0,0,0-2,1ZM89.41,191a2.07,2.07,0,0,0,2.64-1A6.94,6.94,0,0,0,89.38,191Zm2.41.6a2.58,2.58,0,0,0-2,.78,1.46,1.46,0,0,0,2-.7l0-.06Zm0,1.28a6.93,6.93,0,0,0-1.2.26,5.61,5.61,0,0,0-1.1.54,1.56,1.56,0,0,0,2.15-.53,1.34,1.34,0,0,0,.12-.24Zm-3.88,2.27a3.86,3.86,0,0,0,3.92-1.1,17.64,17.64,0,0,0-4,1.13Zm-3.09,2.52a7.78,7.78,0,0,0,6.83-2.82,28.33,28.33,0,0,1-3.33,1.61,27.69,27.69,0,0,1-3.52,1.23Zm-5.54-27.25a32.6,32.6,0,0,1,5.27,1,33.72,33.72,0,0,1,5,1.8,13.13,13.13,0,0,0-10.35-2.76Zm3.63,1.18a23.86,23.86,0,0,0,5.58,2.18,8.88,8.88,0,0,0-5.6-2.16ZM84.4,173a17.54,17.54,0,0,0,3,1.74,2.7,2.7,0,0,0-3-1.72Zm-3.28,16.44a10,10,0,0,0-8.4-1.78,32,32,0,0,1,4.25.64,32.91,32.91,0,0,1,4.13,1.17Zm-27.2-76.9a42.49,42.49,0,0,0,9.9-2.28A91.11,91.11,0,0,0,73,106.37c5.94-2.84,11.71-6,18.32-8.07-6.69,1.57-12.65,4.55-18.57,7.39s-11.95,5.77-18.81,6.91Zm12.26,28.16c3.15-1.08,6.15-2.36,9.17-3.61,6-2.53,12-5.17,18.23-8-6.36,2.41-12.41,4.83-18.44,7.37s-12,5.39-18.77,6.58A44.56,44.56,0,0,0,66.18,140.74Z" transform="translate(-24.81 -23.69)"/></svg>